<?xml version="1.0" encoding="UTF-8"?>
<svg version="1.1" xmlns="http://www.w3.org/2000/svg" width="512" height="512">
<path d="M0 0 C1.16010405 -0.00694553 2.32020809 -0.01389106 3.51546681 -0.02104706 C7.37046641 -0.03922142 11.22484395 -0.02907888 15.0798645 -0.01878357 C17.85692848 -0.02365681 20.63396284 -0.034458 23.41101074 -0.04489136 C30.15188366 -0.06645459 36.89258725 -0.0664242 43.63348328 -0.05826581 C49.11650299 -0.05194739 54.5994736 -0.05311967 60.08249283 -0.05953789 C60.86502742 -0.06043954 61.64756201 -0.0613412 62.45380978 -0.06227018 C64.04389914 -0.06412152 65.6339885 -0.06598408 67.22407784 -0.06785773 C82.11128064 -0.0844097 96.99838849 -0.07573948 111.88558556 -0.05887216 C125.48101961 -0.04418027 139.07623254 -0.05880096 152.67163812 -0.08764232 C166.65940319 -0.11709315 180.64706642 -0.12799189 194.63486111 -0.11846012 C196.21947613 -0.11743765 197.80409116 -0.11644304 199.38870621 -0.11547661 C200.1682037 -0.11500022 200.94770119 -0.11452383 201.75081982 -0.114033 C207.22069799 -0.11187622 212.69047892 -0.12163366 218.16033554 -0.13624763 C224.83591283 -0.15383542 231.51120853 -0.15356198 238.18677507 -0.13089598 C241.58727635 -0.11981091 244.98687839 -0.11919979 248.38742065 -0.13519669 C266.18283791 -0.21225915 281.08944668 -0.16069821 294.86941528 12.5146637 C295.48171997 13.01353088 296.09402466 13.51239807 296.72488403 14.02638245 C304.45526035 20.80112726 310.33342751 32.82093072 311.04811478 43.07977104 C311.1151752 46.19391298 311.11671171 49.30195374 311.09646606 52.41676331 C311.09675812 53.59796753 311.09705017 54.77917175 311.09735107 55.99617004 C311.0962009 59.21679763 311.08620752 62.43724881 311.07220316 65.65784144 C311.05965509 69.03040082 311.0585221 72.40296409 311.05615234 75.77554321 C311.04994951 82.15375891 311.03355499 88.5319056 311.01345336 94.91009098 C310.99105701 102.17491793 310.98009156 109.43974826 310.97006249 116.70460117 C310.94918762 131.64132705 310.91403505 146.57798845 310.86941528 161.5146637 C311.61693558 161.57629196 312.36445587 161.63792023 313.1346283 161.70141602 C314.61173531 161.82831566 314.61173531 161.82831566 316.11868286 161.95777893 C317.09307816 162.0400322 318.06747345 162.12228546 319.07139587 162.20703125 C335.3463016 163.9964002 351.82305199 172.78090941 363.86941528 183.5146637 C364.61320435 184.11665588 365.35699341 184.71864807 366.12332153 185.33888245 C383.40755699 199.67728299 393.90431201 221.47582761 396.86941528 243.5146637 C397.15517312 247.78991095 397.20401983 252.04330312 397.18191528 256.3271637 C397.17627563 257.47426819 397.17063599 258.62137268 397.16482544 259.80323792 C397.045755 268.11341135 396.42133276 275.55811491 393.86941528 283.5146637 C393.58735229 284.43602112 393.58735229 284.43602112 393.29959106 285.37599182 C385.65290635 309.87944928 369.15053722 329.19618422 346.67605591 341.5874176 C336.01334379 347.05998255 322.93418893 351.5146637 310.86941528 351.5146637 C310.87310246 352.12720379 310.87678963 352.73974388 310.88058853 353.37084579 C310.96918286 368.32126299 311.03524263 383.27162546 311.07666397 398.22224045 C311.0972309 405.45246091 311.12523806 412.68250543 311.1711731 419.91261292 C311.21122192 426.21928129 311.23689068 432.52582216 311.24576926 438.83261418 C311.2509539 442.16771333 311.26515876 445.50216083 311.29233551 448.83719635 C311.3215578 452.57332589 311.32536327 456.3087109 311.32351685 460.04493713 C311.33789795 461.13323318 311.35227905 462.22152924 311.36709595 463.34280396 C311.293422 477.20504239 306.06129239 489.34863095 296.49441528 499.3271637 C285.94894242 509.29360061 274.17033239 513.14397691 259.72537231 513.02259827 C258.56385714 513.02883823 257.40234196 513.03507819 256.20562935 513.04150724 C252.34595051 513.05735575 248.48691037 513.04486428 244.62722778 513.03224182 C241.84692089 513.03546776 239.06664041 513.04464748 236.28634644 513.05348206 C229.53811496 513.07120413 222.79006214 513.06745563 216.04182386 513.05583149 C210.55402131 513.04677245 205.06626859 513.04558381 199.57846069 513.04992676 C198.79534865 513.05053969 198.01223662 513.05115262 197.20539391 513.05178413 C195.61417308 513.05306312 194.02295226 513.05435997 192.43173146 513.05567449 C177.53504667 513.0670618 162.63846057 513.0539957 147.74179196 513.03247303 C134.97894513 513.01460371 122.21624386 513.01770834 109.45339966 513.03614807 C94.60750625 513.05758755 79.7616992 513.06596333 64.91579247 513.05369902 C63.33065161 513.05242491 61.74551075 513.05116743 60.16036987 513.04992676 C59.38059096 513.04930966 58.60081204 513.04869255 57.79740345 513.04805675 C52.32059273 513.04461307 46.8438371 513.05041094 41.36703491 513.05984497 C34.68630447 513.07110062 28.00576185 513.06795041 21.32505274 513.04672199 C17.92085728 513.03625897 14.51723114 513.03418562 11.11299896 513.0453186 C7.41284365 513.05630105 3.7135586 513.04247617 0.01345825 513.02259827 C-1.04843153 513.03152115 -2.11032131 513.04044404 -3.20438957 513.04963732 C-14.64108153 512.93102647 -24.07546091 509.41466803 -33.13058472 502.5146637 C-34.67745972 501.4009137 -34.67745972 501.4009137 -36.25558472 500.2646637 C-46.3214014 490.63649122 -51.76067494 477.82850321 -52.25823522 463.95550722 C-52.25948171 462.68381844 -52.26072821 461.41212967 -52.26201248 460.10190487 C-52.26406512 459.38552861 -52.26611775 458.66915236 -52.26823258 457.93106773 C-52.2738766 455.53614028 -52.27244856 453.1412708 -52.27102661 450.74633789 C-52.27361174 449.00960778 -52.27662531 447.27287826 -52.28003001 445.53614956 C-52.28808593 440.76752647 -52.2898888 435.99891843 -52.29062748 431.23028934 C-52.29248049 426.08557983 -52.30002909 420.9408781 -52.3067627 415.7961731 C-52.32033666 404.5480735 -52.32636931 393.29997748 -52.33077335 382.05187106 C-52.33353742 375.02619841 -52.33777509 368.00052714 -52.34227753 360.97485542 C-52.35446909 341.51630839 -52.36476855 322.05776246 -52.36815262 302.59921169 C-52.36837218 301.35414746 -52.36859175 300.10908323 -52.36881797 298.82628978 C-52.36903625 297.57827486 -52.36925453 296.33025994 -52.36947942 295.04442638 C-52.36992288 292.5155439 -52.37036944 289.98666141 -52.37081909 287.45777893 C-52.37104052 286.20337035 -52.37126195 284.94896178 -52.37149009 283.65654082 C-52.37543718 263.335668 -52.39288899 243.01483106 -52.41617861 222.6939721 C-52.43990603 201.82235242 -52.45235511 180.95075074 -52.45352054 160.07911736 C-52.45443653 148.36392739 -52.4601697 136.64878417 -52.47834015 124.9336071 C-52.4937599 114.95686712 -52.49885053 104.98018834 -52.49060205 95.0034387 C-52.48670217 89.91616514 -52.48759277 84.82901475 -52.50165939 79.74175644 C-52.51443793 75.0775488 -52.51316622 70.4135564 -52.50106868 65.74934889 C-52.49911851 64.06896815 -52.50215839 62.38857196 -52.51091304 60.7082129 C-52.59809492 42.83168407 -50.16769732 27.14048618 -37.38449097 13.58106995 C-26.72097671 3.8046418 -14.26180826 -0.11082075 0 0 Z M-33.13058472 56.5146637 C-33.24710957 129.67481075 -33.24710957 129.67481075 -33.32589722 202.8349762 C-33.33372875 212.69597907 -33.34181069 222.55698169 -33.35031128 232.41798401 C-33.35136627 233.65390667 -33.35242127 234.88982933 -33.35350823 236.16320419 C-33.37090731 256.11841701 -33.40244361 276.07358375 -33.4391959 296.02876924 C-33.47659688 316.50689937 -33.4988188 336.98500538 -33.5069387 357.46316826 C-33.5124282 370.10014097 -33.52976886 382.73698347 -33.56225058 395.3739161 C-33.58338802 404.03854978 -33.58978648 412.70311611 -33.58459023 421.3677737 C-33.58202728 426.36745974 -33.58596699 431.36691818 -33.60740662 436.3665638 C-33.6269024 440.94638782 -33.62783504 445.52583163 -33.6141803 450.10567333 C-33.61249319 451.75995295 -33.61754171 453.4142565 -33.63011745 455.06848918 C-33.7157107 467.0256219 -32.58590506 476.7198113 -24.05636597 485.76075745 C-15.89647931 493.19237835 -7.81128743 494.81400365 2.95698547 494.78208923 C4.0773277 494.78662035 5.19766992 494.79115146 6.35196191 494.79581988 C10.10806571 494.80848545 13.86402491 494.80684208 17.62014771 494.80519104 C20.31251566 494.811175 23.00487227 494.81792366 25.69723511 494.82554626 C32.25339398 494.84214507 38.80951689 494.84765533 45.36569502 494.84877102 C50.69727084 494.84972218 56.02883481 494.8538359 61.36040688 494.86017227 C76.48706201 494.87778292 91.6136888 494.88701161 106.74035426 494.88551132 C107.55549567 494.88543141 108.37063708 494.8853515 109.21047974 494.88526917 C110.02662037 494.8851874 110.84276101 494.88510564 111.68363319 494.8850214 C124.90314939 494.88420892 138.12255155 494.90333741 151.34203478 494.9315459 C164.92616504 494.96030293 178.51023972 494.97408459 192.09440118 494.97235835 C199.7166156 494.97169534 207.3387105 494.97714825 214.96089745 494.99871445 C221.45220862 495.01696358 227.94334613 495.02124323 234.4346719 495.0076956 C237.74347647 495.00118412 241.05188059 495.00317372 244.36066628 495.0184021 C247.95638156 495.03387603 251.55122978 495.02453082 255.14692688 495.00914001 C256.69774209 495.0245707 256.69774209 495.0245707 258.2798869 495.04031312 C268.20966436 494.94675022 276.88435275 492.41603527 284.15066528 485.43263245 C292.08445369 476.57924583 293.17490842 467.47718451 293.09646606 455.95802307 C293.09690414 454.25914948 293.09690414 454.25914948 293.09735107 452.5259552 C293.095964 448.80336191 293.08043191 445.08097179 293.06472778 441.3584137 C293.06099545 438.76910003 293.05814952 436.17978495 293.05615234 433.59046936 C293.04931094 427.4849849 293.03356746 421.37958357 293.01345336 415.27413034 C292.99104053 408.31882739 292.98008744 401.36352085 292.97006249 394.40819073 C292.94919954 380.1103097 292.91405731 365.81248927 292.86941528 351.5146637 C292.26795685 351.37596359 291.66649841 351.23726349 291.04681396 351.09436035 C288.29133035 350.45630189 285.53741445 349.81170856 282.78347778 349.16700745 C281.36434082 348.83992798 281.36434082 348.83992798 279.91653442 348.50624084 C272.82814841 346.83974557 266.40870841 344.76484808 259.86941528 341.5146637 C258.94129028 341.06349182 258.01316528 340.61231995 257.05691528 340.1474762 C234.73885921 328.67847516 219.72645727 308.58368226 211.49441528 285.2646637 C203.71862292 259.46004302 207.22188277 232.73305981 219.58694458 209.09596252 C223.93059917 201.175052 229.46578416 194.83735005 235.86941528 188.5146637 C236.68410278 187.70126526 237.49879028 186.88786682 238.33816528 186.04981995 C254.1480316 171.03558002 271.72856811 166.21262973 292.86941528 161.5146637 C292.86941528 126.8646637 292.86941528 92.2146637 292.86941528 56.5146637 C185.28941528 56.5146637 77.70941528 56.5146637 -33.13058472 56.5146637 Z M256.49050903 222.34669495 C250.52402826 230.32596441 249.19122172 238.67836554 250.49441528 248.3896637 C251.68649819 254.62638886 253.91779697 259.91921615 256.86941528 265.5146637 C257.35152466 266.45954651 257.83363403 267.40442932 258.33035278 268.37794495 C266.18892823 282.84922412 283.92446802 307.04219007 298.86941528 314.5146637 C301.85731471 315.0837874 303.92797388 315.11455892 306.54910278 313.4443512 C308.75759669 311.55812679 310.80703346 309.56070335 312.86941528 307.5146637 C313.9719569 306.44922521 315.07484861 305.38414895 316.17800903 304.3193512 C323.25034303 297.42907538 329.85826632 290.3664358 335.86941528 282.5146637 C336.55519653 281.64583557 337.24097778 280.77700745 337.94754028 279.8818512 C347.08963343 267.91338574 355.37327469 253.05454423 353.86941528 237.5146637 C352.30122264 229.38619848 349.2638775 222.73012385 342.46707153 217.7568512 C334.02733241 212.50263767 326.85110398 210.4626091 316.86941528 211.5146637 C311.44673047 213.09424456 307.06592188 215.72427064 302.86941528 219.5146637 C300.37571402 218.36372465 298.26066043 217.09118206 295.99441528 215.5146637 C282.98382002 207.18788272 266.53640211 211.21475938 256.49050903 222.34669495 Z " fill="#000000" transform="translate(83.13058471679688,-0.5146636962890625)"/>
<path d="M0 0 C0.9067372 -0.00427212 1.81347439 -0.00854425 2.74768847 -0.01294583 C5.78677749 -0.02118337 8.82448719 0.00632217 11.8634491 0.03364563 C14.04149849 0.03505593 16.21955026 0.03426447 18.39759827 0.03143311 C24.31261056 0.02999687 30.22711723 0.0594209 36.14201188 0.09430289 C42.32262509 0.12553144 48.50324952 0.12849438 54.68392944 0.13442993 C66.38885207 0.14997861 78.09354157 0.1910212 89.79836148 0.24117738 C103.12346502 0.29743977 116.44856955 0.32454931 129.77376521 0.34965456 C157.18554371 0.40193595 184.59711518 0.48989838 212.00871277 0.60127258 C210.88200008 3.98727143 209.74883939 7.36936378 208.57121277 10.73799133 C208.05023801 12.25486985 207.52940755 13.77179794 207.00871277 15.28877258 C206.74832214 16.02804993 206.48793152 16.76732727 206.21965027 17.52900696 C197.57188453 42.92635937 201.26959837 69.94935564 212.53215027 93.83174133 C218.76813742 106.08413862 227.06575251 116.15638269 237.00871277 125.60127258 C238.67746813 127.26584793 240.34436383 128.9322914 242.00871277 130.60127258 C210.11793779 130.71530361 178.22722074 130.80380434 146.33628957 130.85659923 C142.57239319 130.86285286 138.80849722 130.86932446 135.04460144 130.87593079 C134.29526868 130.87724234 133.54593593 130.87855389 132.77389612 130.87990519 C120.63630772 130.90166949 108.49883756 130.94109661 96.36131934 130.98703656 C83.90969593 131.03377278 71.45813451 131.06156196 59.00642699 131.07171506 C51.32125211 131.07858015 43.63641146 131.10027256 35.95133945 131.14085492 C30.06119883 131.17037685 24.17123032 131.17355388 18.28101349 131.16681099 C15.86264421 131.16818963 13.44426261 131.17817627 11.02596855 131.19729996 C7.72981417 131.2220931 4.43510217 131.21622678 1.13891602 131.20254517 C-0.30417971 131.22439148 -0.30417971 131.22439148 -1.77642888 131.24667913 C-6.25190209 131.19629459 -8.36169852 131.05255874 -12.08474255 128.38389874 C-14.13358654 125.39358494 -14.61849881 124.05025703 -14.62620544 120.47798157 C-14.64030457 119.46863556 -14.65440369 118.45928955 -14.66893005 117.4193573 C-14.6588089 116.32310028 -14.64868774 115.22684326 -14.63825989 114.09736633 C-14.64702148 112.9342392 -14.65578308 111.77111206 -14.66481018 110.57273865 C-14.686818 106.72770392 -14.67224481 102.88381903 -14.65534973 99.03877258 C-14.65871744 96.36745269 -14.66356196 93.69616772 -14.66984558 91.02485657 C-14.67893515 85.42617839 -14.66697286 79.8278303 -14.6431427 74.22920227 C-14.61593218 67.76182446 -14.62474687 61.29523481 -14.65227473 54.82787609 C-14.67498499 49.26928824 -14.6781567 43.71093727 -14.66508138 38.152318 C-14.65729712 34.83492756 -14.6581873 31.51798758 -14.67276382 28.2006073 C-14.68544995 24.50158765 -14.66612299 20.80408534 -14.63825989 17.10517883 C-14.64838104 16.00892181 -14.6585022 14.91266479 -14.66893005 13.78318787 C-14.65483093 12.77384186 -14.64073181 11.76449585 -14.62620544 10.7245636 C-14.62432032 9.85074539 -14.62243519 8.97692719 -14.62049294 8.07662964 C-12.63864639 0.27985061 -6.80786695 -0.11729213 0 0 Z " fill="#000000" transform="translate(80.99128723144531,208.3987274169922)"/>
<path d="M0 0 C1.30500458 -0.0159874 2.61000916 -0.03197479 3.95455933 -0.04844666 C5.38132334 -0.05482332 6.80809205 -0.06021608 8.23486328 -0.06469727 C9.69833468 -0.07366462 11.16180514 -0.08278649 12.62527466 -0.09205627 C15.69356514 -0.10854625 18.7617465 -0.11624633 21.83007812 -0.11914062 C25.75681236 -0.12452361 29.68251743 -0.16219817 33.60896111 -0.20788479 C36.63220946 -0.2376672 39.65521039 -0.24486442 42.67859268 -0.24586678 C44.12587318 -0.25006708 45.57315455 -0.26249405 47.02029037 -0.28338432 C49.04720471 -0.310314 51.07449105 -0.30236393 53.1015625 -0.29296875 C54.25389374 -0.2980394 55.40622498 -0.30311005 56.59347534 -0.30833435 C60.6378954 0.49713083 62.11608764 2.14792511 64.68017578 5.30639648 C65.74293117 8.49466266 65.81970067 10.80037001 65.84130859 14.15136719 C65.85091614 15.35304031 65.86052368 16.55471344 65.87042236 17.7928009 C65.87467224 19.09279526 65.87892212 20.39278961 65.88330078 21.73217773 C65.88905571 23.08115134 65.8948134 24.43012493 65.90057373 25.77909851 C65.91107459 28.60778178 65.916923 31.43643671 65.92041016 34.26513672 C65.92588824 37.87985909 65.94990494 41.49420352 65.97838211 45.10880756 C65.99705957 47.89616469 66.00221682 50.68343177 66.00374603 53.47084618 C66.00822412 55.44832602 66.02684672 57.42575757 66.04571533 59.40315247 C66.04271423 60.61428207 66.03971313 61.82541168 66.03662109 63.07324219 C66.04208954 64.66517143 66.04208954 64.66517143 66.04766846 66.28926086 C65.61216564 69.86476361 64.54755321 72.23889214 62.68017578 75.30639648 C59.1267202 77.67536687 57.57702916 77.56898855 53.36035156 77.59692383 C52.05534698 77.60968353 50.75034241 77.62244324 49.40579224 77.6355896 C47.97902576 77.63864721 46.55225729 77.64087499 45.12548828 77.64233398 C43.66201649 77.64876138 42.19854599 77.6554897 40.7350769 77.6625061 C37.66677879 77.67448253 34.59859328 77.6781866 31.53027344 77.67700195 C27.60368048 77.67679883 23.67781183 77.70409153 19.75139046 77.73854637 C16.72814638 77.76081503 13.70507657 77.76483951 10.68175888 77.7637825 C9.23450094 77.76613889 7.78723823 77.77496466 6.34006119 77.79044724 C4.31306567 77.81010094 2.28585754 77.80174826 0.25878906 77.79223633 C-0.89354218 77.79508636 -2.04587341 77.7979364 -3.23312378 77.8008728 C-6.99767365 77.19780788 -8.64936139 75.98405682 -11.31982422 73.30639648 C-12.40102971 70.06278001 -12.45972237 67.67494857 -12.48095703 64.26196289 C-12.49536835 62.39454941 -12.49536835 62.39454941 -12.5100708 60.4894104 C-12.51491874 59.12892846 -12.51919758 57.76844439 -12.52294922 56.40795898 C-12.52870326 55.01174925 -12.53446096 53.61553954 -12.54022217 52.21932983 C-12.5507227 49.29229363 -12.5565716 46.36528481 -12.56005859 43.43823242 C-12.56554228 39.6933813 -12.58957118 35.94889395 -12.61803055 32.20415688 C-12.6366829 29.31990511 -12.64186389 26.43574054 -12.64339447 23.55143356 C-12.64641554 22.17116685 -12.65442569 20.79090147 -12.66757965 19.41069412 C-12.68469291 17.47707602 -12.68090746 15.54330741 -12.67626953 13.60961914 C-12.67991516 12.51058258 -12.68356079 11.41154602 -12.68731689 10.27920532 C-12.26686546 6.87798997 -11.35953537 5.03918179 -9.31982422 2.30639648 C-5.77012609 -0.06006893 -4.21255338 0.03894948 0 0 Z " fill="#000000" transform="translate(186.31982421875,81.693603515625)"/>
<path d="M0 0 C1.28505936 -0.01283524 2.57011871 -0.02567047 3.89411926 -0.03889465 C5.30400203 -0.04706222 6.71388914 -0.05450592 8.1237793 -0.0612793 C8.83282095 -0.06535482 9.5418626 -0.06943035 10.27239037 -0.07362938 C14.0258289 -0.09449071 17.77923087 -0.10879167 21.53271484 -0.11816406 C25.4066102 -0.12922422 29.27993046 -0.16361849 33.15362263 -0.20333576 C36.13481197 -0.22950282 39.11586435 -0.23785596 42.09715843 -0.24144554 C43.52489287 -0.24631194 44.95262116 -0.25792766 46.3802433 -0.27648354 C48.38095863 -0.30087022 50.38195366 -0.29749063 52.3828125 -0.29296875 C54.08918633 -0.30176811 54.08918633 -0.30176811 55.83003235 -0.31074524 C59.5562539 0.28407541 61.20657376 1.57319318 63.88549805 4.17700195 C65.27107609 6.94815804 65.02037685 9.20642626 65.03076172 12.30737305 C65.03714157 13.5956601 65.04352142 14.88394714 65.0500946 16.21127319 C65.05162337 17.62432823 65.05273728 19.03738377 65.0534668 20.45043945 C65.05667927 21.89531487 65.06004333 23.34018997 65.06355286 24.7850647 C65.06954599 27.81643426 65.0713926 30.84777531 65.07080078 33.87915039 C65.07069923 37.76192841 65.08434368 41.64452329 65.10157299 45.52725792 C65.1126974 48.51269367 65.11471984 51.49808523 65.11419106 54.48353958 C65.11537081 55.91485856 65.11979232 57.34617868 65.12752342 58.77747726 C65.13733025 60.78090813 65.13317922 62.78439259 65.12841797 64.7878418 C65.12984299 65.92764496 65.13126801 67.06744812 65.13273621 68.24179077 C64.88685486 71.16089381 64.51923438 72.77210566 62.88549805 75.17700195 C59.31583719 77.55677586 57.7145552 77.44478502 53.47387695 77.48339844 C52.82798111 77.49172195 52.18208527 77.50004547 51.51661682 77.50862122 C49.38170337 77.53271341 47.24709551 77.54149224 45.11206055 77.5480957 C43.62616891 77.55706288 42.1402782 77.56618474 40.65438843 77.57545471 C37.53901984 77.59194526 34.42375872 77.59964488 31.30834961 77.60253906 C27.32108792 77.60792218 23.33483971 77.64559716 19.34786415 77.69128323 C16.27829321 77.7210634 13.208966 77.72826281 10.13926315 77.72926521 C8.66965469 77.73346593 7.20004539 77.74589456 5.73057938 77.76678276 C3.67160344 77.79372008 1.61497188 77.78886842 -0.4440918 77.77636719 C-2.19923599 77.78397316 -2.19923599 77.78397316 -3.98983765 77.79173279 C-8.1597582 76.97136347 -9.60966727 75.57388789 -12.11450195 72.17700195 C-12.74269104 69.05906677 -12.74269104 69.05906677 -12.74560547 65.52246094 C-12.75276077 64.87466675 -12.75991608 64.22687256 -12.76728821 63.55944824 C-12.78412193 61.42993457 -12.7648108 59.30254214 -12.7434082 57.1730957 C-12.74423732 55.68766608 -12.7466983 54.20223655 -12.75071716 52.71681213 C-12.75357133 49.60894034 -12.73891102 46.50179077 -12.71142578 43.39404297 C-12.67731258 39.41349062 -12.68337395 35.43422671 -12.70208836 31.45361233 C-12.71266318 28.38830348 -12.70371692 25.32329381 -12.68870354 22.25801277 C-12.68352672 20.79042512 -12.68399749 19.32280617 -12.69024849 17.8552227 C-12.69570828 15.80351569 -12.67530785 13.75364593 -12.64794922 11.70214844 C-12.64175064 10.53586411 -12.63555206 9.36957977 -12.62916565 8.16795349 C-12.00882826 4.5628827 -10.94403998 3.41540414 -8.11450195 1.17700195 C-5.3512942 -0.20460192 -3.0923428 0.02681622 0 0 Z " fill="#000000" transform="translate(294.114501953125,81.822998046875)"/>
<path d="M0 0 C1.92747574 -0.01925285 1.92747574 -0.01925285 3.89389038 -0.03889465 C5.29855972 -0.04706162 6.70323341 -0.05450543 8.10791016 -0.0612793 C9.17009703 -0.06739259 9.17009703 -0.06739259 10.25374222 -0.07362938 C14.00070146 -0.09446912 17.74762429 -0.10878075 21.49462891 -0.11816406 C25.3606484 -0.12923392 29.22609318 -0.16364556 33.09190941 -0.20333576 C36.06880756 -0.22949933 39.04556855 -0.23785553 42.02257156 -0.24144554 C43.44751499 -0.24631098 44.87245231 -0.25792396 46.29728317 -0.27648354 C48.29309947 -0.30086813 50.28919612 -0.29749084 52.28515625 -0.29296875 C53.4197226 -0.29883499 54.55428894 -0.30470123 55.72323608 -0.31074524 C59.44480023 0.28464318 61.09565518 1.57692297 63.77197266 4.17700195 C65.15357653 6.9402097 64.92215838 9.19916111 64.94897461 12.29150391 C64.96822746 14.21909294 64.96822746 14.21909294 64.98786926 16.18562317 C64.99603683 17.59550593 65.00348053 19.00539305 65.01025391 20.4152832 C65.01432943 21.12432486 65.01840496 21.83336651 65.02260399 22.56389427 C65.04346531 26.3173328 65.05776628 30.07073478 65.06713867 33.82421875 C65.07819883 37.69811411 65.1125931 41.57143437 65.15231037 45.44512653 C65.17847743 48.42631587 65.18683057 51.40736826 65.19042015 54.38866234 C65.19528655 55.81639677 65.20690227 57.24412507 65.22545815 58.67174721 C65.24984483 60.67246253 65.24646524 62.67345757 65.24194336 64.67431641 C65.2478096 65.81189896 65.25367584 66.94948151 65.25971985 68.12153625 C64.6648992 71.84775781 63.37578143 73.49807766 60.77197266 76.17700195 C57.98863759 77.56866949 55.67989734 77.33513622 52.56567383 77.36987305 C50.60805367 77.39396744 50.60805367 77.39396744 48.61088562 77.41854858 C47.17891083 77.43003539 45.74692877 77.44064404 44.31494141 77.45043945 C43.59486719 77.45576313 42.87479298 77.46108681 42.13289833 77.46657181 C38.32111297 77.49329872 34.5093603 77.51267451 30.69750977 77.52709961 C26.76295451 77.54374178 22.82923785 77.58851565 18.8949995 77.63947105 C15.86748814 77.67315068 12.84017561 77.6846777 9.81249428 77.69032669 C8.36240547 77.69703793 6.91232969 77.71225704 5.46242332 77.7362175 C3.43066443 77.76787605 1.39845584 77.76490361 -0.63354492 77.76049805 C-1.78889236 77.7685849 -2.94423981 77.77667175 -4.13459778 77.78500366 C-8.2856977 76.9691209 -9.73287288 75.55595059 -12.22802734 72.17700195 C-12.8494873 69.05906677 -12.8494873 69.05906677 -12.84326172 65.52246094 C-12.84881073 64.87466675 -12.85435974 64.22687256 -12.8600769 63.55944824 C-12.87183549 61.42989843 -12.84764466 59.30249481 -12.82177734 57.1730957 C-12.8200653 55.68766883 -12.82013288 54.20223894 -12.82189941 52.71681213 C-12.82024843 49.608927 -12.80159087 46.50176517 -12.77001953 43.39404297 C-12.73030712 39.4136379 -12.72597944 35.43417796 -12.73348236 31.45361233 C-12.73655377 28.38832463 -12.72442619 25.32324883 -12.70735168 22.25801277 C-12.70032937 20.7904296 -12.69719622 19.32282243 -12.69804382 17.8552227 C-12.69624302 15.80375739 -12.67484116 13.75341853 -12.64794922 11.70214844 C-12.63953003 10.53586411 -12.63111084 9.36957977 -12.62243652 8.16795349 C-12.18868485 4.87865319 -11.56065192 3.50039218 -9.22802734 1.17700195 C-5.9376525 0.08021034 -3.46523051 0.03010874 0 0 Z " fill="#000000" transform="translate(79.22802734375,81.822998046875)"/>
<path d="M0 0 C1.08470078 -0.00953201 2.16940155 -0.01906403 3.28697205 -0.02888489 C4.45369949 -0.02797348 5.62042694 -0.02706207 6.82250977 -0.02612305 C8.02577408 -0.03040817 9.22903839 -0.0346933 10.46876526 -0.03910828 C13.01318737 -0.04485078 15.55762589 -0.04535244 18.10205078 -0.04101562 C21.99548341 -0.03785675 25.88815553 -0.06131337 29.78149414 -0.08666992 C32.25349839 -0.08894301 34.72550468 -0.08964637 37.19750977 -0.08862305 C38.36221298 -0.09783279 39.5269162 -0.10704254 40.72691345 -0.11653137 C41.81476639 -0.11030258 42.90261932 -0.10407379 44.0234375 -0.09765625 C44.97733871 -0.09828568 45.93123993 -0.0989151 46.91404724 -0.0995636 C50.12110511 0.35121955 51.97260082 1.37234714 54.57641602 3.2746582 C56.69815145 6.45726136 56.83342755 7.28891511 56.86694336 10.94213867 C56.87970306 11.88676971 56.89246277 12.83140076 56.90560913 13.80465698 C56.90783478 14.82342926 56.91006042 15.84220154 56.91235352 16.8918457 C56.92233871 18.46580612 56.92233871 18.46580612 56.93252563 20.07156372 C56.94265533 22.29240159 56.94734256 24.51326991 56.94702148 26.73413086 C56.95139029 30.12966191 56.98769569 33.52388882 57.02563477 36.91918945 C57.03150371 39.07673709 57.03547258 41.2342909 57.03735352 43.3918457 C57.05172455 44.40656952 57.06609558 45.42129333 57.0809021 46.46676636 C57.05208134 50.92077586 57.03259593 53.52761825 54.67260742 57.39233398 C51.4230099 60.31038626 49.5731905 60.40579168 45.28808594 60.43579102 C44.18321335 60.44539856 43.07834076 60.4550061 41.93998718 60.46490479 C40.14160149 60.4712796 40.14160149 60.4712796 38.30688477 60.4777832 C37.07859451 60.48348328 35.85030426 60.48918335 34.58479309 60.49505615 C31.98134221 60.5045169 29.37787929 60.51104438 26.77441406 60.51489258 C22.79093453 60.52144615 18.80782165 60.55560489 14.82446289 60.5871582 C12.29777325 60.59368859 9.77107992 60.59893892 7.24438477 60.6027832 C5.45510811 60.62130341 5.45510811 60.62130341 3.62968445 60.64019775 C2.51535538 60.63719666 1.40102631 60.63419556 0.25292969 60.63110352 C-1.21361809 60.63657196 -1.21361809 60.63657196 -2.70979309 60.64215088 C-5.97984376 60.19933133 -7.80452981 59.26785805 -10.42358398 57.2746582 C-12.3738092 54.41381788 -12.67837668 52.09734757 -12.69824219 48.67724609 C-12.7077742 47.77273209 -12.71730621 46.86821808 -12.72712708 45.93629456 C-12.72621567 44.96643112 -12.72530426 43.99656769 -12.72436523 42.99731445 C-12.72865036 41.99381454 -12.73293549 40.99031464 -12.73735046 39.95640564 C-12.74308934 37.83569086 -12.74359729 35.71495639 -12.73925781 33.59423828 C-12.73609904 30.35260375 -12.75955888 27.11188297 -12.78491211 23.87036133 C-12.78718528 21.80851352 -12.78788852 19.74666326 -12.78686523 17.68481445 C-12.79607498 16.71697525 -12.80528473 15.74913605 -12.81477356 14.75196838 C-12.75528287 6.08291953 -12.75528287 6.08291953 -9.42358398 2.2746582 C-6.23105149 0.27821011 -3.73236922 0.01804258 0 0 Z " fill="#000000" transform="translate(296.423583984375,407.725341796875)"/>
<path d="M0 0 C1.59713333 -0.01441132 1.59713333 -0.01441132 3.22653198 -0.02911377 C4.37654694 -0.03336365 5.52656189 -0.03761353 6.71142578 -0.04199219 C7.893909 -0.04769226 9.07639221 -0.05339233 10.29470825 -0.05926514 C12.79802556 -0.06871683 15.30135531 -0.07524979 17.8046875 -0.07910156 C21.63449789 -0.0888108 25.46377254 -0.11983499 29.29345703 -0.15136719 C31.72444342 -0.15789687 34.15543366 -0.16314748 36.58642578 -0.16699219 C38.30537552 -0.18551239 38.30537552 -0.18551239 40.05905151 -0.20440674 C41.13011139 -0.20140564 42.20117126 -0.19840454 43.3046875 -0.1953125 C44.24384003 -0.19895813 45.18299255 -0.20260376 46.15060425 -0.20635986 C50.25809504 0.36733679 52.89179458 2.27118911 55.78173828 5.16113281 C56.06262207 7.26618958 56.06262207 7.26618958 56.10400391 9.89868164 C56.12321899 10.88342972 56.14243408 11.8681778 56.16223145 12.88276672 C56.1707312 13.95044785 56.17923096 15.01812897 56.18798828 16.11816406 C56.19938843 17.21327805 56.21078857 18.30839203 56.22253418 19.43669128 C56.2414523 21.75764083 56.25450934 24.07864432 56.26220703 26.3996582 C56.28160564 29.94936084 56.34362023 33.49674066 56.40673828 37.04589844 C56.41979968 39.29913987 56.4303001 41.55239789 56.43798828 43.80566406 C56.46268188 44.86727249 56.48737549 45.92888092 56.51281738 47.0226593 C56.48397173 51.80065607 56.34247049 54.36906659 53.53417969 58.3359375 C48.67009245 61.48773881 42.65418711 60.81177823 37.08642578 60.71972656 C35.86142365 60.71739517 34.63642151 60.71506378 33.3742981 60.71266174 C30.79047663 60.70293606 28.20667612 60.68117655 25.62304688 60.64819336 C21.66390498 60.59872236 17.70600534 60.5867075 13.74658203 60.58105469 C11.23485003 60.56697083 8.72312884 60.5507672 6.21142578 60.53222656 C4.43322952 60.52418251 4.43322952 60.52418251 2.61911011 60.51597595 C1.51761627 60.49998856 0.41612244 60.48400116 -0.71875 60.4675293 C-1.68660431 60.4568895 -2.65445862 60.44624969 -3.65164185 60.43528748 C-6.35541583 60.14648263 -7.95295765 59.64695634 -10.21826172 58.16113281 C-12.37116475 54.93177827 -12.47610084 54.02248199 -12.50878906 50.29418945 C-12.52154877 49.30628922 -12.53430847 48.31838898 -12.54745483 47.30055237 C-12.54968048 46.23489548 -12.55190613 45.16923859 -12.55419922 44.07128906 C-12.56085602 42.97521835 -12.56751282 41.87914764 -12.57437134 40.74986267 C-12.58450129 38.43067098 -12.58918825 36.11145012 -12.58886719 33.79223633 C-12.59324047 30.24088627 -12.62955841 26.69077854 -12.66748047 23.13964844 C-12.67334844 20.88769957 -12.67731796 18.63574479 -12.67919922 16.38378906 C-12.69357025 15.3201564 -12.70794128 14.25652374 -12.7227478 13.16065979 C-12.67716369 5.81881928 -12.67716369 5.81881928 -10.37695312 2.5222168 C-6.8634332 0.3068952 -4.05944346 0.02956382 0 0 Z " fill="#000000" transform="translate(191.21826171875,407.8388671875)"/>
<path d="M0 0 C1.59713333 -0.01441132 1.59713333 -0.01441132 3.22653198 -0.02911377 C4.37654694 -0.03336365 5.52656189 -0.03761353 6.71142578 -0.04199219 C7.893909 -0.04769226 9.07639221 -0.05339233 10.29470825 -0.05926514 C12.79802556 -0.06871683 15.30135531 -0.07524979 17.8046875 -0.07910156 C21.63449789 -0.0888108 25.46377254 -0.11983499 29.29345703 -0.15136719 C31.72444342 -0.15789687 34.15543366 -0.16314748 36.58642578 -0.16699219 C38.30537552 -0.18551239 38.30537552 -0.18551239 40.05905151 -0.20440674 C41.13011139 -0.20140564 42.20117126 -0.19840454 43.3046875 -0.1953125 C44.24384003 -0.19895813 45.18299255 -0.20260376 46.15060425 -0.20635986 C50.25809504 0.36733679 52.89179458 2.27118911 55.78173828 5.16113281 C56.04916382 7.2729187 56.04916382 7.2729187 56.07226562 9.91455078 C56.08502533 10.90252655 56.09778503 11.89050232 56.1109314 12.90841675 C56.11315704 13.97923492 56.11538269 15.0500531 56.11767578 16.15332031 C56.12766098 17.7995488 56.12766098 17.7995488 56.1378479 19.47903442 C56.14798777 21.80420247 56.15266451 24.12939971 56.15234375 26.45458984 C56.15671212 30.01481086 56.19300603 33.57378798 56.23095703 37.13378906 C56.23682579 39.39029523 56.24079479 41.6468073 56.24267578 43.90332031 C56.25704681 44.97009003 56.27141785 46.03685974 56.28622437 47.13595581 C56.24049792 54.52470529 56.24049792 54.52470529 53.87792969 57.80224609 C50.48914279 59.99907673 48.54007688 60.3006891 44.50927734 60.35400391 C43.40763245 60.37006683 42.30598755 60.38612976 41.17095947 60.40267944 C36.1255347 60.44708367 31.08024243 60.48819984 26.03466797 60.51123047 C23.37258721 60.52455387 20.71232234 60.55506483 18.05029297 60.59326172 C14.21574802 60.64801373 10.38224645 60.66990411 6.54736328 60.68457031 C4.76582855 60.71857437 4.76582855 60.71857437 2.94830322 60.75326538 C-6.28429551 60.72965025 -6.28429551 60.72965025 -9.97070312 58.33374023 C-13.31208711 53.61711141 -13.04349122 49.5290455 -12.94482422 43.87597656 C-12.94582123 42.78273575 -12.94681824 41.68949493 -12.94784546 40.56312561 C-12.94317119 38.25579545 -12.92375585 35.94845445 -12.890625 33.64135742 C-12.84337773 30.10731016 -12.84951266 26.57627563 -12.86279297 23.04199219 C-12.8516407 20.79913564 -12.83742174 18.5562918 -12.81982422 16.31347656 C-12.82164703 15.25611801 -12.82346985 14.19875946 -12.8253479 13.10935974 C-12.68430175 5.82476939 -12.68430175 5.82476939 -10.36816406 2.52661133 C-6.86233632 0.29993695 -4.05743442 0.02954919 0 0 Z " fill="#000000" transform="translate(85.21826171875,407.8388671875)"/>
<path d="M0 0 C1.37192952 -0.00677891 2.74384994 -0.01568358 4.11575317 -0.02655029 C7.83490999 -0.04931864 11.5533723 -0.04051813 15.27254105 -0.02465487 C19.16730857 -0.0119828 23.06201722 -0.02373959 26.95678711 -0.03158569 C33.497016 -0.04067851 40.03696245 -0.02870422 46.57714844 -0.00488281 C54.1351189 0.02232805 61.69241495 0.0135136 69.25036907 -0.01401484 C75.74312195 -0.03671561 82.23567198 -0.03990135 88.72845173 -0.02682149 C92.60471461 -0.01903219 96.48066064 -0.01797071 100.35690308 -0.03450394 C104.00155021 -0.04896389 107.64532918 -0.0389008 111.28988266 -0.01003265 C113.26291464 -0.00028361 115.23602019 -0.01510917 117.20901489 -0.03067017 C126.8523692 0.08478454 126.8523692 0.08478454 129.95874023 2.96865845 C132.21347158 6.51798379 132.32453201 8.51307903 131.66015625 12.64697266 C129.8645322 15.40026287 128.60760703 17.17324727 125.66015625 18.64697266 C123.84700588 18.74679073 122.03016718 18.78206278 120.21427917 18.78741455 C119.05760239 18.79312469 117.9009256 18.79883484 116.709198 18.80471802 C114.79616379 18.80639481 114.79616379 18.80639481 112.84448242 18.80810547 C111.49271 18.81273295 110.14093889 18.81775752 108.78916931 18.82315063 C105.11138387 18.83628431 101.43361669 18.84272159 97.75581145 18.84716129 C95.45853094 18.85009076 93.16125543 18.85419535 90.86397743 18.85866547 C83.6777299 18.87234361 76.49149379 18.88200843 69.30523413 18.88586736 C61.00730809 18.89034755 52.70954681 18.9078922 44.41167086 18.93686795 C37.99971242 18.95848148 31.58780035 18.96857148 25.17580587 18.96990848 C21.34537732 18.97095685 17.51510359 18.97687114 13.68471336 18.99472809 C10.08056226 19.01120296 6.47668243 19.01336728 2.8725071 19.00458908 C0.92088475 19.00345113 -1.03072856 19.01717348 -2.9822998 19.03134155 C-4.7300042 19.02298782 -4.7300042 19.02298782 -6.51301575 19.01446533 C-8.02869503 19.01666517 -8.02869503 19.01666517 -9.57499409 19.01890945 C-12.82072174 18.58228334 -14.7074421 17.56533971 -17.33984375 15.64697266 C-18.91882428 12.48901159 -19.15912546 9.0402663 -18.33984375 5.64697266 C-13.87605576 -1.17114438 -7.52125952 -0.05932012 0 0 Z " fill="#000000" transform="translate(156.33984375,176.35302734375)"/>
</svg>
