<?xml version="1.0" encoding="UTF-8"?>
<svg version="1.1" xmlns="http://www.w3.org/2000/svg" width="512" height="512">
<path d="M0 0 C1.34724189 -0.00807831 1.34724189 -0.00807831 2.72170079 -0.01631981 C5.71395178 -0.0305613 8.705758 -0.02350503 11.69802856 -0.01637268 C13.85044712 -0.02207826 16.00286266 -0.02904324 18.15527344 -0.03717041 C23.99003952 -0.05509678 29.82465517 -0.05393428 35.65944052 -0.04822803 C40.53512436 -0.04513522 45.41077935 -0.05122971 50.28645909 -0.05726677 C61.79151192 -0.07130889 73.2964905 -0.06975348 84.80154419 -0.05836487 C96.65994273 -0.04688568 108.51811506 -0.06095683 120.3764838 -0.08776134 C130.56781602 -0.1099329 140.75907732 -0.11655237 150.95043194 -0.11068493 C157.03278402 -0.10731746 163.11499111 -0.10971661 169.19732285 -0.12693596 C174.91838345 -0.14242591 180.63910952 -0.13842647 186.36015701 -0.11963081 C188.45551236 -0.11595056 190.5508926 -0.11903689 192.64622498 -0.1295166 C216.87976496 -0.24143239 216.87976496 -0.24143239 226.9289856 9.1962738 C233.61647054 17.22984779 235.87571257 25.95053538 235.8818388 36.19160175 C235.88359184 36.85429419 235.88534487 37.51698662 235.88715103 38.19976065 C235.8917991 40.4180459 235.88934862 42.63626527 235.88691711 44.85455322 C235.88878569 46.46199001 235.89108657 48.06942633 235.89378244 49.67686194 C235.89990111 54.0925493 235.89976676 58.50821772 235.89858806 62.92390835 C235.89838407 67.68680369 235.90390263 72.44969294 235.90864563 77.21258545 C235.91695307 86.54338856 235.91970051 95.87418535 235.92025801 105.20499185 C235.92073312 112.78915531 235.9227876 120.37331668 235.92595863 127.95747948 C235.9347654 149.45807675 235.93937796 170.95866904 235.93862816 192.45926813 C235.93856823 194.19802515 235.93856823 194.19802515 235.93850708 195.97190857 C235.9384662 197.13249453 235.93842532 198.29308049 235.9383832 199.48883571 C235.9379767 218.29997476 235.94754708 237.1110938 235.96164545 255.92222706 C235.97600599 275.23550384 235.98291581 294.54877085 235.98205167 313.8620531 C235.98171959 324.70574106 235.98447137 335.54940804 235.99522972 346.3930912 C236.00433048 355.62522526 236.00651345 364.85732882 235.9997203 374.08946542 C235.99645298 378.79938817 235.99640609 383.50925241 236.00507355 388.21916962 C236.01293003 392.53277283 236.01151581 396.84627103 236.00278942 401.15987166 C236.00125256 402.71838903 236.0030776 404.27691421 236.00864949 405.83542237 C236.05255837 418.99090852 235.179375 429.90840941 226.1555481 440.2118988 C215.73814201 449.98899151 202.92210683 448.96168284 189.58132935 448.90525818 C187.42861458 448.91068367 185.27590353 448.91780873 183.12319946 448.92649841 C177.29676655 448.94468366 171.47061798 448.93768393 165.6441803 448.92498207 C159.53630833 448.91482959 153.42846012 448.92425399 147.32058716 448.93052673 C137.06500901 448.93779657 126.80954622 448.92823277 116.5539856 448.90916443 C104.71030558 448.88739707 92.86690103 448.8944489 81.02322769 448.91647005 C70.8403399 448.93464288 60.65753486 448.93717313 50.47463608 448.92671537 C44.39902992 448.92049084 38.32355309 448.91961629 32.24795532 448.93286133 C26.53506118 448.94444651 20.82252097 448.93634503 15.10966492 448.9132843 C13.01753832 448.90801151 10.92538175 448.90948639 8.83326721 448.91833496 C-4.20327827 448.96837429 -15.36360023 449.00945751 -25.4225769 439.58299255 C-31.80054843 431.907575 -34.36790295 423.47710403 -34.37822342 413.67836475 C-34.38130237 412.68144114 -34.38130237 412.68144114 -34.38444352 411.66437766 C-34.39010567 409.43352071 -34.38865724 407.20272566 -34.38723755 404.97186279 C-34.38982163 403.35775198 -34.39283492 401.7436418 -34.39624095 400.12953252 C-34.4043091 395.69071526 -34.40610042 391.25191417 -34.40683842 386.81309044 C-34.40868929 382.0269802 -34.4162368 377.24087834 -34.42297363 372.45477295 C-34.43655612 361.98779041 -34.44258153 351.52081169 -34.44698429 341.0538218 C-34.44974683 334.5183245 -34.45398421 327.98282868 -34.45848846 321.44733238 C-34.47068098 303.35281753 -34.48098036 285.25830386 -34.48436356 267.16378498 C-34.48458312 266.0056726 -34.48480269 264.84756021 -34.48502891 263.65435351 C-34.48524719 262.49346899 -34.48546546 261.33258447 -34.48569036 260.13652164 C-34.48613382 257.78412457 -34.48658038 255.43172751 -34.48703003 253.07933044 C-34.48725146 251.91246007 -34.48747289 250.74558969 -34.48770103 249.5433596 C-34.49164906 230.63582544 -34.50910331 211.72832981 -34.53238955 192.82081053 C-34.55610362 173.4092494 -34.56856543 153.99770761 -34.56973147 134.58613175 C-34.5706482 123.68705184 -34.57639988 112.78802215 -34.59455109 101.88895607 C-34.60995279 92.60814215 -34.6150721 83.32739396 -34.60681298 74.04656968 C-34.60290676 69.31219858 -34.60383479 64.57795985 -34.61787033 59.84360504 C-34.63061069 55.50642938 -34.62941053 51.16948557 -34.61727962 46.83231022 C-34.61532286 45.26634105 -34.61840007 43.70035544 -34.62712398 42.13440935 C-34.69201921 29.69443476 -33.54052691 19.16042885 -25.24679565 9.38768005 C-17.87218578 2.39477876 -9.96253392 -0.07249835 0 0 Z M78.75320435 15.38768005 C77.33278614 18.22851647 77.43868162 20.24245283 77.75320435 23.38768005 C79.17852622 25.72000601 79.17852622 25.72000601 81.75320435 27.38768005 C84.73389947 27.78540624 87.33724737 27.94915064 90.31570435 27.91893005 C91.14400757 27.92275696 91.97231079 27.92658386 92.82571411 27.93052673 C94.57401752 27.9332443 96.32236168 27.92589386 98.07058716 27.90916443 C100.74436211 27.88775087 103.41545031 27.90896949 106.08914185 27.93455505 C107.7896686 27.93191175 109.49019369 27.92678671 111.19070435 27.91893005 C111.9887146 27.92702698 112.78672485 27.9351239 113.60891724 27.94346619 C117.19533261 27.88297756 119.33095864 27.69892981 122.2571106 25.54197693 C124.30506231 22.59303341 124.33929713 20.90423678 123.75320435 17.38768005 C121.88610524 15.08492449 120.39672693 13.70944135 117.75320435 12.38768005 C115.25824272 12.26469292 112.79225618 12.19933566 110.2961731 12.18455505 C109.55619583 12.17885498 108.81621857 12.17315491 108.05381775 12.1672821 C106.48609854 12.15782987 104.91835943 12.15129723 103.35061646 12.14744568 C100.96036728 12.13775973 98.57098529 12.1067481 96.18093872 12.07518005 C94.65685528 12.06864782 93.13276569 12.06339822 91.6086731 12.05955505 C90.89704514 12.04720825 90.18541718 12.03486145 89.45222473 12.0221405 C85.04384932 12.04177325 82.25695452 12.67387379 78.75320435 15.38768005 Z M131.6711731 94.53611755 C127.65742278 99.48781794 123.75320435 104.80328836 123.75320435 111.38768005 C123.08748413 111.43448914 122.42176392 111.48129822 121.73587036 111.52952576 C114.91946457 112.07028322 108.36342863 113.09637873 101.69070435 114.57518005 C100.694823 114.79585144 99.69894165 115.01652283 98.67288208 115.24388123 C79.70534635 119.58412914 61.1435443 126.13289323 45.75320435 138.38768005 C44.90113403 139.06443787 44.04906372 139.74119568 43.1711731 140.4384613 C32.57652275 149.38117217 24.3487272 162.38253498 22.75320435 176.38768005 C21.7532268 191.48072635 23.81977298 203.00170943 33.20632935 215.2900238 C42.16567046 225.26747187 56.29950147 230.37819523 68.75320435 234.38768005 C69.41320435 234.38768005 70.07320435 234.38768005 70.75320435 234.38768005 C70.81507935 235.33643005 70.87695435 236.28518005 70.94070435 237.26268005 C72.29289265 246.30772342 77.62171008 253.87350681 84.75320435 259.38768005 C93.46076679 264.32864888 102.06818103 265.81596043 111.81570435 263.26268005 C118.50421727 261.06784922 124.18185325 256.720923 128.75320435 251.38768005 C128.75320435 250.72768005 128.75320435 250.06768005 128.75320435 249.38768005 C142.43801788 253.72286916 153.46578812 258.95655571 161.62820435 271.20018005 C163.90739105 277.6578757 163.58504106 283.3037069 160.69070435 289.51268005 C151.17313228 306.4182017 133.08183566 316.09113683 116.75320435 325.38768005 C115.78544067 325.94600525 115.78544067 325.94600525 114.79812622 326.51560974 C102.11456622 333.79020919 87.09851286 342.27991511 72.75320435 345.38768005 C71.57757935 343.80986755 71.57757935 343.80986755 70.37820435 342.20018005 C65.97285003 337.0167918 60.10721713 334.50568431 53.75320435 332.38768005 C42.8284961 331.52109071 34.2390787 332.59334283 25.50320435 339.45018005 C18.52972452 345.9993102 14.74230781 354.52010788 14.44070435 364.01268005 C14.61632509 373.87671212 18.47476298 381.19211138 25.24539185 388.2197113 C31.97537756 394.03768961 39.62790063 396.76598144 48.5149231 396.59861755 C58.30367629 395.67611725 65.37773736 391.16067506 72.00320435 384.13768005 C78.06477931 376.58555387 79.4019916 368.86718267 78.75320435 359.38768005 C79.45179565 359.27537048 80.15038696 359.16306091 80.87014771 359.04734802 C86.63569107 357.72814249 91.94180934 354.93843777 97.31570435 352.51268005 C97.96259216 352.22178497 98.60947998 351.93088989 99.27597046 351.63117981 C127.62669002 338.8430969 165.67184284 320.7763341 177.69070435 289.95018005 C180.71374922 279.36952301 178.62765265 270.44176678 173.4680481 261.0478363 C165.66317561 248.32959005 151.86208798 239.69798416 137.75320435 235.38768005 C136.76320435 235.38768005 135.77320435 235.38768005 134.75320435 235.38768005 C134.83570435 234.29455505 134.91820435 233.20143005 135.00320435 232.07518005 C134.95269126 222.54504474 130.35445655 214.04249211 123.75320435 207.38768005 C115.22252227 200.63903602 106.42386206 199.46799906 95.75320435 200.38768005 C87.13129201 202.27708664 79.8802729 207.70055949 74.9992981 215.0165863 C73.59813588 217.23631626 73.59813588 217.23631626 73.75320435 219.38768005 C46.89825833 209.99178083 46.89825833 209.99178083 39.87820435 196.88768005 C36.41729745 186.298953 38.24259712 174.39889278 43.1242981 164.6493988 C53.10065275 147.35226592 73.52732211 138.26779277 92.09841919 133.06394958 C100.37265675 130.95620284 108.78069294 129.40264015 117.17630005 127.86497498 C119.70708266 127.39622272 122.23057881 126.89834335 124.75320435 126.38768005 C124.93882935 127.19205505 125.12445435 127.99643005 125.31570435 128.82518005 C128.91039456 137.73376014 135.08438891 143.44003487 143.75320435 147.38768005 C151.62787568 150.29028928 159.61480972 149.85736657 167.37820435 146.76268005 C175.52641022 142.77495386 182.45703764 136.09575645 185.86257935 127.62986755 C188.09191657 119.51429782 188.11022034 109.90885256 184.08132935 102.3759613 C177.8621442 93.0654753 171.2354792 87.67749631 160.40164185 84.8681488 C149.74958134 82.93569535 139.15589448 86.81267148 131.6711731 94.53611755 Z " fill="#000000" transform="translate(155.24679565429688,31.612319946289063)"/>
<path d="M0 0 C3.92735809 3.21660651 5.81628183 6.26171612 6.4375 11.39453125 C6.71679661 17.77471324 6.05723314 21.74198884 2.125 26.8125 C-2.44708851 30.85295031 -6.88551654 32.05614001 -12.875 31.8125 C-17.34536856 30.97931303 -20.69173517 29.39807204 -23.75 26 C-27.38882199 20.54176701 -28.34932481 16.41133063 -27.41015625 9.98828125 C-26.22543281 5.17155896 -23.72152713 2.46503133 -19.875 -0.5 C-13.41543694 -4.13350422 -6.29487843 -4.15649085 0 0 Z " fill="#000000" transform="translate(320.875,134.1875)"/>
<path d="M0 0 C5.23758515 2.74403918 8.02625414 6.81704368 9.859375 12.31640625 C10.22760988 17.93198814 10.09828906 21.51027571 6.859375 26.31640625 C2.56970184 30.64664369 -0.5777291 33.09921168 -6.828125 33.62890625 C-11.60023004 33.55859899 -15.23412488 32.00158371 -19.140625 29.31640625 C-24.00618749 24.20132773 -24.49392953 19.87013505 -24.421875 13.04296875 C-23.89282282 7.91410175 -21.24400053 5.28842755 -17.515625 2.00390625 C-12.36899329 -1.65291102 -6.02789854 -1.9249676 0 0 Z " fill="#000000" transform="translate(265.140625,247.68359375)"/>
<path d="M0 0 C4.47870656 2.15937638 7.18198188 4.92952939 10 9 C11.67652353 14.02957058 12.07699578 19.33655815 10.05859375 24.328125 C7.69956973 28.3214572 5.43917627 31.32297785 1 33 C-5.38944055 34.38238322 -10.25874051 34.53308276 -16 31 C-20.39453216 26.78443069 -22.78518326 23.53483751 -23.3125 17.3125 C-23.24224876 12.5441972 -21.68973249 8.90054454 -19 5 C-13.02223658 -0.55078032 -7.96337584 -0.75047521 0 0 Z " fill="#000000" transform="translate(208,379)"/>
</svg>
