<?xml version="1.0" encoding="UTF-8"?>
<svg version="1.1" xmlns="http://www.w3.org/2000/svg" width="512" height="512">
<path d="M0 0 C0.68203401 -0.00265183 1.36406801 -0.00530365 2.06676972 -0.00803584 C4.36289589 -0.0157239 6.65896855 -0.01628782 8.95510674 -0.01688576 C10.61372762 -0.0209007 12.27234753 -0.02533898 13.93096626 -0.03016531 C18.49745627 -0.04213302 23.06393571 -0.04777972 27.63043833 -0.05234647 C32.55222104 -0.05830176 37.47399112 -0.06991174 42.3957653 -0.08063698 C54.28597627 -0.10516185 66.17619142 -0.11978784 78.0664199 -0.13269705 C81.42429129 -0.13640878 84.78216227 -0.14038203 88.14003325 -0.14444971 C108.98880826 -0.16968498 129.83758393 -0.19173961 150.68637085 -0.20417786 C155.5157668 -0.20710758 160.34516274 -0.21006924 165.17455864 -0.21308327 C166.9750576 -0.21420234 166.9750576 -0.21420234 168.81193028 -0.21534403 C188.25950988 -0.22799948 207.70699809 -0.26122519 227.15453495 -0.3028851 C247.11750956 -0.3452989 267.08043736 -0.36887222 287.04345691 -0.37409842 C298.25334867 -0.37751305 309.46309759 -0.38927457 320.67294502 -0.42220116 C330.21914355 -0.45019509 339.76516994 -0.46120381 349.31140633 -0.4500057 C354.18155139 -0.44481751 359.05133594 -0.44771644 363.92142868 -0.47247124 C368.38274811 -0.49495884 372.84344795 -0.49422771 377.3047782 -0.47526737 C378.91587074 -0.47246668 380.52700526 -0.47806976 382.13803031 -0.4930803 C391.9967392 -0.57929701 400.54975982 -0.09940011 408.13583767 6.87926829 C415.4841181 14.65190812 416.39557792 23.65263251 416.35546684 33.88432884 C416.35561287 34.86041603 416.3557589 35.83650322 416.35590935 36.84216881 C416.35521388 40.06156719 416.34743855 43.28090739 416.3395977 46.50029564 C416.33773223 48.73517386 416.33630893 50.97005249 416.33530998 53.20493126 C416.33149502 59.08214513 416.32167343 64.95933422 416.310606 70.83653831 C416.30036994 76.83578214 416.29580766 82.83502997 416.29076958 88.83428001 C416.28005027 100.60186902 416.26298608 112.36943964 416.24194145 124.13701439 C415.24715279 124.14510124 414.25236412 124.1531881 413.22743034 124.16152 C403.82650681 124.23919545 394.42572419 124.32698783 385.02498531 124.42454147 C380.19262913 124.47436668 375.36029336 124.52069741 370.52783012 124.55888939 C365.85930352 124.59591686 361.19095362 124.64232303 356.52257919 124.6950779 C354.74654508 124.71352944 352.97047322 124.72867104 351.19438171 124.74035835 C348.69581157 124.75738009 346.19763802 124.7864512 343.69921684 124.81816673 C342.97416451 124.82032692 342.24911217 124.82248711 341.50208855 124.82471275 C333.00434724 124.96142102 324.78613393 126.40397182 318.24194145 132.13701439 C312.99506441 138.62717316 311.09313582 143.66729577 311.08080864 151.9856472 C311.07584373 152.78438759 311.07087883 153.58312798 311.06576347 154.40607262 C311.05114917 157.05077029 311.04434037 159.69540795 311.03881645 162.34013939 C311.03306353 164.17996281 311.02730581 166.01978621 311.0215435 167.8596096 C311.011035 171.71982159 311.00519163 175.58001277 311.00170708 179.44023705 C310.99622867 184.37760001 310.972214 189.31468633 310.94373512 194.25196266 C310.92507433 198.0541774 310.91990127 201.85632603 310.9183712 205.65858269 C310.91535092 207.4781832 310.90734352 209.29778273 310.89418602 211.11733818 C310.87705664 213.66870461 310.87902265 216.21940223 310.88549614 218.77080345 C310.87628136 219.51703468 310.86706657 220.26326591 310.85757256 221.03211021 C310.91257438 227.98158594 313.00763575 232.69290705 317.24194145 238.13701439 C317.24194145 238.79701439 317.24194145 239.45701439 317.24194145 240.13701439 C317.82343452 240.42397179 318.4049276 240.71092918 319.00404167 241.00658226 C320.37674014 241.69997455 321.73653161 242.42071274 323.07053947 243.18590355 C330.23856113 246.94795773 337.41168501 246.74165581 345.3395977 246.74638939 C346.78406925 246.76139579 348.2285238 246.77812805 349.67295647 246.79649925 C353.44579739 246.83990991 357.21840699 246.86011278 360.99145317 246.8752346 C364.85308171 246.89490144 368.71446383 246.93686012 372.57592583 246.97685814 C380.13119769 247.05187478 387.6863652 247.10233799 395.24194145 247.13701439 C395.58974663 248.18155785 395.9375518 249.2261013 396.29589653 250.30229759 C397.58964196 254.17986079 398.89509163 258.05339807 400.20409966 261.92583275 C400.76882235 263.60184151 401.33037255 265.27892272 401.88866997 266.95708275 C402.69209635 269.37021854 403.50688384 271.77925696 404.3239727 274.18779564 C404.5709742 274.93789406 404.81797569 275.68799248 405.07246208 276.46082115 C406.67896342 281.49548642 406.67896342 281.49548642 410.24194145 285.13701439 C412.22194145 285.79701439 414.20194145 286.45701439 416.24194145 287.13701439 C416.24194145 294.72701439 416.24194145 302.31701439 416.24194145 310.13701439 C270.38194145 310.13701439 124.52194145 310.13701439 -25.75805855 310.13701439 C-25.88180855 261.81263939 -26.00555855 213.48826439 -26.13305855 163.69951439 C-26.18768257 148.43258324 -26.24230659 133.16565208 -26.29858589 117.43608665 C-26.3256855 98.81462669 -26.3256855 98.81462669 -26.3307209 90.10123253 C-26.33631811 84.00648698 -26.35833486 77.91207109 -26.39151192 71.81741905 C-26.4297246 64.7873168 -26.44706959 57.75753094 -26.43872825 50.72732406 C-26.43511597 47.13148966 -26.4408127 43.53636222 -26.47334933 39.94065773 C-26.50800711 36.0870662 -26.4960067 32.23441227 -26.47958565 28.38068199 C-26.49706163 27.26328101 -26.51453762 26.14588003 -26.53254318 24.99461842 C-26.44661041 17.49598545 -24.70278167 12.81554105 -19.75805855 7.13701439 C-17.34399605 4.98076439 -17.34399605 4.98076439 -15.13305855 3.63701439 C-14.39829292 3.17295189 -13.6635273 2.70888939 -12.90649605 2.23076439 C-8.62966114 0.05346662 -4.76841147 0.00912976 0 0 Z M-3.09399605 36.92217064 C-7.52000695 43.56118699 -9.00238164 49.83038455 -9.04858589 57.82549095 C-9.05530312 58.55986885 -9.06202034 59.29424675 -9.06894112 60.05087852 C-9.08781629 62.45986917 -9.09184019 64.86857956 -9.09399605 67.27763939 C-9.10043211 68.96764295 -9.10716106 70.65764542 -9.11416817 72.34764671 C-9.12611538 75.8847213 -9.12985172 79.42169841 -9.12866402 82.95879173 C-9.12846117 87.46532018 -9.155739 91.97121561 -9.19020844 96.47759438 C-9.21257621 99.96773138 -9.21649852 103.45771854 -9.21544456 106.94791985 C-9.21778662 108.60792022 -9.22653041 110.26792562 -9.2421093 111.92785454 C-9.33246626 122.55111478 -8.5681414 131.54264023 -3.13305855 140.94951439 C2.68831361 146.31130453 9.32234289 150.2351535 17.33816338 150.28418541 C18.54899338 150.29491837 18.54899338 150.29491837 19.78428459 150.30586815 C20.66121468 150.30855705 21.53814476 150.31124596 22.44164848 150.31401634 C23.37226601 150.32058754 24.30288353 150.32715874 25.26170158 150.33392906 C28.34105324 150.3536357 31.42035612 150.36532018 34.49975395 150.37529564 C36.08076708 150.38140893 36.08076708 150.38140893 37.69371986 150.38764572 C43.27489589 150.4084974 48.85604741 150.42280182 54.43725395 150.4321804 C60.18707378 150.44322976 65.93650501 150.47761554 71.68618774 150.5173521 C76.11988836 150.54356575 80.55349716 150.55187658 84.98726845 150.55546188 C87.10583807 150.56031724 89.22440387 150.57190106 91.34289742 150.59049988 C94.31752879 150.61498721 97.29116481 150.61390845 100.26586723 150.60698509 C101.13065193 150.61979515 101.99543663 150.63260521 102.88642693 150.64580345 C110.4007992 150.58249079 116.68828649 148.34817748 123.05444145 144.38701439 C130.25846926 136.97715722 132.48007188 128.68588344 132.51659966 118.50273705 C132.52171059 117.78611397 132.52682152 117.06949089 132.53208733 116.33115196 C132.54586372 113.98770605 132.54503559 111.64455821 132.5427227 109.30107689 C132.54661636 107.65494747 132.55095239 106.00881904 132.55570793 104.36269188 C132.56314458 100.92154743 132.5628976 97.48050562 132.55761528 94.03935814 C132.55182572 89.65280383 132.56875156 85.26667246 132.59195995 80.88018799 C132.60676832 77.48274384 132.60755936 74.08539987 132.60445023 70.68792915 C132.60495993 69.07177328 132.61013097 67.45561127 132.62026215 65.83948708 C132.67921223 55.12140543 132.67876029 44.50737942 125.75756645 35.66826439 C119.61233699 29.45968205 112.02769197 26.93406607 103.45075798 26.84374046 C102.58101845 26.84464684 101.71127892 26.84555321 100.81518364 26.84648705 C99.88427406 26.83976982 98.95336449 26.8330526 97.99424553 26.82613182 C94.92571441 26.80718042 91.85740241 26.80322885 88.78881645 26.80107689 C86.64658329 26.79464626 84.50435101 26.7879177 82.36211967 26.78090477 C77.8733091 26.76893862 73.38457544 26.7652232 68.89575005 26.76640892 C63.16165219 26.7666119 57.4280511 26.73932801 51.69407082 26.7048645 C47.26893693 26.68255553 42.84392176 26.67857263 38.41873741 26.67962837 C36.30575921 26.67727774 34.19277747 26.66848473 32.07985497 26.65296364 C29.11498215 26.63322592 26.15116964 26.63917267 23.18627739 26.65117455 C22.32463478 26.63993553 21.46299217 26.62869652 20.57523918 26.61711693 C11.71264688 26.70764747 2.39569923 29.5865252 -3.09399605 36.92217064 Z M168.24194145 30.13701439 C165.89145607 33.66274246 165.57796328 34.98715083 166.24194145 39.13701439 C168.90753627 42.13196606 170.64857419 43.83676741 174.62328911 44.58574486 C177.36692835 44.73745978 180.05811504 44.72087168 182.80444145 44.63701439 C183.73707817 44.63959251 184.66971489 44.64217064 185.63061333 44.64482689 C190.60490228 44.57391757 194.23795568 44.41300275 198.24194145 41.13701439 C200.20332533 38.55155383 200.25492409 37.34906413 200.05444145 34.07451439 C199.22277018 31.06770288 198.71965381 29.94765034 196.24194145 28.13701439 C191.96011383 26.70973852 187.85248709 26.9125367 183.36694145 26.88701439 C182.46846489 26.86638939 181.56998833 26.84576439 180.6442852 26.82451439 C175.71148324 26.79536933 172.18964083 26.82404314 168.24194145 30.13701439 Z M221.24194145 29.13701439 C218.76155238 32.85759799 218.77856942 34.73498009 219.24194145 39.13701439 C221.46057175 42.04418512 222.76139074 42.97683082 226.24194145 44.13701439 C229.5292207 44.38958765 232.82095869 44.36826058 236.11694145 44.38701439 C237.01541801 44.40763939 237.91389458 44.42826439 238.8395977 44.44951439 C243.77239967 44.47865945 247.29424207 44.44998563 251.24194145 41.13701439 C253.59812687 38.25102051 253.59812687 38.25102051 253.05444145 34.63701439 C252.14379865 30.65937269 252.14379865 30.65937269 249.24194145 28.13701439 C244.80170919 26.65693697 240.45518847 26.95264199 235.80444145 26.94951439 C234.84989067 26.9372683 233.89533989 26.9250222 232.91186333 26.91240501 C231.53031059 26.90950462 231.53031059 26.90950462 230.1208477 26.90654564 C229.28110405 26.90243675 228.4413604 26.89832787 227.57616997 26.89409447 C224.98268146 27.16399522 223.42855483 27.72766801 221.24194145 29.13701439 Z M272.24194145 36.13701439 C269.87472779 39.02421557 269.87472779 39.02421557 270.49194145 42.63701439 C271.03693201 46.22821938 271.03693201 46.22821938 273.24194145 49.13701439 C273.78117167 52.41947138 274.13045446 55.70087539 274.48412895 59.00810814 C275.35502751 62.60393157 276.31282943 63.92686623 279.24194145 66.13701439 C282.74194145 66.80368106 282.74194145 66.80368106 286.24194145 66.13701439 C288.60691584 64.26992934 289.90224861 62.81640008 291.24194145 60.13701439 C292.21194833 50.97760523 290.58112623 43.33240039 284.80444145 36.07451439 C279.9416352 32.39775844 277.10172253 32.45934222 272.24194145 36.13701439 Z M151.24194145 60.13701439 C149.90699028 64.14186792 150.0577745 67.81904021 150.05444145 72.01201439 C150.04219536 72.81510033 150.02994926 73.61818626 150.01733208 74.44560814 C150.00435965 79.69511869 150.16343203 83.98427249 153.99194145 87.94951439 C157.00437704 89.53941095 158.87973829 89.62733568 162.24194145 89.13701439 C164.54469701 87.26991528 165.92018016 85.78053698 167.24194145 83.13701439 C167.48279492 79.5173309 167.42713725 75.88882165 167.42944145 72.26201439 C167.44781059 70.75187767 167.44781059 70.75187767 167.46655083 69.21123314 C167.46848442 68.24056908 167.47041801 67.26990501 167.4724102 66.26982689 C167.47857353 64.93782249 167.47857353 64.93782249 167.48486137 63.57890892 C167.22406105 60.95727587 166.63231132 59.36049413 165.24194145 57.13701439 C159.34679282 53.07139464 155.54669464 54.99522586 151.24194145 60.13701439 Z M276.24194145 88.13701439 C273.49050932 92.56609122 273.91118698 96.95187418 273.92944145 102.01201439 C273.91332817 102.89760033 273.89721489 103.78318626 273.88061333 104.69560814 C273.87673077 109.90600013 274.24375029 113.67508368 277.24194145 118.13701439 C279.99194145 119.88701439 279.99194145 119.88701439 283.24194145 120.13701439 C286.44948628 119.02671041 288.54497598 118.23507072 290.39501762 115.320364 C291.96930597 111.26188585 291.56910013 107.00036937 291.55444145 102.69951439 C291.57055473 101.75785423 291.58666801 100.81619408 291.60326958 99.84599876 C291.60681027 94.82883049 291.60377074 91.16139398 288.24194145 87.13701439 C283.60519997 84.09415279 280.59333244 85.01293881 276.24194145 88.13701439 Z M151.24194145 113.13701439 C148.99223864 119.88612282 150.01151458 127.47079476 152.24194145 134.13701439 C153.93770913 137.2459218 155.31190446 139.42398603 158.11694145 141.57451439 C161.22109621 142.39620241 163.18094875 142.09357461 166.24194145 141.13701439 C168.83316049 139.12717869 168.83316049 139.12717869 170.24194145 136.13701439 C170.0698223 132.75200436 169.76052914 130.17418977 168.24194145 127.13701439 C167.96376218 123.86068073 167.79502334 120.58447292 167.6208477 117.30107689 C167.26804638 114.35500399 166.83799252 112.60048452 165.24194145 110.13701439 C159.34679282 106.07139464 155.54669464 107.99522586 151.24194145 113.13701439 Z M186.24194145 138.13701439 C185.5743536 141.50950055 185.5743536 141.50950055 186.24194145 145.13701439 C188.92819343 148.22172708 190.65997139 149.82900771 194.70092583 150.61577415 C197.56434215 150.81023845 200.37277408 150.81909332 203.24194145 150.76201439 C204.21389458 150.78135033 205.1858477 150.80068626 206.18725395 150.82060814 C210.76151421 150.78944833 214.21179706 150.68861969 217.89037895 147.78545189 C220.46065293 145.33298524 220.46065293 145.33298524 220.86694145 142.13701439 C220.10671256 138.48791573 218.86289477 136.75796771 216.24194145 134.13701439 C211.96011383 132.70973852 207.85248709 132.9125367 203.36694145 132.88701439 C202.46846489 132.86638939 201.56998833 132.84576439 200.6442852 132.82451439 C194.36562278 132.78741742 190.80227964 133.5766762 186.24194145 138.13701439 Z M241.24194145 136.13701439 C238.89145607 139.66274246 238.57796328 140.98715083 239.24194145 145.13701439 C241.97801094 148.32675694 243.69429475 149.87299224 247.87231255 150.58574486 C250.98918899 150.73847746 254.06010308 150.72024719 257.17944145 150.63701439 C258.76788872 150.64088158 258.76788872 150.64088158 260.38842583 150.64482689 C266.38726297 150.56998176 271.0051457 150.15796867 276.24194145 147.13701439 C278.58743819 143.61876928 278.82185548 142.27925745 278.24194145 138.13701439 C276.59060615 135.52399659 275.89324991 134.55517938 273.24194145 133.13701439 C268.73263209 132.42989805 264.29587341 132.53144379 259.74194145 132.63701439 C258.51862114 132.63443626 257.29530083 132.63185814 256.0349102 132.62920189 C248.13521886 132.62157347 248.13521886 132.62157347 241.24194145 136.13701439 Z M-7.75805855 173.13701439 C-8.83830513 175.53811656 -8.83830513 175.53811656 -8.75805855 178.13701439 C-7.37248068 180.97415003 -5.9880415 182.90703143 -3.75805855 185.13701439 C0.15925612 185.62113574 4.11063165 185.50741519 8.05444145 185.51201439 C9.14821098 185.53650658 10.24198051 185.56099876 11.36889458 185.58623314 C17.68395921 185.62933702 17.68395921 185.62933702 23.46850395 183.36357689 C25.33212163 181.02379258 25.90230705 180.08449584 25.80444145 177.13701439 C25.80573051 176.47701439 25.80701958 175.81701439 25.8083477 175.13701439 C24.98552221 172.23158919 23.55974784 171.04175361 21.24194145 169.13701439 C18.51581404 168.52582028 18.51581404 168.52582028 15.52319145 168.60576439 C14.42619926 168.60060814 13.32920708 168.59545189 12.1989727 168.59013939 C10.48774223 168.61334251 10.48774223 168.61334251 8.74194145 168.63701439 C7.60112114 168.62154564 6.46030083 168.60607689 5.2849102 168.59013939 C4.18791801 168.59529564 3.09092583 168.60045189 1.96069145 168.60576439 C0.95973442 168.61027611 -0.04122261 168.61478783 -1.07251167 168.61943626 C-4.45787875 169.27188883 -5.6268713 170.48220593 -7.75805855 173.13701439 Z M46.82662773 171.01503563 C44.94442842 173.53540008 44.31879534 174.98600501 44.24194145 178.13701439 C45.62751932 180.97415003 47.0119585 182.90703143 49.24194145 185.13701439 C51.71945175 185.34570625 54.08618341 185.43068099 56.56567192 185.42754173 C57.69764 185.43761757 57.69764 185.43761757 58.85247612 185.44789696 C61.35476016 185.46694191 63.85677688 185.47080451 66.35912895 185.47295189 C68.09546839 185.47937577 69.83180672 185.48610381 71.56814384 185.49312401 C75.21155113 185.50511335 78.85486348 185.50880318 82.49828911 185.50761986 C87.16818665 185.50741668 91.83747556 185.53471014 96.50722885 185.56916428 C100.09488536 185.59139804 103.68239464 185.59545847 107.27011299 185.59440041 C108.99171991 185.59676202 110.71333054 185.60561701 112.43486977 185.62106514 C114.8434874 185.64065281 117.25078319 185.6349163 119.65942192 185.62285423 C120.72717354 185.63971275 120.72717354 185.63971275 121.8164959 185.65691185 C125.20487484 185.61377253 126.94751964 185.36594134 129.65725517 183.25899315 C131.53945448 180.7386287 132.16508756 179.28802377 132.24194145 176.13701439 C130.85636358 173.29987875 129.47192441 171.36699734 127.24194145 169.13701439 C124.76443115 168.92832253 122.3976995 168.84334779 119.91821098 168.84648705 C119.1635656 168.83976982 118.40892021 168.8330526 117.63140678 168.82613182 C115.12912274 168.80708687 112.62710602 168.80322427 110.12475395 168.80107689 C108.38841452 168.79465301 106.65207618 168.78792496 104.91573906 168.78090477 C101.27233178 168.76891543 97.62901942 168.7652256 93.9855938 168.76640892 C89.31569625 168.7666121 84.64640735 168.73931864 79.97665405 168.7048645 C76.38899755 168.68263073 72.80148827 168.6785703 69.21376991 168.67962837 C67.492163 168.67726676 65.77055236 168.66841176 64.04901314 168.65296364 C61.6403955 168.63337597 59.23309971 168.63911247 56.82446098 168.65117455 C55.75670937 168.63431602 55.75670937 168.63431602 54.66738701 168.61711693 C51.27900807 168.66025625 49.53636326 168.90808744 46.82662773 171.01503563 Z M151.24194145 173.13701439 C150.58402952 175.11129264 150.58402952 175.11129264 150.67944145 177.13701439 C150.65752739 177.79701439 150.63561333 178.45701439 150.6130352 179.13701439 C151.68748858 182.5539096 153.10240479 183.3996009 156.24194145 185.13701439 C160.27204627 185.72525126 164.2383959 185.69499721 168.30444145 185.63701439 C169.39305473 185.65248314 170.48166801 185.66795189 171.60326958 185.68388939 C172.65063286 185.67873314 173.69799614 185.67357689 174.7770977 185.66826439 C175.72979546 185.66375267 176.68249321 185.65924095 177.66406059 185.65459251 C180.96832416 184.99117375 182.14720162 183.72230399 184.24194145 181.13701439 C185.32218804 178.73591221 185.32218804 178.73591221 185.24194145 176.13701439 C183.85636358 173.29987875 182.47192441 171.36699734 180.24194145 169.13701439 C176.13649326 168.65186212 171.99777788 168.76661443 167.86694145 168.76201439 C166.14217583 168.72527611 166.14217583 168.72527611 164.38256645 168.68779564 C162.72354301 168.68199486 162.72354301 168.68199486 161.03100395 168.67607689 C159.51047417 168.66375023 159.51047417 168.66375023 157.95922661 168.65117455 C154.54298618 169.26198483 153.37810879 170.46142974 151.24194145 173.13701439 Z M205.80418205 170.95253563 C203.48874582 174.19020675 203.62900771 176.25510072 204.24194145 180.13701439 C206.9069371 183.6050962 208.38714368 184.98348664 212.7395153 185.76520348 C214.0975695 185.79168302 215.45633066 185.79094148 216.81445122 185.7681179 C217.55978111 185.77527321 218.30511101 185.78242851 219.07302666 185.78980064 C221.52709791 185.80665616 223.97933429 185.78730767 226.4333477 185.76592064 C228.14297957 185.76674955 229.85261135 185.76920977 231.56223869 185.7732296 C235.14085766 185.7760853 238.71884995 185.76140763 242.29736137 185.73393822 C246.88320141 185.6998295 251.46792296 185.70588408 256.0538168 185.72460079 C259.58234283 185.73517061 263.11060872 185.72623367 266.63911057 185.71121597 C268.32998634 185.70603527 270.0208893 185.70651463 271.71176147 185.71276093 C274.0747106 185.71821416 276.43605949 185.6978382 278.79882622 185.67046165 C279.49659676 185.67698753 280.19436729 185.68351341 280.91328239 185.69023705 C284.24270644 185.62467289 285.97736063 185.33961655 288.65244865 183.29117393 C290.695547 180.52226563 291.09930454 178.56030021 291.24194145 175.13701439 C290.12175247 171.77644743 289.29660046 171.17345373 286.24194145 169.13701439 C283.72654486 168.93286403 281.32092039 168.84328519 278.80468559 168.84648705 C278.04989418 168.83976982 277.29510277 168.8330526 276.51743889 168.82613182 C274.02059167 168.80712295 271.52401279 168.80322633 269.0270977 168.80107689 C267.29218751 168.7946514 265.55727842 168.78792322 263.82237053 168.78090477 C260.18493957 168.7689251 256.54760364 168.7652247 252.91015434 168.76640892 C248.24813253 168.76661225 243.58671937 168.73929913 238.92484188 168.7048645 C235.34147655 168.68263324 231.75825863 168.6785702 228.17483139 168.67962837 C226.45601553 168.67726714 224.73719592 168.66841426 223.01844788 168.65296364 C220.61472802 168.63337749 218.2123328 168.63911144 215.80859184 168.65117455 C214.74319679 168.63431602 214.74319679 168.63431602 213.65627861 168.61711693 C210.30890233 168.6598279 208.51997863 168.92994621 205.80418205 170.95253563 Z M-7.75805855 208.13701439 C-8.97424787 211.70957051 -9.06516428 213.38631149 -7.63305855 216.88701439 C-4.98258326 220.06758473 -2.29886184 220.98329015 1.79259205 221.39148998 C2.70198316 221.39354285 3.61137426 221.39559572 4.54832268 221.3977108 C5.5982943 221.40479561 6.64826591 221.41188042 7.73005486 221.41917992 C8.87149452 221.4167025 10.01293419 221.41422508 11.18896294 221.41167259 C12.39925163 221.41678352 13.60954033 221.42189445 14.85650444 221.42716026 C18.16857174 221.43866691 21.48038853 221.44113176 24.7924583 221.43859696 C27.5608086 221.4375256 30.32913594 221.44241484 33.09748131 221.44720238 C39.63010862 221.45828891 46.16267843 221.45873975 52.69531059 221.45268822 C59.42718631 221.44664787 66.15885306 221.45896281 72.89069313 221.48025829 C78.67768986 221.49788949 84.46462017 221.50387327 90.25164276 221.50062054 C93.70478536 221.49881001 97.15777886 221.5014208 100.61089706 221.51533508 C104.46252291 221.53027514 108.31388372 221.52092998 112.16552544 221.50932884 C113.30494087 221.51697258 114.44435631 221.52461632 115.61829948 221.53249168 C121.18082373 221.49543089 125.5270583 221.46257877 130.24194145 218.13701439 C131.99194145 215.38701439 131.99194145 215.38701439 132.24194145 212.13701439 C130.77696983 208.12761837 129.81790342 206.52098903 126.24194145 204.13701439 C123.79641433 203.82981014 123.79641433 203.82981014 121.01748466 203.86958885 C119.9351606 203.86105888 118.85283653 203.85252892 117.73771477 203.84374046 C116.55011055 203.84464684 115.36250633 203.84555321 114.13891411 203.84648705 C112.88829689 203.83976982 111.63767967 203.8330526 110.34916496 203.82613182 C106.91722403 203.81037023 103.48552506 203.8037757 100.05356455 203.80250025 C97.18829112 203.8006012 94.32304092 203.79324356 91.45777643 203.78615606 C84.69701738 203.76986751 77.93631161 203.7649875 71.1755352 203.76640892 C64.20278577 203.76761029 57.23034591 203.74651078 50.25767481 203.71492159 C44.27030978 203.68876345 38.28304587 203.67804143 32.29562414 203.67931974 C28.72002877 203.67982955 25.14470843 203.67413662 21.56917 203.65296364 C17.58057645 203.62998991 13.59240682 203.63909943 9.60375786 203.65117455 C7.82842422 203.63431602 7.82842422 203.63431602 6.01722527 203.61711693 C-1.76826207 203.54488142 -1.76826207 203.54488142 -7.75805855 208.13701439 Z M152.24194145 207.13701439 C150.58334546 209.94597502 150.58334546 209.94597502 150.24194145 213.13701439 C151.92549524 217.39541514 154.23847426 219.09983204 158.24194145 221.13701439 C160.81719184 221.58125034 160.81719184 221.58125034 163.54832268 221.51796532 C164.5982943 221.52642479 165.64826591 221.53488426 166.73005486 221.54360008 C168.44221436 221.53449104 168.44221436 221.53449104 170.18896294 221.52519798 C171.39925163 221.53045494 172.60954033 221.5357119 173.85650444 221.54112816 C177.1686874 221.55205855 180.48030707 221.5495119 183.7924583 221.5399909 C187.2636691 221.53238149 190.73485627 221.53944363 194.20606804 221.5441494 C200.03585937 221.54960396 205.8655366 221.54242402 211.69531059 221.52812767 C218.42719789 221.51180929 225.15881247 221.5170848 231.89069313 221.53360689 C237.67770002 221.54723949 243.464625 221.54913254 249.25164276 221.54129088 C252.70477296 221.53662309 256.15777518 221.53596459 259.61089706 221.54590034 C263.46254688 221.55620897 267.31389359 221.54190358 271.16552544 221.52519798 C272.30494087 221.53127068 273.44435631 221.53734337 274.61829948 221.54360008 C280.215343 221.49862628 284.45325193 221.39573027 289.24194145 218.13701439 C291.22984136 215.6305319 291.24646465 214.35412777 291.17944145 211.13701439 C289.92100994 207.11003356 288.92454043 206.2547787 285.24194145 204.13701439 C281.16541123 203.53768512 277.1175472 203.6013423 273.0036602 203.6353054 C271.7625045 203.62990242 270.5213488 203.62449944 269.24258232 203.61893272 C265.84560284 203.60857776 262.4495994 203.61613655 259.05270576 203.63264394 C255.49427983 203.64651505 251.93588273 203.64003202 248.3774395 203.63651085 C242.40217749 203.63381034 236.42711655 203.64727043 230.45190239 203.67046165 C223.54844027 203.69707054 216.64531426 203.69881798 209.74181843 203.68707329 C203.09481262 203.67628564 196.44792812 203.68249028 189.80093193 203.69662857 C186.97487322 203.70237985 184.14890354 203.70231248 181.32284355 203.69756317 C177.37517439 203.69189497 173.42784012 203.71113241 169.4802227 203.73296165 C168.30915977 203.72846001 167.13809685 203.72395836 165.93154716 203.7193203 C164.85488792 203.72922493 163.77822868 203.73912956 162.66894341 203.74933434 C161.73613045 203.75176423 160.80331749 203.75419413 159.84223747 203.75669765 C156.67989718 204.21921843 154.80724152 205.25339153 152.24194145 207.13701439 Z M-6.75805855 242.13701439 C-8.74595845 244.64349688 -8.76258174 245.91990101 -8.69555855 249.13701439 C-7.4866468 253.00553197 -6.16114721 253.97688807 -2.75805855 256.13701439 C-0.12814735 256.52901164 2.08267688 256.6954675 4.7067852 256.67046165 C5.80774025 256.68338501 5.80774025 256.68338501 6.93093681 256.69656944 C9.34746781 256.71919868 11.76283635 256.71249733 14.17944145 256.70342064 C15.8642594 256.70865731 17.54907441 256.71493396 19.23388481 256.72220421 C22.76112499 256.73260251 26.28796158 256.72805491 29.81518364 256.7134304 C34.33153913 256.6962359 38.84662319 256.71974799 43.36283684 256.75492001 C46.84078181 256.77689696 50.31842261 256.77545203 53.79641533 256.76715469 C55.46136686 256.76633547 57.12634079 256.77319347 58.79122734 256.78792572 C61.12064251 256.80538021 63.44777375 256.79082594 65.7770977 256.7681179 C66.46192223 256.7798101 67.14674675 256.7915023 67.85232353 256.80354881 C71.67807915 256.72780291 73.16133709 256.20402926 76.14599419 253.72257042 C78.67259346 250.76262799 78.67259346 250.76262799 79.24194145 247.13701439 C77.40365612 242.94980891 75.31148462 241.11302862 71.24194145 239.13701439 C67.87328165 238.68460474 67.87328165 238.68460474 64.16015434 238.7488308 C63.46680489 238.74357384 62.77345543 238.73831688 62.05909538 238.73290062 C59.77736391 238.71974552 57.49633573 238.7284232 55.2145977 238.73857689 C53.62185851 238.73655462 52.02912023 238.73364191 50.4363842 238.72987938 C47.1017047 238.72546193 43.76726666 238.73186741 40.43261528 238.74590111 C36.16773814 238.76297891 31.90342801 238.75315734 27.63857174 238.73518372 C24.35021035 238.72431823 21.0619823 238.72780509 17.77361679 238.73556709 C16.20161115 238.73756219 14.62959323 238.73513415 13.05760193 238.72812843 C10.8557852 238.72046967 8.65487285 238.73217927 6.45312309 238.7488308 C5.20245552 238.75121758 3.95178795 238.75360435 2.66322136 238.75606346 C-1.10393548 239.17552692 -3.52594943 240.19097296 -6.75805855 242.13701439 Z M99.24194145 242.13701439 C97.49194145 244.88701439 97.49194145 244.88701439 97.24194145 248.13701439 C98.70691307 252.14641041 99.66597948 253.75303974 103.24194145 256.13701439 C107.01817431 256.59942611 110.81541689 256.50734421 114.61694145 256.51201439 C115.65850395 256.53650658 116.70006645 256.56099876 117.77319145 256.58623314 C123.88341617 256.63085719 123.88341617 256.63085719 129.40600395 254.26201439 C131.59927578 251.72341891 132.24194145 250.49840534 132.24194145 247.13701439 C131.07836146 243.84020441 130.30981699 241.74605323 127.2145977 239.98076439 C123.05193075 238.79924525 119.11090171 238.80793833 114.80444145 238.82451439 C113.97106255 238.80840111 113.13768364 238.79228783 112.27905083 238.77568626 C107.20287118 238.77167347 103.6014955 239.24880983 99.24194145 242.13701439 Z M151.24194145 244.13701439 C150.68018088 248.39034445 150.65711949 250.37334142 153.30273247 253.82803917 C156.84826321 256.61332687 159.3786306 256.84201369 163.7067852 256.7681179 C164.80774025 256.77885086 164.80774025 256.77885086 165.93093681 256.78980064 C168.34774573 256.80665616 170.76269124 256.78730599 173.17944145 256.76592064 C174.86425746 256.76674964 176.54907339 256.7692102 178.23388481 256.7732296 C181.7612327 256.77608542 185.28794486 256.76140815 188.81518364 256.73393822 C193.33142874 256.69985527 197.84653732 256.70587539 202.36283684 256.72460079 C205.8407923 256.73518094 209.31848434 256.72622385 212.79641533 256.71121597 C214.4613447 256.70604111 216.12630167 256.70650752 217.79122734 256.71276093 C220.12045024 256.71822565 222.44805888 256.69780064 224.7770977 256.67046165 C225.46192223 256.67698753 226.14674675 256.68351341 226.85232353 256.69023705 C231.5482035 256.59674565 233.97280644 255.49085274 237.24194145 252.13701439 C238.45813077 248.56445827 238.54904718 246.88771729 237.11694145 243.38701439 C234.88470598 240.70833183 233.5547291 240.16439134 230.24194145 239.13701439 C226.86198428 238.82852949 226.86198428 238.82852949 223.1442852 238.86235619 C222.10185158 238.85468979 222.10185158 238.85468979 221.03835869 238.84686852 C218.75196421 238.8330219 216.46587276 238.83392525 214.17944145 238.83623314 C212.58430686 238.83234402 210.98917329 238.82800891 209.39404106 238.82324791 C206.05522105 238.81579672 202.71650682 238.81606936 199.37768364 238.82134056 C195.10376777 238.82713949 190.83028467 238.8101889 186.55644035 238.78699589 C183.26384777 238.77225072 179.9713593 238.7713878 176.67873955 238.77450562 C175.10310826 238.77399298 173.52747105 238.76876614 171.95187187 238.7586937 C169.74749557 238.74632844 167.54396097 238.75312022 165.3395977 238.76469994 C164.08670952 238.76407051 162.83382133 238.76344109 161.54296684 238.76279259 C156.98869048 239.27908959 154.43735341 240.94160244 151.24194145 244.13701439 Z M258.42944145 242.32451439 C256.44830735 245.34835066 256.75807172 247.62895886 257.24194145 251.13701439 C258.98285227 254.05527534 258.98285227 254.05527534 262.24194145 256.13701439 C266.08923354 256.85328165 269.8398108 256.78963851 273.74194145 256.69951439 C275.29075005 256.71594994 275.29075005 256.71594994 276.8708477 256.73271751 C281.43793871 256.68851986 284.40710522 256.62675742 288.39819145 254.28545189 C290.79160837 251.49651268 291.24194145 249.80320208 291.24194145 246.13701439 C290.00138192 243.10453554 289.07593611 241.59365025 286.18725395 240.01201439 C282.16360168 238.81665881 278.41596995 238.84635827 274.24194145 238.88701439 C273.44787895 238.87928001 272.65381645 238.87154564 271.83569145 238.86357689 C266.6848277 238.88074643 262.82824557 239.44253928 258.42944145 242.32451439 Z " fill="#000000" transform="translate(25.758058547973633,25.862985610961914)"/>
<path d="M0 0 C145.86 0 291.72 0 442 0 C442 28.23666159 442 28.23666159 435.65625 36.3984375 C429.09948566 42.7387049 422.18791145 45.12104681 413.28879356 45.13422108 C412.27334023 45.13774942 412.27334023 45.13774942 411.2373727 45.14134905 C408.95847452 45.14803043 406.67963347 45.14758109 404.40072632 45.14717102 C402.75448 45.15047018 401.10823448 45.15419586 399.46199 45.1583125 C394.92970279 45.16833466 390.39742882 45.17204964 385.86513209 45.17470181 C380.98016086 45.1786042 376.09520013 45.18818257 371.2102356 45.19691467 C359.40901037 45.21668065 347.60778427 45.22674535 335.80654663 45.23564246 C330.25005502 45.24002504 324.69356437 45.24539192 319.13707352 45.25063133 C300.66772599 45.26764355 282.19837905 45.28213804 263.72902489 45.28938007 C258.93572361 45.29128999 254.14242235 45.29321032 249.34912109 45.29516602 C247.5620799 45.29589163 247.5620799 45.29589163 245.73893686 45.2966319 C226.43686914 45.30493335 207.13486338 45.33027227 187.83282273 45.36274669 C168.01900912 45.39581057 148.20522701 45.41382822 128.39138567 45.41702431 C117.26535426 45.41919 106.1394132 45.42794735 95.01340866 45.45348549 C85.53859052 45.47518325 76.06388467 45.48324742 66.5890445 45.47351871 C61.75540402 45.46897139 56.92199529 45.47088544 52.08838654 45.49028015 C47.66044532 45.50789358 43.23290522 45.50692888 38.80495985 45.49138286 C37.20598391 45.48900403 35.60698034 45.49334464 34.00804667 45.50521151 C23.37088209 45.57924634 14.22028208 45.10499818 6.0625 37.625 C-4.31415248 26.86591561 0 15.85318831 0 0 Z " fill="#000000" transform="translate(0,353)"/>
<path d="M0 0 C1.2196067 -0.01713043 1.2196067 -0.01713043 2.46385193 -0.03460693 C3.79642281 -0.03796051 3.79642281 -0.03796051 5.15591431 -0.04138184 C6.56366875 -0.05627655 6.56366875 -0.05627655 7.99986267 -0.07147217 C11.10871294 -0.10071462 14.21735918 -0.11431829 17.32632446 -0.12536621 C19.48482266 -0.13686844 21.64332079 -0.14838391 23.80181885 -0.15991211 C28.32952833 -0.18093131 32.85716679 -0.19261737 37.38491821 -0.19958496 C43.18818195 -0.21056002 48.99050843 -0.25862506 54.79347801 -0.31552887 C59.25273386 -0.35276542 63.71176346 -0.36319184 68.17116165 -0.36625671 C70.31063593 -0.37231376 72.45010604 -0.38838464 74.58942795 -0.41462708 C77.58236906 -0.44872233 80.57301431 -0.44499807 83.56607056 -0.43200684 C84.89256874 -0.45965118 84.89256874 -0.45965118 86.24586487 -0.487854 C90.77452588 -0.42624298 92.46151823 -0.16429434 96.03897095 2.8470459 C98.23168492 6.70548729 98.70087619 9.61121926 98.63735962 13.93518066 C98.64612122 14.677444 98.65488281 15.41970734 98.66390991 16.1844635 C98.68580946 18.62345883 98.67138674 21.06062198 98.65444946 23.49963379 C98.65782036 25.20304714 98.66267526 26.90645814 98.66894531 28.60986328 C98.67630378 32.17410253 98.66564479 35.73771383 98.64224243 39.30187988 C98.61375461 43.86186457 98.63016418 48.42037779 98.66010475 52.98030853 C98.67820588 56.49606334 98.67240694 60.01147147 98.65946579 63.52723694 C98.65613952 65.20809607 98.66019139 66.88898707 98.67186356 68.56980896 C98.68461968 70.9229115 98.66513333 73.27365904 98.63735962 75.62658691 C98.65254135 76.66010033 98.65254135 76.66010033 98.66802979 77.7144928 C98.58803697 81.38796308 97.86422169 83.5026514 96.03797913 86.71273804 C91.84867351 90.24298318 88.90432273 90.11768463 83.5819397 90.0255127 C82.64153839 90.03281403 81.70113708 90.04011536 80.73223877 90.04763794 C77.62874754 90.06382938 74.52735153 90.03665329 71.42398071 90.00744629 C69.26594545 90.00640889 67.10790827 90.00744504 64.94987488 90.01046753 C60.4296442 90.01028818 55.91012767 89.98944928 51.39004517 89.95324707 C45.59357245 89.90784442 39.79814183 89.9067899 34.00154018 89.92028236 C29.54655174 89.92696196 25.0918013 89.91370249 20.63685799 89.8940239 C18.49941312 89.88632161 16.36194178 89.88402277 14.2244854 89.88719559 C11.23895595 89.8879366 8.25476778 89.86271034 5.2694397 89.8302002 C4.38465439 89.83515503 3.49986908 89.84010986 2.58827209 89.84521484 C-3.40297969 89.74097986 -3.40297969 89.74097986 -6.52705383 87.37155151 C-9.2246044 83.56753351 -9.15778222 80.57873293 -9.15487671 76.0489502 C-9.15823532 75.30405838 -9.16159393 74.55916656 -9.16505432 73.79170227 C-9.1745762 71.32193345 -9.17650812 68.85223234 -9.17758179 66.38244629 C-9.18079376 64.66852795 -9.18415779 62.95460989 -9.18766785 61.24069214 C-9.19366239 57.64438237 -9.19550744 54.04809664 -9.19491577 50.45178223 C-9.19481419 45.84260623 -9.20846104 41.23358442 -9.22568798 36.62444496 C-9.23680529 33.08313285 -9.23883505 29.54185802 -9.23830605 26.00053024 C-9.23948677 24.30126794 -9.24391375 22.6020047 -9.25163841 20.90275955 C-9.2614319 18.52559869 -9.25856276 16.14877266 -9.25253296 13.77160645 C-9.25815247 13.06912277 -9.26377197 12.3666391 -9.26956177 11.64286804 C-9.24631783 8.03810513 -9.12531345 5.27099147 -7.00961304 2.28088379 C-3.98259198 0.26286975 -3.3934047 0.02859346 0 0 Z " fill="#000000" transform="translate(43.009613037109375,69.7191162109375)"/>
<path d="M0 0 C1.18597275 -0.00845947 1.18597275 -0.00845947 2.39590454 -0.01708984 C3.25420868 -0.01304138 4.11251282 -0.00899292 4.99682617 -0.00482178 C6.36331802 -0.01007874 6.36331802 -0.01007874 7.75741577 -0.01544189 C10.76828637 -0.0242433 13.77892194 -0.01841562 16.78979492 -0.01165771 C18.88199916 -0.01300482 20.97420309 -0.01494573 23.06640625 -0.01745605 C27.45112081 -0.02040516 31.83575389 -0.01611648 36.22045898 -0.0067749 C41.84296658 0.00461946 47.46528323 -0.00194114 53.08778381 -0.01391983 C57.40801433 -0.02114415 61.72819952 -0.01884786 66.0484314 -0.01366425 C68.12169416 -0.01232934 70.19496102 -0.01396992 72.26821899 -0.01862335 C75.16484491 -0.0236979 78.06116086 -0.01596514 80.95776367 -0.00482178 C81.81606781 -0.00887024 82.67437195 -0.0129187 83.5586853 -0.01708984 C84.3493338 -0.0114502 85.1399823 -0.00581055 85.95458984 0 C86.98104866 0.00113108 86.98104866 0.00113108 88.02824402 0.002285 C90.40133602 0.308724 91.95063311 0.98661249 93.97729492 2.25396729 C96.32807922 5.78014373 96.22100091 7.2056161 96.2043457 11.37774658 C96.20419464 12.63882736 96.20404358 13.89990814 96.20388794 15.19920349 C96.19367469 16.57553261 96.1832427 17.95186012 96.17260742 19.32818604 C96.16887665 20.73637186 96.16602998 22.14456028 96.16403198 23.55274963 C96.15640057 27.25669539 96.1367564 30.96048396 96.11462402 34.66436768 C96.09415495 38.44486363 96.085028 42.225385 96.07495117 46.00592041 C96.05350996 53.42200764 96.01938006 60.83796543 95.97729492 68.25396729 C90.18797206 67.07383388 84.65520531 65.59563255 79.09057617 63.61724854 C77.64348673 63.11738923 76.1962157 62.61805538 74.7487793 62.11920166 C72.50860749 61.34143608 70.27015255 60.55951579 68.03466797 59.76837158 C65.84901685 58.99739989 63.65800133 58.24370238 61.46557617 57.49224854 C60.80294266 57.25274979 60.14030914 57.01325104 59.45759583 56.76649475 C55.2523895 55.34174539 52.26825926 55.08291223 47.97729492 56.25396729 C45.97965915 57.70053112 45.18798345 58.71171955 44.29980469 60.99761963 C43.86158236 64.06351723 44.64608197 66.11400956 45.62963867 69.04302979 C45.99379883 70.14904541 46.35795898 71.25506104 46.7331543 72.39459229 C47.1230957 73.54443604 47.51303711 74.69427979 47.91479492 75.87896729 C48.67624426 78.16204409 49.43547596 80.44586212 50.19213867 82.73052979 C50.70442017 84.24767578 50.70442017 84.24767578 51.22705078 85.79547119 C51.97729492 88.25396729 51.97729492 88.25396729 51.97729492 90.25396729 C44.37844697 90.30468492 36.77964268 90.33970836 29.18066406 90.36383057 C26.59568653 90.37388695 24.01072037 90.38753378 21.42578125 90.40484619 C17.709851 90.42911 13.9940712 90.44045413 10.27807617 90.44927979 C9.12269852 90.45960236 7.96732086 90.46992493 6.77693176 90.4805603 C5.69618881 90.48071136 4.61544586 90.48086243 3.50195312 90.48101807 C2.07965141 90.4876799 2.07965141 90.4876799 0.62861633 90.49447632 C-3.04679137 90.16106946 -5.91388199 89.16478625 -8.77270508 86.81646729 C-11.58196596 83.30489118 -11.16109585 79.51171869 -11.18383789 75.21563721 C-11.1888028 74.50307266 -11.1937677 73.79050812 -11.19888306 73.05635071 C-11.21348738 70.69903598 -11.22030411 68.34178857 -11.22583008 65.98443604 C-11.23158338 64.34399921 -11.23734109 62.7035624 -11.24310303 61.06312561 C-11.25360838 57.62242317 -11.25945395 54.18174406 -11.26293945 50.74102783 C-11.26842031 46.33939113 -11.29244141 41.93806436 -11.32091141 37.53652477 C-11.33956716 34.14696868 -11.34474497 30.75748677 -11.34627533 27.36788368 C-11.34929624 25.74562195 -11.35730581 24.12336134 -11.37046051 22.50115013 C-11.38758135 20.22735639 -11.38562632 17.95431362 -11.37915039 15.68048096 C-11.38279602 14.38825119 -11.38644165 13.09602142 -11.39019775 11.76463318 C-10.9846015 7.88996297 -10.139619 5.51419943 -8.02270508 2.25396729 C-5.28212412 0.55575137 -3.2021266 0.00352849 0 0 Z " fill="#000000" transform="translate(363.022705078125,166.74603271484375)"/>
<path d="M0 0 C0.75040908 -0.00453111 1.50081816 -0.00906223 2.27396691 -0.01373065 C4.79583535 -0.02642055 7.31748909 -0.02475134 9.83938599 -0.02310181 C11.64450357 -0.0290842 13.44961859 -0.03588908 15.25473022 -0.04345703 C20.16383627 -0.06115378 25.07287264 -0.06581396 29.9820075 -0.0670886 C34.07751522 -0.06898575 38.17300663 -0.07634117 42.26850808 -0.08343279 C51.92983773 -0.09972836 61.59113011 -0.10460069 71.25247192 -0.10317993 C81.224419 -0.10197822 91.19614974 -0.12308331 101.16804206 -0.15466726 C109.72438352 -0.18080375 118.28065421 -0.19154833 126.8370353 -0.19026911 C131.94960956 -0.1897587 137.06199164 -0.19548555 142.17452621 -0.21662521 C146.98280744 -0.23596334 151.7907123 -0.23616246 156.59900665 -0.22159195 C158.36427738 -0.21949723 160.12957138 -0.22424407 161.89480209 -0.23631287 C164.30401068 -0.25171825 166.71191388 -0.2424895 169.12109375 -0.22705078 C169.82041767 -0.23733791 170.51974159 -0.24762503 171.24025714 -0.25822389 C174.73084872 -0.20875923 176.62180815 0.22579799 179.59793282 2.11083031 C184.37181465 7.03777427 182.68753052 10.67655456 182.68753052 18.26742554 C118.00753052 18.26742554 53.32753052 18.26742554 -13.31246948 18.26742554 C-13.31246948 6.71186998 -13.31246948 6.71186998 -10.31246948 2.26742554 C-6.71966166 -0.12777968 -4.14822587 -0.01825543 0 0 Z " fill="#000000" transform="translate(135.31246948242188,467.7325744628906)"/>
<path d="M0 0 C29.7 0 59.4 0 90 0 C90 11.88 90 23.76 90 36 C60.3 36 30.6 36 0 36 C0 24.12 0 12.24 0 0 Z " fill="#000000" transform="translate(175,415)"/>
<path d="M0 0 C6.06841356 1.23614903 11.89340147 2.82599099 17.75390625 4.8203125 C18.54022934 5.08383514 19.32655243 5.34735779 20.13670349 5.61886597 C22.61342857 6.44997597 25.08797523 7.28736455 27.5625 8.125 C29.25571847 8.69442958 30.9490767 9.26344375 32.64257812 9.83203125 C36.76334783 11.21656373 40.88217819 12.60672572 45 14 C45 17 45 17 43.6875 18.60546875 C43.130625 19.12753906 42.57375 19.64960938 42 20.1875 C41.443125 20.71730469 40.88625 21.24710937 40.3125 21.79296875 C39.879375 22.19128906 39.44625 22.58960938 39 23 C40.46803376 26.3955378 42.35412334 28.59241528 44.97485352 31.18603516 C45.79232559 32.00012848 46.60979767 32.8142218 47.45204163 33.65298462 C48.33540695 34.52289032 49.21877228 35.39279602 50.12890625 36.2890625 C51.03374252 37.1886972 51.9385788 38.08833191 52.87083435 39.01522827 C55.2721335 41.4017304 57.67738961 43.78408297 60.08508301 46.16412354 C63.48273124 49.52373316 66.87516261 52.88858207 70.26487732 56.25619507 C72.06949318 58.04851575 73.8767746 59.83815718 75.68690491 61.62490845 C76.50122482 62.43269745 77.31554474 63.24048645 78.15454102 64.07275391 C78.87464859 64.78460846 79.59475616 65.49646301 80.33668518 66.22988892 C83.17940262 69.25512839 83.41125521 71.82208897 83.3359375 75.95703125 C83 78 83 78 81 81 C77.96906429 83.02062381 75.86935448 83.99841246 72.18432617 83.70629883 C61.14261045 80.13597541 49.88661759 63.99200807 41.875 55.9375 C40.23460915 54.29208424 38.59398605 52.64689999 36.953125 51.00195312 C32.96606742 47.00396822 28.98189006 43.0031313 25 39 C22.26193128 40.27379719 20.03402625 41.65243188 17.75 43.625 C16.8425 44.40875 15.935 45.1925 15 46 C13.02041704 40.25391683 11.04502899 34.50641521 9.07348633 28.75756836 C8.40243311 26.80274705 7.73024244 24.84831582 7.05688477 22.89428711 C6.08830067 20.08289137 5.12383787 17.27011063 4.16015625 14.45703125 C3.85908463 13.58601273 3.558013 12.7149942 3.24781799 11.81758118 C1.91042231 7.90166911 0.64994624 4.10163812 0 0 Z " fill="#000000" transform="translate(428,243)"/>
</svg>
