<?xml version="1.0" encoding="UTF-8"?>
<svg version="1.1" xmlns="http://www.w3.org/2000/svg" width="512" height="512">
<path d="M0 0 C1.01083159 -0.0055344 2.02166318 -0.01106879 3.06312603 -0.0167709 C6.42474037 -0.03030208 9.78560252 -0.0154488 13.14720154 -0.00050354 C15.56754368 -0.00428941 17.98788365 -0.00979166 20.40821838 -0.01687622 C26.28410077 -0.02936703 32.15978647 -0.02328755 38.03564639 -0.00820064 C44.88646217 0.00871574 51.73722502 0.00544217 58.58805525 0.00170528 C70.81565919 -0.00416462 83.04315994 0.0099646 95.27073669 0.03465271 C107.12103644 0.0585762 118.97119838 0.06565381 130.82151794 0.05516052 C143.74426967 0.04373802 156.66695777 0.04183729 169.58970875 0.05625862 C170.96896453 0.05778437 172.34822032 0.05930472 173.72747612 0.06081963 C174.40599507 0.06157744 175.08451402 0.06233525 175.78359415 0.06311603 C180.5529494 0.06784816 185.32227613 0.06601509 190.09163094 0.06175423 C196.51606434 0.05629854 202.94034967 0.06712069 209.36474991 0.08870888 C211.72014283 0.09426538 214.07555408 0.09475251 216.43094826 0.08975601 C219.65046458 0.08378374 222.86940285 0.09634612 226.08886719 0.11352539 C227.48090838 0.10451032 227.48090838 0.10451032 228.90107161 0.09531313 C239.09877984 0.19399792 247.23751833 3.18983244 254.48094177 10.50120544 C259.05845153 16.73890218 261.55473658 21.98741418 261.68626404 29.72874451 C261.70620926 30.76952148 261.72615448 31.81029846 261.7467041 32.88261414 C261.77177284 34.55780121 261.77177284 34.55780121 261.79734802 36.26683044 C261.81812912 37.41536499 261.83891022 38.56389954 261.86032104 39.74723816 C261.9256917 43.41516655 261.98464371 47.08316637 262.04344177 50.75120544 C262.08663885 53.23819199 262.13025352 55.72517132 262.17430115 58.21214294 C262.28136036 64.30842167 262.38315002 70.4047714 262.48094177 76.50120544 C270.39393143 66.16271505 278.28714248 55.81690721 285.98094177 45.31370544 C287.65906914 43.03414805 289.33904168 40.75597896 291.02098083 38.47923279 C291.92656688 37.2523 292.82998558 36.02376045 293.72996521 34.79270935 C299.36634004 27.12084021 304.3942823 22.20621905 313.85594177 20.06370544 C322.46084605 18.83952707 329.37928231 20.57119881 336.43406677 25.64964294 C341.36374576 30.10893272 345.14467983 35.80712777 345.75437927 42.50511169 C345.7878949 43.67944763 345.82141052 44.85378357 345.85594177 46.06370544 C345.90492615 47.21999451 345.95391052 48.37628357 346.00437927 49.56761169 C344.75657266 58.94478526 338.7575021 66.20641653 333.04344177 73.43870544 C331.60590763 75.29053351 330.16973541 77.14341953 328.73484802 78.99729919 C327.6600116 80.38151062 327.6600116 80.38151062 326.5634613 81.79368591 C323.47026229 85.81520726 320.47259932 89.90389772 317.48094177 94.00120544 C310.47254636 103.57325159 303.28412495 113.00478791 296.06809998 122.42088318 C295.54433777 123.10738953 295.02057556 123.79389587 294.48094177 124.50120544 C293.91431824 125.20503357 293.3476947 125.90886169 292.76390076 126.63401794 C291.24394759 128.42673043 291.24394759 128.42673043 291.65281677 130.69261169 C291.93898865 131.8663031 291.93898865 131.8663031 292.23094177 133.06370544 C293.13469172 140.09857717 289.61314373 144.1083317 285.48094177 149.50120544 C285.04040466 150.08547302 284.59986755 150.6697406 284.14598083 151.27171326 C281.01123875 155.42018873 277.83593563 159.527988 274.48094177 163.50120544 C273.6894574 164.44222107 272.89797302 165.38323669 272.08250427 166.35276794 C269.48094177 168.50120544 269.48094177 168.50120544 262.48094177 169.50120544 C262.15094177 209.10120544 261.82094177 248.70120544 261.48094177 289.50120544 C266.10094177 289.50120544 270.72094177 289.50120544 275.48094177 289.50120544 C280.02205856 292.13505318 280.77925063 295.28473931 282.29344177 300.06370544 C283.62506516 304.03172836 284.61043057 306.258474 288.29344177 308.37620544 C291.72614116 309.71502166 292.32361948 309.5602013 295.98094177 308.18870544 C297.13594177 307.63183044 298.29094177 307.07495544 299.48094177 306.50120544 C302.23067184 306.55630022 304.75738069 307.03958492 307.48094177 307.50120544 C308.14094177 307.17120544 308.80094177 306.84120544 309.48094177 306.50120544 C312.96356464 305.94398579 315.41420522 305.80282303 318.43797302 307.78245544 C320.54312916 309.60941541 322.50827352 311.53227331 324.48094177 313.50120544 C325.22344177 314.14960388 325.96594177 314.79800232 326.73094177 315.46604919 C332.85849701 320.99179097 332.85849701 320.99179097 333.79344177 325.31370544 C333.96256299 329.0711377 332.56441451 331.58427018 330.85594177 334.87620544 C328.747682 339.06942931 328.14325985 341.33619406 329.48094177 345.87620544 C330.32168362 348.23711344 330.32168362 348.23711344 331.48094177 350.50120544 C331.89473083 351.38034607 332.3085199 352.25948669 332.73484802 353.16526794 C335.00907971 356.2077524 336.78006974 356.56575256 340.41844177 357.50120544 C343.86966714 358.39074061 346.07333051 359.16536626 348.83250427 361.43870544 C351.31856747 366.05736314 351.02313336 370.34092351 350.91844177 375.50120544 C350.92553162 376.48604919 350.93262146 377.47089294 350.93992615 378.48558044 C350.85642779 387.99154739 350.85642779 387.99154739 347.48094177 391.50120544 C344.55516052 392.66136169 344.55516052 392.66136169 341.16844177 393.56370544 C335.65663542 395.4974565 333.32301257 397.23580392 330.60594177 402.43870544 C328.58438744 406.91500432 328.20821652 409.74147274 329.48094177 414.50120544 C330.45594736 416.48900753 331.56261045 418.30717416 332.73875427 420.18089294 C333.89708295 423.80219418 333.65380543 426.95131613 332.48094177 430.50120544 C330.61728501 433.34099532 328.36613415 435.59732442 325.91844177 437.93870544 C325.32225037 438.56196716 324.72605896 439.18522888 324.11180115 439.82737732 C319.63317986 444.23879528 316.75365964 445.33368479 310.48094177 445.50120544 C309.35430115 445.56823669 308.22766052 445.63526794 307.06687927 445.70433044 C300.80368545 445.79576393 297.0955977 445.37700482 291.48094177 442.50120544 C287.57678386 443.64948718 285.96114435 444.73643838 283.79344177 448.18870544 C283.09008035 449.9638557 282.40128008 451.74717839 281.81297302 453.56370544 C281.57965271 454.26495544 281.3463324 454.96620544 281.10594177 455.68870544 C280.81590271 456.66903748 280.81590271 456.66903748 280.52000427 457.66917419 C278.96794164 460.40570568 277.34037408 461.22600034 274.48094177 462.50120544 C270.93016052 462.79417419 270.93016052 462.79417419 267.16844177 462.68870544 C265.91418396 462.66163513 264.65992615 462.63456482 263.36766052 462.60667419 C262.41504333 462.57186951 261.46242615 462.53706482 260.48094177 462.50120544 C260.36621521 463.39968201 260.25148865 464.29815857 260.13328552 465.22386169 C258.49124045 473.47341747 252.82960525 478.4906613 246.14109802 483.09104919 C239.63547784 486.5396966 233.58966221 486.79267988 226.37406921 486.76863098 C224.86990877 486.77542765 224.86990877 486.77542765 223.33536124 486.78236163 C219.98312478 486.79499801 216.63105094 486.79338572 213.27879333 486.79173279 C210.8719919 486.79771852 208.46519238 486.80452417 206.05839539 486.81208801 C200.20355489 486.82791709 194.34875237 486.83419624 188.49389485 486.83531277 C183.73204113 486.8362647 178.97020066 486.84038224 174.20835114 486.84671402 C160.69239176 486.86431889 147.17646409 486.87355415 133.66049317 486.87205307 C132.93254003 486.87197316 132.2045869 486.87189325 131.45457458 486.87181091 C130.72572728 486.87172915 129.99687997 486.87164739 129.24594638 486.87156315 C117.43942392 486.8707506 105.63302914 486.88988231 93.8265436 486.91808765 C81.68879659 486.94685434 69.55111178 486.96062584 57.41332984 486.95890009 C50.60490254 486.95823747 43.79660908 486.96367361 36.98821259 486.9852562 C30.58266024 487.00464878 24.17739011 487.0047557 17.7718277 486.99022293 C15.42532946 486.988135 13.07881351 486.99283471 10.73234558 487.00494385 C7.51981761 487.02044414 4.30825695 487.01105585 1.0957489 486.99568176 C0.17539171 487.00596889 -0.74496547 487.01625602 -1.69321227 487.02685487 C-11.73140169 486.92127778 -20.32216109 483.74813531 -27.57374573 476.78245544 C-34.90105178 468.18979131 -35.67235988 459.12644823 -35.63931274 448.28871155 C-35.64016717 447.26269691 -35.64102159 446.23668227 -35.64190191 445.17957628 C-35.64354837 441.74331118 -35.63804895 438.30709495 -35.63258362 434.87083435 C-35.63230154 432.40692648 -35.63245988 429.94301853 -35.63302612 427.47911072 C-35.63325381 422.17534889 -35.63041826 416.87160226 -35.62478828 411.56784439 C-35.61665364 403.89954721 -35.61405605 396.23125598 -35.61280029 388.56295495 C-35.61061286 376.12098169 -35.60396115 363.67901499 -35.59449768 351.23704529 C-35.58531558 339.15241021 -35.57823864 327.06777691 -35.57398987 314.98313904 C-35.57372714 314.23796648 -35.57346442 313.49279393 -35.57319374 312.72504039 C-35.57188868 308.9866464 -35.57062498 305.24825239 -35.56938183 301.50985837 C-35.55901884 270.50696929 -35.54133447 239.50408836 -35.51905823 208.50120544 C-36.46265198 208.3715741 -37.40624573 208.24194275 -38.37843323 208.10838318 C-42.12746748 207.38358155 -43.22114729 206.50182575 -45.51905823 203.50120544 C-46.67920757 200.72570929 -47.51975988 197.93639688 -48.39405823 195.05979919 C-49.93264959 191.5605723 -52.00343772 190.20849501 -55.39405823 188.62620544 C-57.7066598 188.29791868 -57.7066598 188.29791868 -60.12062073 189.96604919 C-64.2851672 191.84727536 -67.51503812 191.98224167 -72.01905823 191.93870544 C-72.75253479 191.95868591 -73.48601135 191.97866638 -74.24171448 191.99925232 C-80.8817772 191.99331309 -84.31457711 189.48906125 -89.22218323 185.06370544 C-90.06265198 184.21808044 -90.90312073 183.37245544 -91.76905823 182.50120544 C-92.61983948 181.65558044 -93.47062073 180.80995544 -94.34718323 179.93870544 C-97.57672732 176.31418114 -98.55738655 174.65105502 -98.39405823 169.75120544 C-97.91993005 166.56269342 -96.94691782 164.19076345 -95.39405823 161.37620544 C-93.96065086 158.68725878 -93.51905823 157.63760722 -93.51905823 154.50120544 C-93.84905823 153.51120544 -94.17905823 152.52120544 -94.51905823 151.50120544 C-94.73562073 150.83862732 -94.95218323 150.17604919 -95.17530823 149.49339294 C-96.90580878 145.15111842 -98.5758598 143.08609566 -102.89405823 141.18870544 C-104.42950244 140.60943572 -105.97099192 140.04584576 -107.51905823 139.50120544 C-113.17990188 137.03101912 -113.17990188 137.03101912 -114.65821838 134.72166443 C-116.29248888 130.50621062 -115.8882603 126.03101123 -115.89405823 121.56370544 C-115.91855042 120.57434998 -115.9430426 119.58499451 -115.96827698 118.56565857 C-115.98571021 114.24512368 -115.94206889 111.30033884 -113.89796448 107.43870544 C-111.03618002 105.10792533 -108.63680526 104.38814136 -105.08155823 103.43870544 C-101.15073372 102.03388992 -99.0255142 101.15509851 -96.45265198 97.83323669 C-94.12315921 92.8251446 -92.88227836 88.87484441 -94.58155823 83.50120544 C-95.46326185 81.43626715 -95.46326185 81.43626715 -96.51905823 79.50120544 C-98.43415508 75.83634384 -99.24770499 73.71116452 -98.51905823 69.50120544 C-96.49246407 66.5321526 -94.04630053 64.04741392 -91.51905823 61.50120544 C-90.80105042 60.75741638 -90.0830426 60.01362732 -89.34327698 59.24729919 C-82.78712254 52.54731687 -82.78712254 52.54731687 -78.08155823 52.37620544 C-74.51905823 52.50120544 -74.51905823 52.50120544 -71.51905823 53.50120544 C-70.44655823 53.29495544 -69.37405823 53.08870544 -68.26905823 52.87620544 C-64.51905823 52.50120544 -64.51905823 52.50120544 -61.01905823 54.12620544 C-57.52745631 55.88877684 -57.52745631 55.88877684 -53.76905823 54.56370544 C-49.43814084 51.81523864 -48.42955635 49.18692057 -46.81983948 44.43870544 C-44.89708831 38.90443753 -44.89708831 38.90443753 -42.64405823 36.50120544 C-40.11419452 35.31068134 -38.28359973 35.42821425 -35.51905823 35.50120544 C-35.50487854 34.67878357 -35.49069885 33.85636169 -35.47608948 33.00901794 C-35.03363659 22.65322866 -32.91273784 15.41218868 -25.33155823 8.12620544 C-18.08867239 1.6173023 -9.43952263 -0.09793368 0 0 Z " fill="#535251" transform="translate(138.51905822753906,12.498794555664063)"/>
<path d="M0 0 C1.35117416 0.0001133 1.35117416 0.0001133 2.72964478 0.00022888 C3.70364227 0.00539017 4.67763977 0.01055145 5.68115234 0.01586914 C6.67714447 0.01728409 7.6731366 0.01869904 8.6993103 0.02015686 C11.88860037 0.02576603 15.0778209 0.03832009 18.26708984 0.05102539 C20.425943 0.05603921 22.58479725 0.06060232 24.74365234 0.06469727 C30.04315534 0.07573844 35.34261763 0.09248552 40.64208984 0.11352539 C40.90111084 0.73420898 41.16013184 1.35489258 41.42700195 1.99438477 C41.77512939 2.80713867 42.12325684 3.61989258 42.48193359 4.45727539 C42.99421509 5.66673828 42.99421509 5.66673828 43.5168457 6.90063477 C45.58237495 10.96267796 48.43041099 12.70963244 52.64208984 14.11352539 C54.35170952 14.20983565 56.06483919 14.24845883 57.77716064 14.25396729 C58.83976608 14.25967743 59.90237152 14.26538757 60.99717712 14.27127075 C62.16293777 14.27238861 63.32869843 14.27350647 64.52978516 14.2746582 C66.37163139 14.28210556 66.37163139 14.28210556 68.25068665 14.28970337 C71.62072214 14.30181394 74.99069556 14.3092709 78.36074543 14.31371403 C80.4675886 14.31664673 82.57442635 14.32075197 84.68126678 14.3252182 C91.27698181 14.33889224 97.87268442 14.34855878 104.46841264 14.35242009 C112.07467901 14.35689774 119.6807654 14.37443228 127.28697705 14.40342069 C133.17075378 14.42506373 139.05447998 14.4351258 144.93829608 14.43646121 C148.4501988 14.43750757 151.96193232 14.44337877 155.47379303 14.46128082 C159.39485936 14.48087974 163.31570233 14.47646206 167.23681641 14.4699707 C168.973312 14.48379288 168.973312 14.48379288 170.74488831 14.49789429 C177.98876626 14.46032763 183.59782189 14.15779335 188.95458984 8.80102539 C190.73424844 5.9667543 191.6380815 3.29215442 192.64208984 0.11352539 C197.08948398 0.03903288 201.53654174 -0.01523718 205.984375 -0.05126953 C207.49550712 -0.06630004 209.00659602 -0.08673025 210.51757812 -0.11279297 C212.69721171 -0.1494315 214.87626559 -0.16625799 217.05615234 -0.17944336 C218.36535645 -0.19515381 219.67456055 -0.21086426 221.0234375 -0.22705078 C225.55300907 0.19925824 228.91002518 1.53368494 232.28662109 4.61352539 C236.25610345 9.71145591 236.80243966 13.37726383 236.86669922 19.6550293 C236.87808929 20.42129639 236.88947937 21.18756348 236.9012146 21.97705078 C237.01186682 29.99257778 237.05929594 38.0090168 237.10205078 46.02514648 C237.12430398 49.82378456 237.16604154 53.62143678 237.22509766 57.41967773 C237.29638158 62.01388063 237.33291129 66.60715772 237.34516907 71.20188522 C237.35553711 72.94736374 237.37788386 74.6928161 237.4127655 76.43797684 C237.70362788 91.78660161 237.70362788 91.78660161 233.23779297 97.56567383 C232.06447356 98.77334494 230.86861135 99.95992539 229.64208984 101.11352539 C224.33556772 107.94232042 224.33556772 107.94232042 222.64208984 116.11352539 C222.97208984 117.10352539 223.30208984 118.09352539 223.64208984 119.11352539 C223.97208984 120.10352539 224.30208984 121.09352539 224.64208984 122.11352539 C221.33986695 127.01682605 219.32431314 128.32143589 213.64208984 130.11352539 C213.6362236 129.13713104 213.63035736 128.16073669 213.62431335 127.15475464 C213.56705066 117.94415656 213.49427048 108.73379377 213.40637493 99.52343559 C213.3616856 94.78850895 213.32242628 90.05366806 213.2956543 85.31860352 C213.26960701 80.74727983 213.22919447 76.1762864 213.17890358 71.60516739 C213.16224451 69.86294799 213.15072425 68.12067148 213.14447594 66.37838364 C213.13482431 63.93411553 213.10675319 61.49069049 213.07446289 59.04663086 C213.07589798 58.32949417 213.07733307 57.61235748 213.07881165 56.87348938 C212.97981049 51.55975171 211.77973303 47.40346885 208.10693359 43.46899414 C203.20727361 39.72219533 200.58425095 38.96475668 194.53926086 38.96635437 C193.79928445 38.96267768 193.05930803 38.95900099 192.29690808 38.95521289 C189.80429573 38.94415361 187.31172504 38.9403284 184.8190918 38.93652344 C183.03707242 38.93026041 181.25505435 38.92361376 179.47303772 38.91661072 C174.62160575 38.89918449 169.77018364 38.88864424 164.91872811 38.88040519 C161.88841025 38.8752578 158.85809546 38.8691819 155.82777977 38.86289406 C146.34880935 38.84383628 136.86984675 38.82960716 127.39086086 38.82128209 C116.44525149 38.81151065 105.49984441 38.78519599 94.55430633 38.7447812 C86.09732462 38.71462577 77.64040091 38.6998137 69.18336648 38.69650108 C64.13106235 38.69414967 59.07897418 38.68517763 54.02672768 38.6600399 C49.27181963 38.63676465 44.5172698 38.63252377 39.76231956 38.64280128 C38.01884648 38.64329691 36.27535579 38.63696857 34.53193665 38.62324524 C32.1474753 38.60552912 29.76429984 38.61263019 27.37983704 38.6257782 C26.69343858 38.61480895 26.00704012 38.60383971 25.2998417 38.59253806 C19.94928369 38.66353519 16.96586941 40.18327033 12.64208984 43.11352539 C7.21296875 49.49236967 8.06911002 56.90515943 8.10864258 64.91796875 C8.10157825 66.42325178 8.09283107 67.92852772 8.08253479 69.43379211 C8.06008811 73.50828201 8.06296939 77.58238258 8.07185626 81.65691066 C8.076977 85.0639195 8.06966477 88.47085589 8.06238419 91.87785727 C8.04540009 99.91798527 8.04893584 107.95792341 8.06567383 115.99804688 C8.08259438 124.28077951 8.06675839 132.56298508 8.03445095 140.84566015 C8.00772409 147.96862455 8.00048736 155.09142519 8.00896603 162.21443468 C8.01388618 166.46356536 8.01172932 170.712379 7.99117851 174.96146965 C7.97277244 178.95821024 7.97883931 182.95419492 8.00337791 186.95089531 C8.00837029 188.41335171 8.00493694 189.8758662 7.99222946 191.33827591 C7.79175098 201.60454732 7.79175098 201.60454732 12.14376068 210.59380054 C17.96118474 216.49429565 23.12194791 216.58788922 31.15914917 216.67466736 C32.56939825 216.66995532 33.9796461 216.66486148 35.38989258 216.65942383 C36.88845387 216.66816638 38.38700584 216.67865455 39.88554382 216.69075012 C43.93879373 216.71854753 47.99173809 216.7220162 52.04506946 216.72103024 C56.28654958 216.72416474 60.52789319 216.74979413 64.76930237 216.77301025 C72.79432565 216.81353267 80.81926776 216.83390211 88.84437758 216.84698415 C97.98349558 216.86286694 107.12247568 216.90128795 116.26151359 216.94157743 C135.05499538 217.02392492 153.84846406 217.07804919 172.64208984 217.11352539 C172.75166016 217.74000977 172.86123047 218.36649414 172.97412109 219.01196289 C173.13267578 219.82922852 173.29123047 220.64649414 173.45458984 221.48852539 C173.60541016 222.30063477 173.75623047 223.11274414 173.91162109 223.94946289 C174.51753926 226.47173181 174.51753926 226.47173181 177.64208984 228.11352539 C182.90667003 228.77325672 186.67133517 227.01798721 191.25146484 224.67602539 C191.97714661 224.31766602 192.70282837 223.95930664 193.45050049 223.59008789 C195.77006893 222.44231139 198.0812907 221.27884152 200.39208984 220.11352539 C202.66134049 218.97963287 204.93231169 217.84936222 207.20513916 216.72265625 C208.61259652 216.02383073 210.01798036 215.3207982 211.42034912 214.61181641 C216.86170707 211.89315209 222.4037533 209.42074626 227.96466064 206.95922852 C228.79989069 206.58880432 229.63512074 206.21838013 230.49566078 205.83673096 C232.54417609 204.92832909 234.59299257 204.02061355 236.64208984 203.11352539 C236.73335265 233.6963245 236.80413492 264.27909245 236.84635116 294.86199522 C236.85135395 298.47310121 236.85653124 302.08420692 236.86181641 305.6953125 C236.86286565 306.41421449 236.86391489 307.13311647 236.86499593 307.87380337 C236.88239817 319.51209729 236.91393485 331.15031213 236.95070103 342.78855915 C236.98811551 354.73168907 237.01032676 366.6747776 237.01844382 378.61796373 C237.0234384 385.32578307 237.03544482 392.03343754 237.06501007 398.74119759 C237.09214512 405.05387316 237.10053855 411.36629539 237.09452057 417.67902374 C237.09562164 419.99656742 237.10358662 422.31411951 237.11891174 424.63161278 C237.13880912 427.79553738 237.13402926 430.9585051 237.12310791 434.12245178 C237.14058496 435.49844476 237.14058496 435.49844476 237.15841508 436.90223557 C237.10318599 442.82053409 236.06665202 446.25183056 232.64208984 451.11352539 C227.21642775 456.14218782 222.75673781 456.26219298 215.62797546 456.26069641 C214.69451209 456.2643731 213.76104872 456.26804979 212.79929858 456.27183789 C209.6579416 456.28288889 206.51661767 456.28672095 203.37524414 456.29052734 C201.12840672 456.29679084 198.88157034 456.30343754 196.63473511 456.31044006 C190.52107211 456.32785837 184.40741693 456.33840374 178.29373527 456.34664559 C174.47629202 456.35179318 170.65885121 456.35786897 166.84140968 456.36415672 C156.27190662 456.38102596 145.70240571 456.39566158 135.13289165 456.40290546 C132.39059638 456.40481534 129.64830111 456.40673568 126.90600586 456.40869141 C126.22442544 456.40917515 125.54284503 456.40965889 124.84061066 456.41015729 C113.79674249 456.41845957 102.75298256 456.44380072 91.70916166 456.47627208 C80.37048696 456.50933863 69.03188666 456.52702097 57.69315654 456.53054971 C51.32691236 456.53290368 44.96083932 456.54190966 38.59464073 456.56701088 C32.60693888 456.59023837 26.61952152 456.59454617 20.63178635 456.5842495 C18.43315372 456.58375276 16.23450733 456.59011361 14.03591728 456.60380554 C11.03598657 456.62144391 8.0370858 456.61445768 5.03715515 456.60127258 C3.72989952 456.61772645 3.72989952 456.61772645 2.39623469 456.63451272 C-3.01090726 456.57707467 -6.05706842 455.68856174 -10.35791016 452.11352539 C-15.2807111 446.79157842 -15.48239831 443.00668856 -15.49213123 435.89138985 C-15.49448346 435.15919462 -15.49683569 434.42699939 -15.4992592 433.67261642 C-15.50594474 431.20589329 -15.50549112 428.73922289 -15.50508118 426.27249146 C-15.50838006 424.49140082 -15.51210567 422.71031092 -15.51622266 420.92922199 C-15.52624762 416.02436205 -15.52996023 411.11951435 -15.53261197 406.21464562 C-15.53651341 400.92892959 -15.5460917 395.64322327 -15.55482483 390.35751343 C-15.57459125 377.58930037 -15.58465457 364.82108652 -15.59355262 352.05286199 C-15.59793425 346.043581 -15.60330129 340.03430089 -15.60854149 334.0250206 C-15.6255521 314.05616756 -15.6400479 294.08731506 -15.64729023 274.11845589 C-15.64920019 268.93598556 -15.65112051 263.75351523 -15.65307617 258.57104492 C-15.65355991 257.28293521 -15.65404365 255.9948255 -15.65454205 254.66768216 C-15.6628485 233.78508201 -15.68819655 212.90253904 -15.72065685 192.01996388 C-15.75369338 170.59251197 -15.77173581 149.16508916 -15.77493447 127.73761165 C-15.77710246 115.70179949 -15.78589364 103.66607075 -15.81139565 91.63028336 C-15.83305592 81.38387146 -15.84117605 71.13756325 -15.83142886 60.89113106 C-15.82687091 55.66104069 -15.82885706 50.43116448 -15.84819031 45.20110321 C-15.86572784 40.41563241 -15.86490122 35.6305335 -15.84929302 30.84505926 C-15.8469026 29.11156627 -15.85131418 27.37804816 -15.86312167 25.64459373 C-15.87815887 23.29172175 -15.86862612 20.9401815 -15.85289478 18.58734322 C-15.85387159 17.27947637 -15.8548484 15.97160952 -15.85585481 14.62411034 C-15.10412653 9.32431253 -12.68301814 6.28088243 -8.73291016 2.80102539 C-5.50763681 0.5093838 -3.89616513 -0.01088314 0 0 Z " fill="#FEFEFD" transform="translate(133.35791015625,27.886474609375)"/>
<path d="M0 0 C1.11743116 -0.00935994 1.11743116 -0.00935994 2.25743669 -0.01890898 C4.73717394 -0.03477975 7.21592008 -0.02225873 9.69566345 -0.00964355 C11.48004731 -0.01506728 13.26442668 -0.02219135 15.04879761 -0.03088379 C19.88345462 -0.04908896 24.71776946 -0.04206155 29.5524323 -0.02936745 C34.61584587 -0.01922683 39.67923052 -0.02863593 44.74264526 -0.03491211 C53.24396515 -0.04218475 61.74514594 -0.03261016 70.2464447 -0.0135498 C80.0719247 0.00822517 89.89707275 0.00116145 99.72254473 -0.02085543 C108.16350299 -0.03901198 116.60436137 -0.0415667 125.04533285 -0.03110075 C130.08463986 -0.02486814 135.12379088 -0.02402399 140.16308784 -0.0372467 C144.9000546 -0.04880851 149.63659359 -0.0407734 154.37351418 -0.01766968 C156.11094198 -0.01238466 157.84840583 -0.01389284 159.58581924 -0.02272034 C161.95947144 -0.03366784 164.33175693 -0.01992343 166.70532227 0 C167.39122297 -0.00892289 168.07712367 -0.01784577 168.78380924 -0.02703905 C174.45115087 0.06509826 177.93942334 2.22516473 181.93370056 6.10559082 C186.00595878 11.21293809 186.43357779 14.85915071 186.4026947 21.19226074 C186.40284073 21.97298447 186.40298676 22.75370819 186.40313721 23.55809021 C186.40244045 26.13905616 186.39465913 28.71994997 186.38682556 31.30090332 C186.38496054 33.09023499 186.38353703 34.87956717 186.38253784 36.66889954 C186.3787193 41.37891041 186.36889464 46.08889046 186.35783386 50.79888916 C186.34760552 55.60489485 186.34303717 60.41090551 186.33799744 65.21691895 C186.3272718 74.64727103 186.3102033 84.07760024 186.28916931 93.50793457 C185.26073914 93.69694336 184.23230896 93.88595215 183.17271423 94.08068848 C181.80911789 94.3399184 180.44559637 94.5995421 179.08213806 94.85949707 C178.4059845 94.98268311 177.72983093 95.10586914 177.03318787 95.23278809 C169.02418109 96.7785142 163.9538634 99.83282938 159.28916931 106.50793457 C158.46134336 109.15603793 157.82804817 111.60792733 157.30088806 114.31262207 C157.13908554 115.08991669 156.97728302 115.8672113 156.81057739 116.6680603 C154.86108913 126.23914803 153.23465281 135.87411015 151.62437439 145.50695801 C151.09640846 148.66439648 150.56149594 151.82060068 150.02549744 154.97668457 C149.68200057 157.01047157 149.33888745 159.04432343 148.99620056 161.07824707 C148.83891983 162.00855743 148.6816391 162.9388678 148.51959229 163.89736938 C148.37241257 164.77964203 148.22523285 165.66191467 148.07359314 166.57092285 C147.94575943 167.33381622 147.81792572 168.09670959 147.68621826 168.88272095 C147.15169625 172.41688082 146.72261687 175.95995625 146.28916931 179.50793457 C126.46138486 179.60141545 106.63364519 179.67193218 86.805686 179.71518326 C77.59901496 179.73580013 68.39248092 179.76390397 59.18589783 179.80969238 C51.16054125 179.84958697 43.1352839 179.87537375 35.10983092 179.88428855 C30.86118094 179.88949887 26.61281482 179.90172665 22.36425591 179.9308548 C18.3628465 179.95806544 14.36183708 179.96636825 10.36034393 179.9603653 C8.89422238 179.96146302 7.42808704 179.96938351 5.96204567 179.98475647 C-7.81899329 180.12214011 -7.81899329 180.12214011 -13.71083069 175.50793457 C-18.27813729 170.57030581 -19.95712551 166.953322 -19.98498535 160.23431396 C-19.99496048 158.94459686 -20.00493561 157.65487976 -20.01521301 156.32608032 C-20.01610879 154.8987428 -20.01677237 153.47140511 -20.01722717 152.04406738 C-20.02484968 150.53923125 -20.03327734 149.03439901 -20.04244995 147.52957153 C-20.06439566 143.44261721 -20.07319419 139.35573771 -20.0782764 135.26873112 C-20.08192056 132.71377997 -20.088161 130.1588484 -20.09527779 127.60390472 C-20.11977468 118.68583822 -20.13282423 109.76782987 -20.1363678 100.84973145 C-20.14000098 92.5449418 -20.16988001 84.2405222 -20.21177238 75.93584561 C-20.24650184 68.80022966 -20.26191671 61.66473616 -20.26261383 54.52903628 C-20.26340589 50.26976479 -20.27211106 46.01087006 -20.3006115 41.7516861 C-20.32683723 37.74272531 -20.32897273 33.7344524 -20.31295586 29.72544479 C-20.31114478 28.25813417 -20.31780133 26.7907836 -20.33377457 25.32355881 C-20.46921413 12.06931252 -20.46921413 12.06931252 -16.467103 6.12186813 C-11.37962459 1.44670923 -6.81047541 -0.0888866 0 0 Z " fill="#4269C4" transform="translate(160.71083068847656,65.4920654296875)"/>
<path d="M0 0 C4.84910886 4.54244585 8.63952024 10.1489125 9.25 16.85546875 C9.28351563 18.02980469 9.31703125 19.20414063 9.3515625 20.4140625 C9.40054688 21.57035156 9.44953125 22.72664063 9.5 23.91796875 C8.25219339 33.29514231 2.25312283 40.55677358 -3.4609375 47.7890625 C-4.89847165 49.64089057 -6.33464386 51.49377659 -7.76953125 53.34765625 C-8.84436768 54.73186768 -8.84436768 54.73186768 -9.94091797 56.14404297 C-13.03411698 60.16556431 -16.03177996 64.25425477 -19.0234375 68.3515625 C-26.03183291 77.92360864 -33.22025433 87.35514496 -40.4362793 96.77124023 C-40.9600415 97.45774658 -41.48380371 98.14425293 -42.0234375 98.8515625 C-42.8733728 99.90730469 -42.8733728 99.90730469 -43.74047852 100.984375 C-45.26043168 102.77708749 -45.26043168 102.77708749 -44.8515625 105.04296875 C-44.66078125 105.82542969 -44.47 106.60789062 -44.2734375 107.4140625 C-43.36968756 114.44893423 -46.89123554 118.45868875 -51.0234375 123.8515625 C-51.46397461 124.43583008 -51.90451172 125.02009766 -52.35839844 125.62207031 C-64.97789568 142.32254306 -64.97789568 142.32254306 -70.6484375 143.7890625 C-74.0234375 143.8515625 -74.0234375 143.8515625 -77.0234375 141.8515625 C-82.36590631 148.35190477 -82.55693178 153.66740376 -82.0859375 161.8515625 C-81.62249184 170.45993251 -81.57984386 176.73575681 -87.41943359 183.45874023 C-92.51053179 188.2992646 -98.9075088 190.99257413 -105.2109375 193.9140625 C-106.38261475 194.46771484 -107.55429199 195.02136719 -108.76147461 195.59179688 C-112.50820086 197.36076831 -116.26522288 199.10716509 -120.0234375 200.8515625 C-121.30181682 201.446325 -122.58013717 202.04121429 -123.85839844 202.63623047 C-128.75484479 204.91431735 -133.65166711 207.19136842 -138.55737305 209.44946289 C-144.42576386 212.15386019 -150.23610568 214.92205349 -155.96728516 217.90771484 C-158.90772831 219.25748369 -160.86299836 219.58654835 -164.0234375 218.8515625 C-167.14872048 216.33959662 -168.87306011 214.9507821 -169.42700195 210.90161133 C-169.3105835 209.77779053 -169.19416504 208.65396973 -169.07421875 207.49609375 C-169.0114827 206.85702591 -168.94874664 206.21795807 -168.8841095 205.55952454 C-167.90975479 196.53284344 -166.31097731 187.56778033 -164.74975586 178.62817383 C-164.21395332 175.55635259 -163.69102641 172.48254809 -163.16992188 169.40820312 C-161.58350086 160.13448707 -159.91448711 150.87910041 -157.95703125 141.67578125 C-157.80864304 140.94928879 -157.66025482 140.22279633 -157.50737 139.47428894 C-156.18889583 133.50450737 -154.08955884 129.34913473 -149.0234375 125.8515625 C-143.73132866 122.87940983 -138.1678702 121.62040963 -132.2734375 120.3515625 C-127.27409971 119.25630122 -123.80967432 118.33080715 -120.0234375 114.8515625 C-118.41337718 112.41594249 -118.41337718 112.41594249 -118.0234375 109.8515625 C-118.6834375 108.8615625 -119.3434375 107.8715625 -120.0234375 106.8515625 C-119.9022012 100.63820207 -117.54522533 96.94166031 -114.0234375 92.1015625 C-113.53230469 91.40853027 -113.04117188 90.71549805 -112.53515625 90.00146484 C-101.37627615 74.4201216 -101.37627615 74.4201216 -96.0234375 70.8515625 C-94.77046875 70.96628906 -93.5175 71.08101563 -92.2265625 71.19921875 C-89.54660988 71.26358175 -88.42400531 71.17487795 -86.31445312 69.47216797 C-84.66244406 67.48281326 -83.20685598 65.44108628 -81.7734375 63.2890625 C-81.27070313 62.58458984 -80.76796875 61.88011719 -80.25 61.15429688 C-78.00841714 57.97089713 -75.93131858 54.75513648 -74.0625 51.33984375 C-71.69328547 47.09036739 -68.67783065 43.39483099 -65.6484375 39.6015625 C-60.52289317 33.10550103 -55.53109329 26.53204399 -50.6484375 19.8515625 C-48.93899412 17.52591352 -47.22785668 15.20152639 -45.515625 12.87792969 C-44.596794 11.63017162 -43.67973369 10.38110457 -42.765625 9.12988281 C-37.06377307 1.36958258 -31.27580025 -4.25362136 -21.5078125 -5.98828125 C-13.5485331 -6.50137945 -6.42633618 -4.74380453 0 0 Z " fill="#B42F15" transform="translate(475.0234375,38.1484375)"/>
<path d="M0 0 C5.36545478 3.59793592 8.96434906 8.33770122 12.4375 13.6875 C13.38441153 15.10223578 14.33233447 16.5162951 15.28125 17.9296875 C15.96960938 18.96367676 15.96960938 18.96367676 16.671875 20.01855469 C18.54821396 22.81788686 20.47794496 25.5705853 22.4375 28.3125 C23.03433594 29.15425781 23.63117188 29.99601562 24.24609375 30.86328125 C26.77554463 33.94481718 28.83834331 35.73598712 32.75 36.625 C40.93867293 35.05025521 46.13407159 26.59855772 50.921875 20.35546875 C52.92783814 18.08179249 54.16178931 16.97066806 57 16 C60.68782618 16.13170808 63.09864729 16.25888532 65.99267578 18.63842773 C68.36747907 21.43233094 69.99217407 24.40071558 71.6171875 27.66015625 C71.95153305 28.31350449 72.2858786 28.96685272 72.63035583 29.63999939 C74.09923956 32.51692424 75.54570462 35.40489885 76.99203491 38.29321289 C78.1287731 40.56269758 79.2683894 42.83069739 80.41015625 45.09765625 C80.79058578 45.85414459 81.17101532 46.61063293 81.56297302 47.39004517 C83.98449719 52.15318939 86.58363474 56.75160796 89.37109375 61.30859375 C97.13273284 74.29601102 100.58809014 83.02939419 97.22583008 98.13476562 C96.54470761 100.77971472 95.79160266 103.38652892 95 106 C94.6621844 107.33220476 94.32813604 108.6653781 94 110 C76.37146418 110.0934737 58.74300579 110.163994 41.11427879 110.20724869 C32.92880337 110.22786712 24.74348201 110.25597386 16.55810547 110.30175781 C9.42307355 110.34164773 2.2881532 110.36743804 -4.84698713 110.37635398 C-8.62445666 110.38156513 -12.401607 110.39379785 -16.17897415 110.42292023 C-19.73635388 110.45012368 -23.29328373 110.45843524 -26.8507576 110.45243073 C-28.77481074 110.45405131 -30.69881517 110.4755484 -32.6227417 110.49768066 C-40.94031802 110.45799944 -44.42000896 109.48578075 -50.375 103.6875 C-52.53358305 100.11753573 -52.35710921 98.15483335 -52 94 C-51.02031085 90.99548598 -49.68301678 88.20537853 -48.30078125 85.3671875 C-47.9141481 84.54539505 -47.52751495 83.7236026 -47.12916565 82.87690735 C-45.86879383 80.20381418 -44.59054051 77.5396838 -43.3125 74.875 C-41.99641727 72.0923716 -40.68517127 69.30749547 -39.3739624 66.52256775 C-38.49683429 64.66071059 -37.61813008 62.79959513 -36.737854 60.93922424 C-33.0146844 53.06636494 -29.41625237 45.14352449 -25.875 37.1875 C-25.10023315 35.45777954 -25.10023315 35.45777954 -24.30981445 33.69311523 C-21.96501232 28.45087552 -19.64853939 23.19879261 -17.3828125 17.921875 C-16.97691895 16.98835205 -16.57102539 16.0548291 -16.15283203 15.09301758 C-15.41556884 13.39475166 -14.68890954 11.6918175 -13.97607422 9.9831543 C-11.20434212 3.63063273 -7.68441145 -1.53688229 0 0 Z " fill="#255299" transform="translate(217,107)"/>
<path d="M0 0 C14 0 14 0 17.125 1.8125 C18.87064779 4.78010125 19.78016959 7.30434325 20.8125 10.5625 C22.14412339 14.53052292 23.12948879 16.75726856 26.8125 18.875 C30.24519939 20.21381621 30.84267771 20.05899586 34.5 18.6875 C35.655 18.130625 36.81 17.57375 38 17 C40.74973007 17.05509477 43.27643892 17.53837948 46 18 C46.66 17.67 47.32 17.34 48 17 C51.48262287 16.44278034 53.93326344 16.30161758 56.95703125 18.28125 C59.06218739 20.10820996 61.02733175 22.03106786 63 24 C63.7425 24.64839844 64.485 25.29679687 65.25 25.96484375 C71.37755524 31.49058553 71.37755524 31.49058553 72.3125 35.8125 C72.48162122 39.56993225 71.08347273 42.08306473 69.375 45.375 C67.26674022 49.56822387 66.66231808 51.83498862 68 56.375 C68.84074185 58.73590799 68.84074185 58.73590799 70 61 C70.41378906 61.87914062 70.82757813 62.75828125 71.25390625 63.6640625 C73.52813794 66.70654696 75.29912796 67.06454712 78.9375 68 C82.38872537 68.88953516 84.59238874 69.66416082 87.3515625 71.9375 C89.8376257 76.5561577 89.54219158 80.83971807 89.4375 86 C89.44458984 86.98484375 89.45167969 87.9696875 89.45898438 88.984375 C89.37548602 98.49034194 89.37548602 98.49034194 86 102 C83.07421875 103.16015625 83.07421875 103.16015625 79.6875 104.0625 C74.17569365 105.99625105 71.8420708 107.73459847 69.125 112.9375 C67.10344567 117.41379888 66.72727475 120.24026729 68 125 C68.97500559 126.98780209 70.08166868 128.80596872 71.2578125 130.6796875 C72.41614118 134.30098874 72.17286366 137.45011069 71 141 C69.13634323 143.83978987 66.88519238 146.09611897 64.4375 148.4375 C63.84130859 149.06076172 63.24511719 149.68402344 62.63085938 150.32617188 C58.15223809 154.73758984 55.27271786 155.83247934 49 156 C47.87335938 156.06703125 46.74671875 156.1340625 45.5859375 156.203125 C39.32274367 156.29455849 35.61465593 155.87579938 30 153 C26.09584209 154.14828174 24.48020258 155.23523293 22.3125 158.6875 C21.60913858 160.46265026 20.92033831 162.24597295 20.33203125 164.0625 C20.09871094 164.76375 19.86539062 165.465 19.625 166.1875 C19.43164062 166.84105469 19.23828125 167.49460937 19.0390625 168.16796875 C18 170 18 170 13 173 C8.38 173 3.76 173 -1 173 C-0.67 115.91 -0.34 58.82 0 0 Z " fill="#4168C3" transform="translate(400,302)"/>
<path d="M0 0 C0.33 0 0.66 0 1 0 C1 50.16 1 100.32 1 152 C-1 149 -1 149 -1.796875 146.984375 C-3.46998546 144.22482918 -5.32431578 143.54497498 -8.25 142.25 C-9.18328125 141.82203125 -10.1165625 141.3940625 -11.078125 140.953125 C-14.29261815 139.90454702 -16.64091391 139.64980721 -20 140 C-21.78077671 141.05307457 -21.78077671 141.05307457 -23.3125 142.5 C-27.60561458 145.42598683 -31.58318431 145.52807386 -36.625 145.5625 C-37.35372314 145.57667969 -38.08244629 145.59085938 -38.83325195 145.60546875 C-46.59902226 145.46393518 -50.92006212 141.36263689 -56.25 136 C-57.10078125 135.154375 -57.9515625 134.30875 -58.828125 133.4375 C-62.0576691 129.81297569 -63.03832832 128.14984958 -62.875 123.25 C-62.40087182 120.06148798 -61.42785959 117.689558 -59.875 114.875 C-58.44159263 112.18605333 -58 111.13640178 -58 108 C-58.33 107.01 -58.66 106.02 -59 105 C-59.32484375 104.00613281 -59.32484375 104.00613281 -59.65625 102.9921875 C-61.38675055 98.64991297 -63.05680158 96.58489022 -67.375 94.6875 C-68.91044422 94.10823027 -70.45193369 93.54464031 -72 93 C-77.66084365 90.52981368 -77.66084365 90.52981368 -79.13916016 88.22045898 C-80.77343065 84.00500517 -80.36920207 79.52980579 -80.375 75.0625 C-80.39949219 74.07314453 -80.42398438 73.08378906 -80.44921875 72.06445312 C-80.46665198 67.74391824 -80.42301066 64.7991334 -78.37890625 60.9375 C-75.5171218 58.60671989 -73.11774703 57.88693591 -69.5625 56.9375 C-65.63167549 55.53268448 -63.50645598 54.65389307 -60.93359375 51.33203125 C-58.60410098 46.32393916 -57.36322013 42.37363897 -59.0625 37 C-59.94420362 34.93506171 -59.94420362 34.93506171 -61 33 C-62.91509685 29.3351384 -63.72864676 27.20995907 -63 23 C-60.97340584 20.03094716 -58.5272423 17.54620847 -56 15 C-55.28199219 14.25621094 -54.56398438 13.51242188 -53.82421875 12.74609375 C-47.26806431 6.04611143 -47.26806431 6.04611143 -42.5625 5.875 C-39 6 -39 6 -36 7 C-34.906875 6.79375 -33.81375 6.5875 -32.6875 6.375 C-27.25369349 5.82240951 -24.39933986 8.06710676 -20 11 C-13.96274706 11.3572339 -7.83523977 9.64345532 -3 6 C-0.96175327 2.93237162 -0.96175327 2.93237162 0 0 Z " fill="#ADC36D" transform="translate(103,59)"/>
<path d="M0 0 C1.10095505 -0.00788544 1.10095505 -0.00788544 2.22415161 -0.01593018 C4.6405389 -0.02909033 7.05626273 -0.0204066 9.47265625 -0.01025391 C11.15747198 -0.0122758 12.84228686 -0.01518819 14.52709961 -0.01895142 C18.05428417 -0.02336936 21.58124046 -0.01696087 25.10839844 -0.00292969 C29.62446768 0.01416199 34.14000201 0.00431795 38.65605164 -0.01364708 C42.13395196 -0.0244993 45.61172595 -0.021032 49.08963013 -0.0132637 C50.75456811 -0.01126567 52.41951765 -0.01370703 54.08444214 -0.02070236 C56.4133737 -0.02834067 58.74144485 -0.01668019 61.0703125 0 C61.75513702 -0.00607269 62.43996155 -0.01214539 63.14553833 -0.0184021 C68.81392427 0.05662499 71.89471229 1.72079804 75.80957031 5.69995117 C77.84014426 8.86331418 78.06981372 10.66488796 78.14453125 14.39990234 C78.17708008 15.61299072 78.20962891 16.8260791 78.24316406 18.07592773 C78.25702148 19.39584717 78.27087891 20.7157666 78.28515625 22.07568359 C78.31112444 23.46689825 78.3381693 24.85809317 78.36621094 26.24926758 C78.43650694 30.10882575 78.47603516 33.96821696 78.50976562 37.82824707 C78.53642422 40.51602265 78.57383516 43.20349624 78.61328125 45.89111328 C78.68134376 50.64117725 78.72954539 55.39108111 78.76330566 60.14151001 C78.77780529 62.00562312 78.79656407 63.86970824 78.81970215 65.73373413 C78.84957512 68.3700242 78.85909154 71.00564901 78.86328125 73.64208984 C78.88171082 74.8137117 78.88171082 74.8137117 78.9005127 76.00900269 C78.87983821 81.19865199 77.96583135 84.77897059 75.53515625 89.38818359 C70.67833068 94.00216789 67.04959093 94.51517421 60.49682617 94.56518555 C59.78426163 94.57175674 59.07169708 94.57832794 58.33753967 94.58509827 C55.98023367 94.60480294 53.62299129 94.61648734 51.265625 94.62646484 C50.05637076 94.63257813 50.05637076 94.63257813 48.82268715 94.63881493 C44.55586631 94.65966335 40.28907753 94.6739705 36.0222168 94.68334961 C31.62048766 94.69441306 27.21926417 94.72881534 22.81771374 94.76852131 C19.42815729 94.79469389 16.03872125 94.80304198 12.64907265 94.80663109 C11.02679338 94.81149522 9.40451943 94.82310434 7.7823391 94.84166908 C5.50837738 94.86607597 3.23572312 94.86509347 0.96166992 94.8581543 C-0.33055984 94.86402054 -1.62278961 94.86988678 -2.95417786 94.87593079 C-8.44623521 94.11290302 -11.29521524 91.78106756 -14.80749512 87.59837341 C-16.77092367 83.79532424 -16.97181328 81.29263869 -16.98242188 77.02514648 C-16.98943115 76.31375015 -16.99644043 75.60235382 -17.00366211 74.86940002 C-17.02117458 72.53280856 -17.00964335 70.19744225 -16.99609375 67.86083984 C-16.99879093 66.22708404 -17.00267524 64.5933298 -17.00769043 62.95957947 C-17.01357656 59.54084949 -17.00505259 56.12253855 -16.98632812 52.70385742 C-16.9635568 48.33471022 -16.9766551 43.96654696 -17.00061798 39.59743595 C-17.01511566 36.22493665 -17.0104516 32.85266816 -17.00010681 29.48016167 C-16.99744952 27.86990681 -17.00067399 26.25963061 -17.01002502 24.64940071 C-17.02025479 22.39257962 -17.00460221 20.13732081 -16.98242188 17.88061523 C-16.9792395 16.59965469 -16.97605713 15.31869415 -16.97277832 13.99891663 C-16.22139976 8.65762355 -14.41390816 5.02125179 -10.18139648 1.47494507 C-6.74691325 0.10097429 -3.64196339 -0.03229517 0 0 Z " fill="#D0D9FD" transform="translate(156.46484375,367.61181640625)"/>
<path d="M0 0 C0.73207169 -0.00511093 1.46414337 -0.01022186 2.21839905 -0.01548767 C4.64071817 -0.02939739 7.06275308 -0.02842547 9.48510742 -0.02612305 C11.1703858 -0.0300101 12.8556632 -0.0343448 14.54093933 -0.03910828 C18.07582776 -0.04657409 21.61061633 -0.04627725 25.14550781 -0.04101562 C29.66823668 -0.03522988 34.19055483 -0.05212839 38.71321583 -0.0753603 C42.19543333 -0.0901193 45.67755252 -0.09096624 49.15979576 -0.08785057 C50.82670592 -0.088363 52.4936217 -0.09358612 54.16050148 -0.10366249 C56.49659187 -0.11604758 58.83189032 -0.10922265 61.16796875 -0.09765625 C62.19452576 -0.10912186 62.19452576 -0.10912186 63.24182129 -0.12081909 C67.82530532 -0.07084928 70.96014651 0.72641101 74.77807617 3.2746582 C78.61634782 7.72863067 79.27904552 10.9571459 79.27978516 16.76123047 C79.28788963 17.8477742 79.28788963 17.8477742 79.29615784 18.95626831 C79.30859843 21.33495775 79.2921883 23.71242579 79.27416992 26.09106445 C79.274325 27.75203006 79.2758155 29.41299603 79.27857971 31.07395935 C79.27996155 34.54816768 79.26744078 38.02196209 79.24462891 41.49609375 C79.21622252 45.94377998 79.21899038 50.39078 79.23171902 54.83851719 C79.23868119 58.26582171 79.23088117 61.69296826 79.21846199 65.12025261 C79.21395428 66.760064 79.21360474 68.39989238 79.21752739 70.03970528 C79.22044554 72.33264948 79.20390584 74.62465505 79.18212891 76.91748047 C79.17672592 78.22064713 79.17132294 79.52381378 79.16575623 80.86647034 C78.60349068 85.80948088 76.90447339 88.2856265 73.21557617 91.5246582 C69.15184761 94.44220691 66.7784349 94.41395446 61.76147461 94.45166016 C61.03930252 94.45823135 60.31713043 94.46480255 59.57307434 94.47157288 C57.17786559 94.49131801 54.78271963 94.50297219 52.38745117 94.51293945 C51.56933205 94.51701498 50.75121292 94.52109051 49.90830231 94.52528954 C45.57664746 94.54615721 41.24502434 94.5604549 36.91333008 94.56982422 C32.44319405 94.58087962 27.97355706 94.61526712 23.50359726 94.65499592 C20.06342659 94.68116962 16.62337457 94.68951679 13.1831131 94.6931057 C11.53571458 94.69797111 9.88832135 94.70958391 8.2410202 94.72814369 C5.931033 94.75254828 3.62233309 94.75156818 1.31225586 94.74462891 C-0.000755 94.75049515 -1.31376587 94.75636139 -2.66656494 94.7624054 C-7.66645152 94.07648852 -10.49583389 91.93661099 -14.07067871 88.49459839 C-15.72420523 85.30611149 -15.65642138 82.26474802 -15.6418457 78.75561523 C-15.65031525 78.00389038 -15.65878479 77.25216553 -15.66751099 76.47766113 C-15.69088548 73.99575826 -15.69190298 71.51447528 -15.69067383 69.0324707 C-15.69777584 67.30377963 -15.7054749 65.57509091 -15.71374512 63.84640503 C-15.72719143 60.22330169 -15.72875836 56.60041623 -15.72290039 52.97729492 C-15.71700815 48.34111591 -15.74757471 43.7059855 -15.78801727 39.07000923 C-15.81390751 35.49940386 -15.81677044 31.9290504 -15.81312561 28.35836411 C-15.81481605 26.64956912 -15.82445129 24.9407624 -15.8422699 23.23205948 C-15.86448424 20.83816311 -15.8547472 18.44638129 -15.8371582 16.05249023 C-15.85042145 15.35098846 -15.86368469 14.64948669 -15.87734985 13.92672729 C-15.78200202 8.32287877 -14.04033066 6.07841675 -10.22192383 2.2746582 C-6.65242106 -0.10501031 -4.11986332 -0.01478269 0 0 Z " fill="#B53016" transform="translate(269.221923828125,367.725341796875)"/>
<path d="M0 0 C0.75172485 -0.00686325 1.50344971 -0.0137265 2.2779541 -0.02079773 C4.7598771 -0.03907996 7.24116871 -0.03522578 9.72314453 -0.02954102 C11.45183518 -0.03410275 13.18052401 -0.0394083 14.90921021 -0.04542542 C18.53232184 -0.05435975 22.1552131 -0.05193049 25.77832031 -0.04199219 C30.4143699 -0.03051279 35.04965664 -0.05069618 39.685606 -0.07990932 C43.25620331 -0.09828553 46.82661839 -0.09797587 50.39725113 -0.0922718 C52.10603021 -0.09211871 53.81482173 -0.09815366 55.52355576 -0.11056328 C57.91722695 -0.12549562 60.30949668 -0.1147805 62.703125 -0.09765625 C63.40462677 -0.10732422 64.10612854 -0.11699219 64.82888794 -0.12695312 C69.81596362 -0.05250607 72.64634146 1.27091936 76.48095703 4.40405273 C78.74738157 7.80368954 78.77457937 9.14504788 78.89501953 13.15014648 C78.95363159 14.96397827 78.95363159 14.96397827 79.01342773 16.81445312 C79.04529423 18.15679576 79.07610481 19.4991638 79.10595703 20.84155273 C79.12330902 21.52313446 79.14066101 22.20471619 79.15853882 22.9069519 C79.27543318 27.52850391 79.36342183 32.15016743 79.43804932 36.77258301 C79.46758909 38.58421582 79.49890083 40.39582032 79.53167725 42.20739746 C79.63857401 48.1434733 79.71839505 54.07904436 79.76605225 60.01589966 C79.78425097 61.97534277 79.80897995 63.93473664 79.84039307 65.89401245 C79.88237575 68.66974117 79.89780635 71.44445162 79.90673828 74.22045898 C79.92419601 75.04530792 79.94165375 75.87015686 79.9596405 76.72000122 C79.93855976 82.42553566 78.88231811 85.77118316 75.48095703 90.40405273 C71.43420906 93.51489284 67.88421695 93.84023968 62.94018555 93.80810547 C61.82700958 93.81840034 61.82700958 93.81840034 60.69134521 93.8289032 C58.24732121 93.84714843 55.80394054 93.84333708 53.35986328 93.83764648 C51.65502209 93.84220948 49.95018275 93.8475154 48.24534607 93.85353088 C44.67528808 93.86245756 41.10545384 93.86004407 37.53540039 93.85009766 C32.96775678 93.83860993 28.40088649 93.8588183 23.83334446 93.88801479 C20.3133608 93.90639013 16.793562 93.90608168 13.2735424 93.90037727 C11.58988294 93.90022421 9.90621083 93.90625592 8.22259712 93.91866875 C5.8649504 93.93360233 3.50872626 93.92288581 1.15112305 93.90576172 C0.46054306 93.91542969 -0.23003693 93.92509766 -0.94154358 93.93505859 C-5.91160821 93.85973822 -8.77583332 92.64348275 -12.51904297 89.40405273 C-15.46050502 84.95858092 -15.90053828 81.40332502 -15.9230957 76.1328125 C-15.92995895 75.43116974 -15.9368222 74.72952698 -15.94389343 74.00662231 C-15.9620945 71.70269142 -15.95833376 69.39944588 -15.95263672 67.09545898 C-15.95720182 65.48412354 -15.96250837 63.87279004 -15.96852112 62.26145935 C-15.9774391 58.88988315 -15.97504425 55.51854399 -15.96508789 52.14697266 C-15.95360078 47.83839047 -15.9738118 43.53062818 -16.00300503 39.22215366 C-16.02140131 35.89599967 -16.02106778 32.57004093 -16.01536751 29.2438488 C-16.01521471 27.65591215 -16.02122495 26.06796191 -16.03365898 24.48007393 C-16.04863279 22.25443049 -16.03784743 20.03028586 -16.02075195 17.8046875 C-16.02058578 16.54149185 -16.02041962 15.2782962 -16.02024841 13.9768219 C-15.29334089 8.79516872 -13.34302354 5.36348174 -9.73898315 1.49180603 C-6.539456 -0.07593721 -3.48715039 -0.02224919 0 0 Z " fill="#AEC46E" transform="translate(268.51904296875,262.595947265625)"/>
<path d="M0 0 C0.75333115 -0.00525696 1.50666229 -0.01051392 2.28282166 -0.01593018 C4.76957014 -0.02911853 7.2556768 -0.02039562 9.74243164 -0.01025391 C11.47351708 -0.0122752 13.20460168 -0.01518709 14.9356842 -0.01895142 C18.56299958 -0.02337336 22.19009323 -0.01694874 25.81738281 -0.00292969 C30.46239119 0.01414942 35.10687904 0.00432842 39.75186825 -0.01364708 C43.32670497 -0.02449937 46.90141876 -0.02103174 50.47625923 -0.0132637 C52.18864567 -0.01126503 53.90104334 -0.0137093 55.61341667 -0.02070236 C58.00950447 -0.0283393 60.4047556 -0.01668134 62.80078125 0 C63.5058783 -0.00607269 64.21097534 -0.01214539 64.93743896 -0.0184021 C69.28914203 0.03759622 72.06291397 0.6333947 75.46508789 3.38818359 C78.67334183 7.36246107 78.89640224 11.01450648 78.85327148 15.94482422 C78.85852844 16.68854782 78.8637854 17.43227142 78.86920166 18.1985321 C78.88236336 20.64738204 78.8736775 23.09557749 78.86352539 25.54443359 C78.86554723 27.25166956 78.8684596 28.95890468 78.8722229 30.6661377 C78.87664105 34.24039958 78.87023166 37.81443622 78.85620117 41.38867188 C78.8391095 45.96527283 78.84895342 50.54134595 78.86691856 55.11792755 C78.8777702 58.64215049 78.87430375 62.16624873 78.86653519 65.69047546 C78.86453699 67.37774213 78.86697908 69.0650202 78.87397385 70.75227356 C78.88161117 73.11233416 78.86995296 75.47154546 78.85327148 77.83154297 C78.85934418 78.52571823 78.86541687 79.21989349 78.87167358 79.93510437 C78.81516948 84.2602583 78.1962929 87.00485835 75.46508789 90.38818359 C71.49648741 93.58864493 67.84737397 93.82423422 62.92431641 93.79223633 C61.81114044 93.8025312 61.81114044 93.8025312 60.67547607 93.81303406 C58.23145207 93.83127929 55.7880714 93.82746794 53.34399414 93.82177734 C51.63915295 93.82634034 49.93431361 93.83164626 48.22947693 93.83766174 C44.65941894 93.84658842 41.0895847 93.84417493 37.51953125 93.83422852 C32.95188764 93.82274079 28.38501735 93.84294916 23.81747532 93.87214565 C20.29749166 93.89052099 16.77769286 93.89021254 13.25767326 93.88450813 C11.5740138 93.88435507 9.89034169 93.89038678 8.20672798 93.90279961 C5.84908126 93.91773319 3.49285712 93.90701667 1.13525391 93.88989258 C0.44467392 93.89956055 -0.24590607 93.90922852 -0.95741272 93.91918945 C-5.92747735 93.84386908 -8.79170246 92.62761361 -12.53491211 89.38818359 C-15.5031842 84.91299157 -15.91661343 81.31762405 -15.93896484 76.00927734 C-15.94582809 75.29627472 -15.95269135 74.58327209 -15.95976257 73.84866333 C-15.97796438 71.5074637 -15.9742033 69.16693833 -15.96850586 66.82568359 C-15.97307041 65.1895323 -15.97837679 63.55338293 -15.98439026 61.91723633 C-15.99330798 58.49438672 -15.99091306 55.0717706 -15.98095703 51.64892578 C-15.96946068 47.27074818 -15.98969527 42.89337635 -16.01887417 38.51530457 C-16.03725109 35.13857946 -16.03694092 31.762047 -16.03123665 28.38528442 C-16.03108366 26.77140166 -16.03710946 25.15750565 -16.04952812 23.54367065 C-16.06446787 21.28430091 -16.05374178 19.02641433 -16.03662109 16.76708984 C-16.03645493 15.48390869 -16.03628876 14.20072754 -16.03611755 12.87866211 C-15.32568968 7.93112363 -13.16351008 5.08239034 -9.75584412 1.53744507 C-6.55963156 -0.11649298 -3.51479159 -0.03018471 0 0 Z " fill="#FBAD3E" transform="translate(155.534912109375,262.61181640625)"/>
<path d="M0 0 C4.42696195 3.15328296 8.54280046 6.45834247 12.5 10.1875 C19.1050873 16.23874458 26.55327272 21.06128923 34 26 C35.1616107 26.77451111 36.32308297 27.5492299 37.484375 28.32421875 C38.31453125 28.87722656 39.1446875 29.43023437 40 30 C39.6397876 30.50974365 39.2795752 31.0194873 38.90844727 31.54467773 C34.68145269 38.16988373 34.49050236 43.35779879 34.9375 51.0625 C35.401837 59.65006589 35.4286741 65.90059631 29.60400391 72.60742188 C24.51251463 77.44753741 18.11598303 80.14098646 11.8125 83.0625 C10.64082275 83.61615234 9.46914551 84.16980469 8.26196289 84.74023438 C4.51523664 86.50920581 0.75821462 88.25560259 -3 90 C-4.27837932 90.5947625 -5.55669967 91.18965179 -6.83496094 91.78466797 C-11.73140729 94.06275485 -16.62822961 96.33980592 -21.53393555 98.59790039 C-27.40232636 101.30229769 -33.21266818 104.07049099 -38.94384766 107.05615234 C-41.88429081 108.40592119 -43.83956086 108.73498585 -47 108 C-50.12528298 105.48803412 -51.84962261 104.0992196 -52.40356445 100.05004883 C-52.22893677 98.36431763 -52.22893677 98.36431763 -52.05078125 96.64453125 C-51.9880452 96.00546341 -51.92530914 95.36639557 -51.860672 94.70796204 C-50.88631729 85.68128094 -49.28753981 76.71621783 -47.72631836 67.77661133 C-47.19051582 64.70479009 -46.66758891 61.63098559 -46.14648438 58.55664062 C-44.56006336 49.28292457 -42.89104961 40.02753791 -40.93359375 30.82421875 C-40.78520554 30.09772629 -40.63681732 29.37123383 -40.4839325 28.62272644 C-39.16545833 22.65294487 -37.06612134 18.49757223 -32 15 C-26.70789116 12.02784733 -21.1444327 10.76884713 -15.25 9.5 C-8.12499596 7.94926383 -4.32063591 5.98145839 0 0 Z " fill="#F9AC3E" transform="translate(358,149)"/>
<path d="M0 0 C0.66 0.33 1.32 0.66 2 1 C2.04578784 38.04587222 2.0810245 75.09174017 2.10213066 112.13763496 C2.10463204 116.51224822 2.10722069 120.88686143 2.10986328 125.26147461 C2.1103879 126.13237333 2.11091252 127.00327205 2.11145304 127.90056164 C2.12015324 141.99798442 2.13592111 156.09539087 2.15430559 170.19280397 C2.17301533 184.66039517 2.184119 199.12797783 2.18817699 213.59558064 C2.19091982 222.52128072 2.19957974 231.44693465 2.21583293 240.37262053 C2.22641306 246.49510768 2.22959829 252.61757101 2.22700275 258.74006664 C2.22572307 262.27125289 2.22767089 265.80235854 2.23841095 269.33353043 C2.24998337 273.16646994 2.24596692 276.99930508 2.24050903 280.83226013 C2.24633472 281.94220146 2.2521604 283.05214279 2.25816262 284.19571871 C2.21840777 294.52924061 1.04306493 303.06028203 -6 311 C-14.22108735 318.11049565 -21.7302327 320.34932631 -32.4375 320.125 C-33.26443359 320.11597656 -34.09136719 320.10695313 -34.94335938 320.09765625 C-36.96236708 320.07431512 -38.98122356 320.03845288 -41 320 C-41 319.67 -41 319.34 -41 319 C-40.3709375 318.85304688 -39.741875 318.70609375 -39.09375 318.5546875 C-29.35600307 316.00292852 -23.63388157 311.71957419 -18.2265625 303.24609375 C-14.98185687 297.30435573 -14.71988655 292.5898328 -14.76190186 285.91690063 C-14.75956334 284.38044343 -14.75956334 284.38044343 -14.75717759 282.81294668 C-14.75421891 279.37604256 -14.76540223 275.93932718 -14.77636719 272.50244141 C-14.77689134 270.04018659 -14.77645598 267.5779314 -14.77513123 265.11567688 C-14.77379676 259.81080834 -14.77811055 254.50598822 -14.78673553 249.20112991 C-14.79978799 240.81434796 -14.79221163 232.42764316 -14.78131104 224.04086304 C-14.77783302 221.17025959 -14.77448795 218.299656 -14.77118301 215.42905235 C-14.77035168 214.7116956 -14.76952034 213.99433886 -14.76866381 213.25524402 C-14.75948343 205.09301594 -14.75453058 196.9307872 -14.75146484 188.76855469 C-14.75117909 188.02257406 -14.75089335 187.27659343 -14.75059894 186.50800733 C-14.74649391 174.41739631 -14.75772239 162.32683461 -14.77284035 150.23623462 C-14.78781096 137.81827926 -14.77982614 125.40047315 -14.75222325 112.98253953 C-14.73605858 105.32542427 -14.7387425 97.66877918 -14.76569638 90.01169215 C-14.7845908 84.14336566 -14.77230937 78.27536622 -14.74846077 72.40704918 C-14.74368231 70.0008225 -14.74918234 67.59455026 -14.76569176 65.18837547 C-14.78674213 61.90386428 -14.7709642 58.62150407 -14.74603271 55.33706665 C-14.76098305 54.38423912 -14.77593339 53.43141158 -14.79133677 52.44971049 C-14.69747604 46.59717907 -13.62423254 43.56290218 -9.42043042 39.42139566 C-6.74518534 36.74433265 -6.05831579 34.04380453 -5.85229492 30.35620117 C-5.89459229 29.42783447 -5.93688965 28.49946777 -5.98046875 27.54296875 C-6.00947266 26.51236328 -6.03847656 25.48175781 -6.06835938 24.41992188 C-6.14737228 22.27621112 -6.23839361 20.13290714 -6.34179688 17.99023438 C-6.51370538 10.91553836 -5.58423724 6.49107172 -1 1 C-0.67 0.67 -0.34 0.34 0 0 Z " fill="#3A3A3A" transform="translate(398,179)"/>
<path d="M0 0 C4.03552012 0.9433134 6.98206396 2.50250817 10.3515625 4.80859375 C11.25551758 5.41030396 11.25551758 5.41030396 12.17773438 6.02416992 C23.1501738 13.42655362 33.41904608 21.79659691 43.29345703 30.60058594 C44.54691449 31.71182829 45.83534762 32.78336248 47.12890625 33.84765625 C48.7265625 35.87109375 48.7265625 35.87109375 49.15234375 38.80859375 C47.59298581 50.0245261 34.02118625 64.30190739 25.7265625 71.87109375 C22.4765625 73.05859375 22.4765625 73.05859375 18.7265625 72.87109375 C15.41547156 71.32032964 12.64410825 69.0552233 9.7265625 66.87109375 C8.45411064 65.9934702 7.17773919 65.12151446 5.8984375 64.25390625 C-1.54427321 59.17588746 -8.70228356 53.88895018 -15.5234375 47.99609375 C-16.13074707 47.47329834 -16.73805664 46.95050293 -17.36376953 46.41186523 C-19.03914884 44.9339632 -20.66517065 43.42156034 -22.2734375 41.87109375 C-23.0478418 41.1435791 -23.0478418 41.1435791 -23.83789062 40.40136719 C-26.41611871 37.72206689 -27.26037514 36.22541022 -27.3984375 32.48046875 C-26.01838938 28.05281435 -23.98345206 24.8455474 -21.2734375 21.12109375 C-20.78230469 20.42806152 -20.29117187 19.7350293 -19.78515625 19.02099609 C-5.99386118 -0.23603511 -5.99386118 -0.23603511 0 0 Z " fill="#912010" transform="translate(382.2734375,109.12890625)"/>
<path d="M0 0 C13.53134482 2.70626896 24.61226808 8.06526105 32.8515625 19.58984375 C34.33459339 22.01894607 35.68940683 24.47460452 37 27 C37.5775 27.969375 38.155 28.93875 38.75 29.9375 C43.68267464 42.02255286 43.6975583 56.79997359 38.84765625 68.8671875 C32.33023403 83.0574752 22.12125759 92.2326755 7.83203125 98.01953125 C5 99 5 99 0 100 C0 67 0 34 0 0 Z " fill="#265399" transform="translate(400,339)"/>
<path d="M0 0 C0.07423798 6.17469663 0.12864413 12.34913261 0.16479492 18.52416992 C0.17986772 20.62415086 0.20032941 22.7241004 0.22631836 24.82397461 C0.26276754 27.84496824 0.27974159 30.86554511 0.29296875 33.88671875 C0.30845261 34.82335861 0.32393646 35.75999847 0.33988953 36.72502136 C0.34115544 41.64432504 0.24542781 45.02971976 -3 49 C-7.96580336 53.36021758 -10.43129916 54.12750915 -17.01660156 54.17700195 C-17.73877365 54.18357315 -18.46094574 54.19014435 -19.20500183 54.19691467 C-21.60021058 54.21665981 -23.99535654 54.22831399 -26.390625 54.23828125 C-27.20874413 54.24235678 -28.02686325 54.2464323 -28.86977386 54.25063133 C-33.20142871 54.27149901 -37.53305183 54.28579669 -41.86474609 54.29516602 C-46.33488212 54.30622142 -50.80451911 54.34060892 -55.27447891 54.38033772 C-58.71464958 54.40651142 -62.1547016 54.41485859 -65.59496307 54.41844749 C-67.24236159 54.42331291 -68.88975482 54.43492571 -70.53705597 54.45348549 C-72.84704318 54.47789007 -75.15574308 54.47690998 -77.46582031 54.4699707 C-78.77883118 54.47583694 -80.09184204 54.48170319 -81.44464111 54.48774719 C-86.37797361 53.81096064 -89.36222615 51.60687246 -92.86328125 48.171875 C-94.46067037 45.11981882 -94.29006132 42.66871057 -94.1875 39.25 C-94.16042969 38.07953125 -94.13335937 36.9090625 -94.10546875 35.703125 C-94.07066406 34.81109375 -94.03585938 33.9190625 -94 33 C-93.33693848 32.93006836 -92.67387695 32.86013672 -91.99072266 32.78808594 C-59.79343783 29.32864369 -28.99564484 22.85597176 -3.34375 1.87109375 C-1 0 -1 0 0 0 Z " fill="#912111" transform="translate(348,408)"/>
<path d="M0 0 C0.66 0 1.32 0 2 0 C2.1270508 6.29860838 2.21445561 12.5968849 2.2746582 18.89648438 C2.29976163 21.03821156 2.33385168 23.17985341 2.37719727 25.32128906 C2.4380315 28.4045113 2.46625181 31.48659843 2.48828125 34.5703125 C2.51408768 35.52366486 2.5398941 36.47701721 2.56648254 37.45925903 C2.56830304 41.8000507 2.49652465 45.00748053 -0.21801758 48.52685547 C-5.01594377 52.79214659 -8.93628347 53.25299007 -15.26538086 53.29052734 C-15.97823746 53.29724457 -16.69109406 53.30396179 -17.42555237 53.31088257 C-19.77205454 53.32981437 -22.11827005 53.33378404 -24.46484375 53.3359375 C-26.10242326 53.34236793 -27.74000162 53.34909647 -29.37757874 53.35610962 C-32.80635237 53.36806969 -36.23502534 53.37179167 -39.66381836 53.37060547 C-44.04983466 53.37040215 -48.43520392 53.39772249 -52.82106686 53.43214989 C-56.20206142 53.45442267 -59.58290023 53.45844293 -62.96396065 53.45738602 C-64.58064571 53.4597407 -66.19733515 53.46855684 -67.81394768 53.48405075 C-70.07816396 53.50372294 -72.34098421 53.49786967 -74.60522461 53.48583984 C-76.53452065 53.4901149 -76.53452065 53.4901149 -78.50279236 53.49447632 C-83.77994448 52.74833053 -86.81670926 50.27670843 -90.375 46.4375 C-92.65951335 41.60487561 -92.33670847 37.25639338 -92 32 C-90.79988281 31.90203125 -89.59976563 31.8040625 -88.36328125 31.703125 C-58.23139434 29.07697942 -22.4125498 22.4125498 0 0 Z " fill="#8B9CEA" transform="translate(232,409)"/>
<path d="M0 0 C0.0761466 6.31706001 0.12864032 12.63400139 0.16479492 18.95141602 C0.17986915 21.09989851 0.20033189 23.2483503 0.22631836 25.39672852 C0.26276114 28.48721908 0.27974019 31.57730231 0.29296875 34.66796875 C0.30845261 35.62648239 0.32393646 36.58499603 0.33988953 37.57255554 C0.34205951 46.19680994 0.34205951 46.19680994 -3 50 C-7.08982766 53.06111803 -10.58329096 53.43627436 -15.54077148 53.40405273 C-16.65394745 53.41434761 -16.65394745 53.41434761 -17.78961182 53.42485046 C-20.23363583 53.44309569 -22.67701649 53.43928434 -25.12109375 53.43359375 C-26.82593494 53.43815674 -28.53077428 53.44346267 -30.23561096 53.44947815 C-33.80566895 53.45840482 -37.37550319 53.45599134 -40.94555664 53.44604492 C-45.51320025 53.43455719 -50.08007054 53.45476557 -54.64761257 53.48396206 C-58.16759623 53.5023374 -61.68739503 53.50202895 -65.20741463 53.49632454 C-66.89107409 53.49617148 -68.5747462 53.50220318 -70.25835991 53.51461601 C-72.61600663 53.52954959 -74.97223077 53.51883308 -77.32983398 53.50170898 C-78.02041397 53.51137695 -78.71099396 53.52104492 -79.42250061 53.53100586 C-84.3721191 53.45599535 -87.16807209 52.06267496 -91 49 C-93.51527151 45.63672266 -93.20694366 42.34718296 -93.125 38.25 C-93.09792969 36.49429688 -93.09792969 36.49429688 -93.0703125 34.703125 C-93.04710937 33.81109375 -93.02390625 32.9190625 -93 32 C-91.85337891 31.89510254 -91.85337891 31.89510254 -90.68359375 31.78808594 C-69.57393806 29.84088446 -69.57393806 29.84088446 -49 25 C-47.15341797 24.46246094 -47.15341797 24.46246094 -45.26953125 23.9140625 C-33.20566582 20.18864084 -9.83505331 0 0 0 Z " fill="#617F4D" transform="translate(347,303)"/>
<path d="M0 0 C0 31.35 0 62.7 0 95 C-10.58544863 92.88291027 -19.58660667 85.2890855 -25.71875 76.55078125 C-33.68049182 63.80809152 -36.17974715 49.397714 -33.3515625 34.609375 C-28.65101437 19.26228623 -19.19461869 9.65646982 -5.890625 1.50390625 C-3 0 -3 0 0 0 Z " fill="#62804E" transform="translate(104,87)"/>
<path d="M0 0 C3.02264158 1.97889508 5.45044212 4.45527083 8 7 C8.7425 7.64839844 9.485 8.29679687 10.25 8.96484375 C16.37755524 14.49058553 16.37755524 14.49058553 17.3125 18.8125 C17.48162122 22.56993225 16.08347273 25.08306473 14.375 28.375 C12.26674022 32.56822387 11.66231808 34.83498862 13 39.375 C13.84074185 41.73590799 13.84074185 41.73590799 15 44 C15.41378906 44.87914062 15.82757813 45.75828125 16.25390625 46.6640625 C18.52813794 49.70654696 20.29912796 50.06454712 23.9375 51 C27.38872537 51.88953516 29.59238874 52.66416082 32.3515625 54.9375 C34.8376257 59.5561577 34.54219158 63.83971807 34.4375 69 C34.44458984 69.98484375 34.45167969 70.9696875 34.45898438 71.984375 C34.37548602 81.49034194 34.37548602 81.49034194 31 85 C28.07421875 86.16015625 28.07421875 86.16015625 24.6875 87.0625 C19.17569365 88.99625105 16.8420708 90.73459847 14.125 95.9375 C12.10344567 100.41379888 11.72727475 103.24026729 13 108 C13.97500559 109.98780209 15.08166868 111.80596872 16.2578125 113.6796875 C17.41614118 117.30098874 17.17286366 120.45011069 16 124 C14.13634323 126.83978987 11.88519238 129.09611897 9.4375 131.4375 C8.84130859 132.06076172 8.24511719 132.68402344 7.63085938 133.32617188 C3.21189741 137.67882573 0.22139328 138.95430246 -6 139 C-6.99 138.67 -7.98 138.34 -9 138 C-7.42369323 134.12678907 -4.92252331 131.75264837 -1.9375 128.875 C2.70602531 124.6555852 2.70602531 124.6555852 4.3125 118.875 C4.02239809 115.27773628 3.65428569 114.00460369 2 111 C-0.09666167 107.07721365 -0.70091406 104.51700174 0 100 C1.4664116 95.45271404 3.04577216 91.30760834 7.125 88.578125 C9.38895685 87.58381963 11.65196113 86.77167534 14 86 C18.27646641 84.31622869 18.27646641 84.31622869 21 81 C21.0963008 79.29511239 21.13075035 77.58651023 21.1328125 75.87890625 C21.13410156 74.86119141 21.13539063 73.84347656 21.13671875 72.79492188 C21.13285156 71.72822266 21.12898438 70.66152344 21.125 69.5625 C21.12886719 68.49966797 21.13273437 67.43683594 21.13671875 66.34179688 C21.13542969 65.32279297 21.13414062 64.30378906 21.1328125 63.25390625 C21.13168457 62.31877197 21.13055664 61.3836377 21.12939453 60.42016602 C21.09959771 57.85691378 21.09959771 57.85691378 20 55 C17.60287764 54.11440629 17.60287764 54.11440629 14.75 53.5625 C10.25065163 52.41583554 7.13195697 51.60649591 4 48 C0.95739973 42.81145981 -0.88481661 38.08311422 0 32 C0.62435371 30.64633657 1.29430601 29.3130949 2 28 C4.08630947 24.08346237 4.88361704 21.49841402 4 17 C1.07926183 12.70676596 -2.74693609 9.24509968 -6.4375 5.625 C-9 3 -9 3 -9 1 C-5.73952371 -0.63023814 -3.62198965 -0.4673535 0 0 Z " fill="#255299" transform="translate(455,319)"/>
<path d="M0 0 C0.66 0.33 1.32 0.66 2 1 C0.42369323 4.87321093 -2.07747669 7.24735163 -5.0625 10.125 C-9.70602531 14.3444148 -9.70602531 14.3444148 -11.3125 20.125 C-11.02239809 23.72226372 -10.65428569 24.99539631 -9 28 C-6.90333833 31.92278635 -6.29908594 34.48299826 -7 39 C-8.71573858 43.59874194 -10.50635221 47.74856537 -14.3125 50.9375 C-15.86397481 51.55087376 -17.42031239 52.1527658 -18.98828125 52.72265625 C-19.69339844 52.97917969 -20.39851563 53.23570313 -21.125 53.5 C-21.78757812 53.7165625 -22.45015625 53.933125 -23.1328125 54.15625 C-25.37193621 55.16807159 -26.46516083 56.0724843 -28 58 C-28.63974583 61.78165164 -28.46326536 65.60783075 -28.4375 69.4375 C-28.45748047 70.48744141 -28.47746094 71.53738281 -28.49804688 72.61914062 C-28.49708008 74.13604492 -28.49708008 74.13604492 -28.49609375 75.68359375 C-28.49794678 76.60712646 -28.4997998 77.53065918 -28.50170898 78.48217773 C-27.84967182 81.75442071 -26.55696792 82.92372451 -24 85 C-21.3429529 86.10470556 -21.3429529 86.10470556 -18.5 86.875 C-14.60721205 88.19678552 -13.20969276 88.7596205 -10.4375 91.9375 C-9.963125 92.948125 -9.48875 93.95875 -9 95 C-8.5875 95.804375 -8.175 96.60875 -7.75 97.4375 C-6.25542885 102.54395142 -6.47149395 106.36440558 -9 111 C-11.08630947 114.91653763 -11.88361704 117.50158598 -11 122 C-8.07926183 126.29323404 -4.25306391 129.75490032 -0.5625 133.375 C2 136 2 136 2 138 C-5.01242938 139.45084746 -5.01242938 139.45084746 -8.875 137.6875 C-21.58204579 127.68333412 -21.58204579 127.68333412 -24 121 C-23.84111353 116.23340593 -23.17305452 113.04022382 -20.875 108.875 C-19.44159263 106.18605333 -19 105.13640178 -19 102 C-19.33 101.01 -19.66 100.02 -20 99 C-20.32484375 98.00613281 -20.32484375 98.00613281 -20.65625 96.9921875 C-22.38675055 92.64991297 -24.05680158 90.58489022 -28.375 88.6875 C-29.91044422 88.10823027 -31.45193369 87.54464031 -33 87 C-38.66084365 84.52981368 -38.66084365 84.52981368 -40.13916016 82.22045898 C-41.77343065 78.00500517 -41.36920207 73.52980579 -41.375 69.0625 C-41.39949219 68.07314453 -41.42398438 67.08378906 -41.44921875 66.06445312 C-41.46665198 61.74391824 -41.42301066 58.7991334 -39.37890625 54.9375 C-36.5171218 52.60671989 -34.11774703 51.88693591 -30.5625 50.9375 C-26.63167549 49.53268448 -24.50645598 48.65389307 -21.93359375 45.33203125 C-19.60410098 40.32393916 -18.36322013 36.37363897 -20.0625 31 C-20.94420362 28.93506171 -20.94420362 28.93506171 -22 27 C-23.91509685 23.3351384 -24.72864676 21.20995907 -24 17 C-21.97340584 14.03094716 -19.5272423 11.54620847 -17 9 C-16.28199219 8.25621094 -15.56398438 7.51242188 -14.82421875 6.74609375 C-9.63915629 1.4472822 -7.67316562 -0.27404163 0 0 Z " fill="#617F4D" transform="translate(64,65)"/>
<path d="M0 0 C12.77192373 -0.39591497 22.60236727 -0.59251293 32.91796875 7.8984375 C43.97947648 19.06371172 42.53601128 32.64115345 42.78955078 47.29370117 C42.84602126 49.86698029 42.92761077 52.43984419 43.03564453 55.01147461 C43.64359968 69.77868618 43.66990833 80.76875133 33.84371948 92.4226532 C30.82049506 95.67860691 30.82049506 95.67860691 29 97 C28.01 97 27.02 97 26 97 C25.99120064 95.69573814 25.99120064 95.69573814 25.98222351 94.36512756 C25.92414355 86.14142856 25.85197986 77.91799674 25.76428509 69.69455814 C25.71969708 65.46753435 25.68041603 61.24060436 25.65356445 57.01342773 C25.62741528 52.9283612 25.58693237 48.84365794 25.53681374 44.75881767 C25.52022309 43.20608502 25.50866049 41.65328964 25.50238609 40.10048103 C25.44863138 28.0119878 24.55241415 18.19636063 16 9 C11.29665337 4.65758165 6.1028427 2.70215341 0 1 C0 0.67 0 0.34 0 0 Z " fill="#3A3A3A" transform="translate(358,13)"/>
<path d="M0 0 C9.21316079 1.5355268 15.05049325 5.97318366 20.4921875 13.515625 C25.53007826 21.81639838 27.30790826 29.99566485 25.52734375 39.53125 C23.08291035 49.01623707 17.40970969 57.75581916 9 63 C6.03 63.99 3.06 64.98 0 66 C0 44.22 0 22.44 0 0 Z " fill="#FCFDFD" transform="translate(400,356)"/>
<path d="M0 0 C4.94277006 2.33658221 7.15265384 4.8684829 9 10 C9.58741645 14.02799849 9.21772501 15.6171043 7.1875 19.1875 C2.9 24.7 2.9 24.7 -1 26 C-8.05061082 26.47469459 -8.05061082 26.47469459 -11 25 C-11.24621094 25.69867188 -11.49242187 26.39734375 -11.74609375 27.1171875 C-16.02270187 36.94938936 -24.05097308 45.96272925 -31 54 C-31.58007812 54.67675781 -32.16015625 55.35351562 -32.7578125 56.05078125 C-34.3125 57.75 -34.3125 57.75 -37 60 C-39.16796875 59.640625 -39.16796875 59.640625 -41 59 C-39.5336581 45.03877286 -25.09374582 32.0127946 -16 22 C-16.33 21.154375 -16.66 20.30875 -17 19.4375 C-18.52728083 14.18747216 -18.88667239 10.64667729 -16.25 5.75 C-11.40814501 -0.16782276 -7.45598395 -1.0483137 0 0 Z " fill="#E0870F" transform="translate(349,196)"/>
<path d="M0 0 C0 19.47 0 38.94 0 59 C-6.81906283 56.27237487 -11.01230725 51.89019867 -14.3671875 45.32421875 C-18.62424936 34.83693132 -19.45469851 25.65108365 -15 15 C-12.26042288 9.85291571 -6.63980925 0 0 0 Z " fill="#F9FAF9" transform="translate(104,105)"/>
<path d="M0 0 C3.39890142 2.06889652 5.88937011 4.11279537 7 8 C6.80743088 13.29565084 5.69046589 16.19770181 2 20 C-1.24430347 21.62215174 -4.49378642 21.55292793 -8 21 C-11.41885274 19.07301027 -13.4095503 17.63879916 -14.765625 13.875 C-15.36623979 10.58274118 -15.60229224 8.13165066 -14 5.12109375 C-9.96212151 0.13383312 -6.25395064 -0.87627331 0 0 Z " fill="#25529A" transform="translate(249,94)"/>
<path d="M0 0 C2.15912762 0.00315343 4.31687139 -0.02035304 6.47583008 -0.0456543 C15.31846428 -0.08395708 23.29512078 0.86693935 31.8605957 3.31567383 C26.16609854 9.01017099 14.43250442 7.62295115 6.7980957 7.63793945 C5.73268555 7.63467651 5.73268555 7.63467651 4.64575195 7.63134766 C2.49549533 7.62818837 0.34662095 7.65173278 -1.8034668 7.67700195 C-10.58005426 7.71513476 -18.65875182 6.73780096 -27.1394043 4.31567383 C-19.34458651 -0.88087136 -9.05213146 -0.02756372 0 0 Z " fill="#3B3B3B" transform="translate(239.139404296875,23.684326171875)"/>
<path d="M0 0 C12.66981969 -0.77150458 12.66981969 -0.77150458 17.125 1.8125 C18.87064779 4.78010125 19.78016959 7.30434325 20.8125 10.5625 C22.11846345 14.62608235 22.11846345 14.62608235 25.02734375 17.6015625 C27.45581592 18.84198323 27.45581592 18.84198323 31 20 C31 20.66 31 21.32 31 22 C27.97161606 23.51419197 25.27272827 23.53151974 22 23 C17.45098335 21.33891968 13.30361585 19.47182434 10.0625 15.8125 C9 13 9 13 8.3828125 10.53125 C7.71479923 7.91924305 7.08668678 5.46934109 6 3 C2.98226415 1.23902514 2.98226415 1.23902514 0 1 C0 0.67 0 0.34 0 0 Z " fill="#255299" transform="translate(400,302)"/>
<path d="M0 0 C0 0.66 0 1.32 0 2 C-0.928125 2.37125 -1.85625 2.7425 -2.8125 3.125 C-7.11650882 5.6567699 -8.1590976 8.40352943 -9.66796875 13.0625 C-9.90128906 13.76375 -10.13460938 14.465 -10.375 15.1875 C-10.56835938 15.84105469 -10.76171875 16.49460937 -10.9609375 17.16796875 C-12.51300013 19.90450024 -14.14056769 20.72479489 -17 22 C-20.55078125 22.29296875 -20.55078125 22.29296875 -24.3125 22.1875 C-26.19388672 22.14689453 -26.19388672 22.14689453 -28.11328125 22.10546875 C-29.06589844 22.07066406 -30.01851563 22.03585937 -31 22 C-30.505 20.515 -30.505 20.515 -30 19 C-30 19.66 -30 20.32 -30 21 C-27.54368999 20.50452457 -27.54368999 20.50452457 -25 19 C-23.50725375 16.01450749 -22.3640786 13.09847714 -21.31640625 9.9375 C-19.43225565 5.17754059 -17.30444606 3.21755134 -12.6875 0.9375 C-7.92964436 -0.97584677 -4.90369085 -1.4166218 0 0 Z " fill="#25529A" transform="translate(430,453)"/>
<path d="M0 0 C0.57159848 11.89771646 0.57159848 11.89771646 -3 17 C-7.00616416 21.00616416 -12.83436032 22.83958225 -18.375 23.25 C-21 23 -21 23 -23 22 C-23 21.34 -23 20.68 -23 20 C-21.3603125 19.443125 -21.3603125 19.443125 -19.6875 18.875 C-16.76012372 17.60862998 -16.07034111 17.10802385 -14.25 14.3125 C-13.57712892 12.52939163 -12.91268313 10.74243963 -12.30078125 8.9375 C-10.38586426 3.42578125 -10.38586426 3.42578125 -8.1875 1 C-5.35323391 -0.2956645 -3.07854073 -0.2099005 0 0 Z " fill="#607E4C" transform="translate(104,48)"/>
<path d="M0 0 C7.04600992 -0.43181825 12.2057478 2.16269054 18 6 C21.67134235 11.30305007 21.33855588 16.76806406 21 23 C14.63343109 22.51026393 14.63343109 22.51026393 11.890625 20.30078125 C9.1934909 17.01852508 8.34549645 13.57424502 7.125 9.55859375 C5.83787953 6.63128851 4.72311005 5.61426789 2 4 C1.01 3.67 0.02 3.34 -1 3 C-0.67 2.01 -0.34 1.02 0 0 Z " fill="#617E4D" transform="translate(83,198)"/>
<path d="M0 0 C0.99 0 1.98 0 3 0 C4.125 4.75 4.125 4.75 3 7 C2.01 7 1.02 7 0 7 C-1.125 2.25 -1.125 2.25 0 0 Z " fill="#3C3C3C" transform="translate(286,24)"/>
</svg>
