<?xml version="1.0" encoding="UTF-8"?>
<svg version="1.1" xmlns="http://www.w3.org/2000/svg" width="512" height="512">
<path d="M0 0 C99.99 0 199.98 0 303 0 C303 50.49 303 100.98 303 153 C292.44 153 281.88 153 271 153 C270.97812622 147.86703369 270.97812622 147.86703369 270.95581055 142.63037109 C270.90548335 131.32669421 270.83904154 120.02315046 270.76428509 108.71961021 C270.71935207 101.86598627 270.67993175 95.012414 270.65356445 88.15869141 C270.62810508 81.54501592 270.58718352 74.93155271 270.53681374 68.31801224 C270.52012329 65.79427577 270.50862262 63.2704995 270.50238609 60.74671555 C270.49276904 57.21289679 270.46473691 53.67966954 270.43237305 50.14599609 C270.43452568 48.57937729 270.43452568 48.57937729 270.4367218 46.98110962 C270.36581606 41.50991993 269.94580101 37.77872629 267 33 C266.67 32.01 266.34 31.02 266 30 C264.21771064 28.85790183 264.21771064 28.85790183 262 28 C261.3050987 27.65617971 260.61019739 27.31235943 259.89423847 26.95812035 C256.06722784 25.69121135 252.42770968 25.71716315 248.44218445 25.73257446 C247.5819273 25.72804335 246.72167016 25.72351224 245.83534461 25.71884382 C242.95357027 25.70618644 240.0719846 25.70782106 237.19018555 25.70947266 C235.12363441 25.70348823 233.05708551 25.69668288 230.99053955 25.68911743 C225.37682921 25.67144116 219.76317982 25.66676135 214.14944434 25.66548586 C209.4626119 25.66358675 204.77579365 25.65622905 200.08896667 25.64914167 C189.03041382 25.6328538 177.97189354 25.62797307 166.91333008 25.62939453 C155.50768632 25.63059597 144.10223178 25.60949444 132.6966359 25.5779072 C122.90285149 25.55175081 113.1091289 25.54102698 103.31530982 25.54230535 C97.46659019 25.54281518 91.61803869 25.53712005 85.76935387 25.51594925 C80.26749659 25.49657784 74.76596802 25.4964351 69.26409912 25.51098251 C67.24691602 25.51307308 65.2297124 25.508355 63.21256447 25.4962616 C60.45424654 25.48079821 57.69706047 25.49012449 54.93876648 25.50552368 C54.14448972 25.49523656 53.35021296 25.48494943 52.53186721 25.47435057 C46.97857877 25.54264965 42.47991902 26.58533665 38 30 C33.25489781 35.16791973 32.26997025 40.17246335 32.36508179 46.99450684 C32.35728183 47.86549436 32.34948188 48.73648189 32.34144557 49.63386297 C32.32160052 52.53434169 32.3372606 55.43349737 32.35302734 58.33398438 C32.3462479 60.42068748 32.33734294 62.5073846 32.32647705 64.59407043 C32.30371626 70.2490619 32.312507 75.90359638 32.32837248 81.55859566 C32.34104801 87.48190653 32.32928676 93.40517877 32.32144165 99.32849121 C32.31234994 109.27489228 32.32432057 119.22110761 32.34814453 129.16748047 C32.37535472 140.66016892 32.36654023 152.15241383 32.3390125 163.64509153 C32.31630893 173.51964468 32.31312752 183.39406445 32.32620585 193.26863527 C32.33399342 199.16314748 32.33506082 205.05745133 32.31852341 210.95195007 C32.30405994 216.49417021 32.3141353 222.03581954 32.34299469 227.57797813 C32.34959538 229.60966228 32.34772528 231.64139461 32.33668137 233.67305946 C32.32297425 236.45118168 32.34020391 239.22748613 32.36508179 242.00549316 C32.35392818 242.80550546 32.34277457 243.60551776 32.33128297 244.42977285 C32.43311603 250.3104057 34.17758849 254.49759146 38 259 C43.5405671 263.2989208 48.76636914 264.12100045 55.59320068 264.15821838 C56.58450513 264.16562535 56.58450513 264.16562535 57.59583592 264.17318195 C59.80835427 264.18852938 62.02084366 264.19691007 64.23339844 264.20532227 C65.82017776 264.21490296 67.40695453 264.22491315 68.99372864 264.23532104 C73.30118937 264.26235546 77.60866104 264.28337296 81.91615963 264.30332303 C86.41786123 264.32519159 90.91952917 264.35257603 95.42120361 264.37937927 C103.94567531 264.42929437 112.47016571 264.4742376 120.99467397 264.51740164 C130.69956197 264.56678411 140.4044162 264.6216985 150.10927153 264.67708123 C170.07281621 264.79088312 190.03639315 264.89772608 210 265 C210.17958252 266.63569946 210.17958252 266.63569946 210.36279297 268.30444336 C210.53054386 269.75378759 210.69869668 271.20308535 210.8671875 272.65234375 C210.94477295 273.36886108 211.0223584 274.08537842 211.10229492 274.8236084 C212.1947128 284.0458318 215.61630311 290.42822039 222.64453125 296.52734375 C228.84814224 300.40588661 234.0894813 301.39173927 241.19921875 300.87890625 C265.29493974 299.86456485 265.29493974 299.86456485 271.81689453 303.62353516 C276.04063771 307.64446212 278.5931106 312.4649667 280.95605469 317.74609375 C282.43098253 320.93050298 284.29438957 323.54966923 286.375 326.375 C287.29345703 327.63570313 287.29345703 327.63570313 288.23046875 328.921875 C291.920881 333.25586908 296.32950344 335.31266708 302 336 C301.66244918 344.9450967 297.33761612 353.66238388 291 360 C277.21261436 371.30410418 264.28774378 371.58482165 247.16992188 371.51757812 C244.85119691 371.52300386 242.5324754 371.53012904 240.21376038 371.53881836 C233.93899336 371.55700075 227.66449044 371.55000502 221.38971901 371.53730202 C214.81119724 371.52714807 208.2326975 371.53657435 201.6541748 371.54284668 C189.90169938 371.55137935 178.14933467 371.53818031 166.39687842 371.51780933 C155.75882974 371.49994031 145.12095569 371.50304504 134.48291016 371.52148438 C122.10471176 371.54293019 109.72662458 371.5508374 97.34841013 371.53903532 C90.80497961 371.53281146 84.26166918 371.5319344 77.71824646 371.54518127 C71.56540947 371.5567682 65.41290105 371.5486617 59.26009941 371.52560425 C57.00713584 371.5203324 54.75414444 371.52180469 52.50119209 371.53065491 C36.06376579 371.58925379 23.7534713 370.44440582 11 359 C1.27440937 348.44439607 -0.60826951 335.54570033 -0.48101807 321.68083191 C-0.48276681 320.2836761 -0.48627726 318.88652159 -0.49137473 317.48937398 C-0.50023925 313.6876446 -0.48443017 309.88637346 -0.46426249 306.08470237 C-0.44687749 301.97105586 -0.45284195 297.85743211 -0.45587158 293.74375916 C-0.45796201 286.6290043 -0.44548535 279.51439695 -0.42292023 272.39967918 C-0.39031688 262.1132047 -0.37998471 251.82680105 -0.37496826 241.5402805 C-0.36622864 224.84834651 -0.33964935 208.15649102 -0.30175781 191.46459961 C-0.26500314 175.25659571 -0.23675422 159.04861329 -0.21972656 142.84057617 C-0.21865457 141.83017912 -0.21758258 140.81978207 -0.21647811 139.77876693 C-0.2081597 131.87599108 -0.20033225 123.97321477 -0.19265985 116.07043827 C-0.15497198 77.38022012 -0.07448779 38.69019862 0 0 Z M33 291 C31.58558126 293.82883747 31.68099668 295.87376745 32 299 C34.88363682 301.80879644 36.96976798 302.37724785 40.93383789 302.39440918 C41.92642609 302.40575897 42.91901428 302.41710876 43.94168091 302.42880249 C45.02440277 302.42587189 46.10712463 302.42294128 47.22265625 302.41992188 C48.36773651 302.42839142 49.51281677 302.43686096 50.69259644 302.44558716 C54.48267684 302.46901187 58.27235265 302.46997806 62.0625 302.46875 C64.69279138 302.4758476 67.3230812 302.483546 69.95336914 302.49182129 C75.46796975 302.5064248 80.98245726 302.50700983 86.49707031 302.50097656 C92.87068374 302.4943319 99.24371901 302.51721775 105.61721516 302.55429029 C111.75112746 302.58867391 117.88476632 302.59532539 124.01876831 302.59120178 C126.62793705 302.59289844 129.23711303 302.60259294 131.84622192 302.62034607 C135.49039962 302.64241493 139.13317196 302.63289388 142.77734375 302.61523438 C143.86006561 302.62849762 144.94278748 302.64176086 146.05831909 302.65542603 C151.91742749 302.69499791 151.91742749 302.69499791 156.69750977 299.62561035 C158.18285096 297.09631187 158.18285096 297.09631187 158.0625 294.375 C156.56883083 291.03621009 155.37423369 290.48453233 152 289 C148.31337678 288.55887647 144.64830109 288.60071188 140.93920898 288.62768555 C139.82324341 288.62403488 138.70727783 288.62038422 137.55749512 288.61662292 C133.87020635 288.60851958 130.18335728 288.62212543 126.49609375 288.63671875 C123.93449402 288.63723734 121.37289389 288.63671967 118.81129456 288.63520813 C113.44387377 288.63529784 108.0766072 288.6453872 102.70922852 288.66381836 C96.50675313 288.68499542 90.30446291 288.68849304 84.10195869 288.6822564 C78.12986777 288.67655928 72.15783256 288.6823167 66.18574715 288.69342995 C63.64637578 288.69728349 61.10699884 288.69842953 58.56762505 288.6968441 C55.02210697 288.69647399 51.47687209 288.70907859 47.93139648 288.7253418 C46.87829788 288.72286438 45.82519928 288.72038696 44.7401886 288.71783447 C43.77428802 288.72491928 42.80838745 288.73200409 41.81321716 288.73930359 C40.97534888 288.74135646 40.1374806 288.74340933 39.27422237 288.74552441 C36.75055351 289.02791198 35.14292116 289.65135623 33 291 Z M33 322 C31.58558126 324.82883747 31.68099668 326.87376745 32 330 C34.38068084 332.54924352 35.84975217 332.98288655 39.33899689 333.38031673 C40.69304658 333.39809097 42.04737315 333.39934513 43.40148926 333.38768005 C44.14937478 333.39306559 44.89726029 333.39845113 45.66780901 333.40399987 C48.17519083 333.41831362 50.68204726 333.4111675 53.18945312 333.40405273 C54.98649013 333.40975448 56.7835235 333.41671798 58.58055115 333.42485046 C63.46271064 333.44281743 68.34469075 333.44160699 73.2268734 333.43590808 C77.3001633 333.43282171 81.37341847 333.43890244 85.44670343 333.44494683 C95.05385371 333.45900172 104.66091508 333.4574224 114.26806641 333.44604492 C124.1861023 333.43455899 134.10386795 333.44864519 144.02186823 333.4754414 C152.53236375 333.49757567 161.0427743 333.50424102 169.55329657 333.49836498 C174.63842584 333.49498921 179.72338181 333.49745174 184.80848694 333.51461601 C189.58889002 333.53004719 194.36889164 333.52617233 199.14927864 333.50731087 C200.90528853 333.50361452 202.66132792 333.50676376 204.41731071 333.51719666 C206.81151115 333.53033723 209.20436882 333.51892224 211.59851074 333.50120544 C212.64500628 333.51561295 212.64500628 333.51561295 213.71264315 333.53031152 C217.06005901 333.4792157 218.74503616 333.196947 221.42743683 331.12492466 C223.15734537 329.08654426 223.15734537 329.08654426 223.5625 326.5 C222.74375498 322.86113323 221.10438366 321.98608738 218 320 C215.3739166 319.61898024 213.17291619 319.46630906 210.55418396 319.50552368 C209.81361112 319.50069485 209.07303828 319.49586602 208.31002384 319.49089086 C205.83319335 319.47963613 203.35739906 319.49692582 200.88061523 319.51416016 C199.1031364 319.51201389 197.32565894 319.50813561 195.54818726 319.50265503 C190.72385015 319.49296243 185.8998832 319.50826348 181.07559085 319.52856112 C176.02859337 319.54612841 170.98160739 319.54260711 165.93458557 319.5418396 C157.45998948 319.54371254 148.98553664 319.56107633 140.51098633 319.58837891 C130.70944249 319.61983974 120.90805549 319.63037474 111.1064648 319.6289078 C101.68087424 319.62768759 92.25533481 319.63789463 82.8297596 319.65449142 C78.81668766 319.66155702 74.80363381 319.66521791 70.79055595 319.66627884 C66.06685384 319.66828627 61.34328367 319.68048412 56.61962509 319.70061111 C54.88458501 319.70645798 53.14952975 319.70891248 51.41448021 319.70775604 C49.04912352 319.706776 46.68413749 319.71807206 44.3188324 319.73257446 C43.62963272 319.72947726 42.94043304 319.72638005 42.23034853 319.723189 C38.67484371 319.75927644 35.97032495 319.94902206 33 322 Z " fill="#000000" transform="translate(65,109)"/>
<path d="M0 0 C1.28086353 -0.00935994 1.28086353 -0.00935994 2.58760309 -0.01890898 C5.45984352 -0.03491249 8.33124392 -0.02220613 11.20349121 -0.00964355 C13.25815834 -0.01506141 15.31282158 -0.02218216 17.36747742 -0.03088379 C22.95626234 -0.04916009 28.54475277 -0.04203179 34.13354301 -0.02936745 C39.97380256 -0.01926208 45.81403637 -0.02862626 51.65429688 -0.03491211 C61.46322166 -0.0421957 71.27202609 -0.0325821 81.08093262 -0.0135498 C92.43212163 0.00822023 103.78302329 0.00116936 115.13420534 -0.02085543 C124.8684398 -0.03898911 134.60258759 -0.04157769 144.33683348 -0.03110075 C150.15578136 -0.02485465 155.97459405 -0.02406083 161.79353333 -0.0372467 C167.26336984 -0.04877501 172.73283476 -0.0408347 178.202631 -0.01766968 C180.21383865 -0.01236642 182.22507741 -0.01392381 184.23627281 -0.02272034 C186.97459227 -0.03359573 189.71170908 -0.02000978 192.44995117 0 C193.25237448 -0.00892289 194.05479779 -0.01784577 194.88153696 -0.02703905 C200.19802744 0.04870506 200.19802744 0.04870506 202.71961689 2.24624252 C203.84045629 4.76772423 204.09508471 6.44911376 204.08573914 9.20294189 C204.09192513 10.61214653 204.09192513 10.61214653 204.09823608 12.04981995 C204.08745026 13.07337082 204.07666443 14.09692169 204.06555176 15.15148926 C204.06598984 16.2347197 204.06642792 17.31795013 204.06687927 18.43400574 C204.06478848 22.01612339 204.04144302 25.59777362 204.01794434 29.17980957 C204.01234943 31.66273747 204.00807884 34.14566868 204.00508118 36.62860107 C203.99479531 42.4969748 203.97114871 48.36517583 203.94103271 54.23347878 C203.90419493 61.57103071 203.88809457 68.90859252 203.87145996 76.24621582 C203.83928068 89.33354068 203.78865002 102.420727 203.72497559 115.50793457 C202.98448975 115.51728027 202.24400391 115.52662598 201.4810791 115.53625488 C198.08256907 115.59038058 194.68537357 115.67394569 191.28747559 115.75793457 C190.12280762 115.77211426 188.95813965 115.78629395 187.75817871 115.80090332 C178.15902754 116.07130194 170.46356396 118.0518516 163.29138184 124.69152832 C157.61947664 131.26867524 155.79785879 139.08500074 154.72497559 147.50793457 C137.91043769 142.86944136 125.34007629 131.74723833 112.38513184 120.64855957 C83.60136347 95.99884171 52.15722547 76.54386105 12.72497559 79.50793457 C7.92434908 80.214842 3.24113144 81.32721221 -1.45471191 82.53527832 C-4.73119726 83.36947551 -7.94048574 83.97753359 -11.27502441 84.50793457 C-11.34451269 74.14635609 -11.39782974 63.78483298 -11.43046093 53.423069 C-11.44612171 48.61175561 -11.46736752 43.80060156 -11.50134277 38.98937988 C-11.53392149 34.34690534 -11.55187433 29.70458412 -11.55965614 25.06200409 C-11.56520233 23.29015438 -11.57603259 21.51831312 -11.59221458 19.74652863 C-11.61396927 17.26609616 -11.61699219 14.78629854 -11.61560059 12.30578613 C-11.62638641 11.57210815 -11.63717224 10.83843018 -11.64828491 10.08251953 C-11.63099044 7.23659767 -11.4655912 4.92269821 -10.26966572 2.31979752 C-7.20458189 -0.46441828 -3.93540135 -0.04376137 0 0 Z M122.72497559 43.50793457 C117.41843554 50.05081509 115.35737781 57.62940313 114.28747559 65.88293457 C115.74197961 77.93453935 120.1681231 87.1984173 129.59997559 94.88293457 C138.03871987 100.68054515 146.63522536 101.47853694 156.72497559 100.50793457 C165.48304263 98.79290839 171.99512802 94.2795726 177.72497559 87.50793457 C183.36811307 78.46973876 186.2298462 69.63168528 184.26403809 59.01965332 C181.57766382 48.85883771 175.75341019 40.62214019 166.64294434 35.28918457 C151.5968965 27.47305583 134.05056159 30.89175853 122.72497559 43.50793457 Z " fill="#000000" transform="translate(120.2750244140625,146.4920654296875)"/>
<path d="M0 0 C1.24011789 -0.00668677 1.24011789 -0.00668677 2.50528866 -0.01350862 C3.40828872 -0.01332426 4.31128879 -0.01313989 5.24165249 -0.01294994 C6.68684007 -0.01846498 6.68684007 -0.01846498 8.16122335 -0.02409142 C11.39836049 -0.03512816 14.63546553 -0.03897212 17.87261868 -0.04278088 C20.1903077 -0.04904559 22.50799572 -0.0556924 24.82568264 -0.0626936 C32.44540615 -0.08373737 40.06512987 -0.09409703 47.68487453 -0.10406017 C50.30842951 -0.10810776 52.93198437 -0.11222468 55.55553913 -0.11641026 C66.46992257 -0.13328008 77.38430394 -0.14791414 88.29869843 -0.155159 C91.12981639 -0.15706877 93.96093434 -0.15898912 96.79205227 -0.16094494 C97.49568055 -0.16142868 98.19930883 -0.16191242 98.92425918 -0.16241082 C110.31387692 -0.17070506 121.70338943 -0.19603212 133.09296126 -0.22852562 C144.79668154 -0.26164201 156.50034844 -0.27961194 168.20411581 -0.28280324 C174.77115245 -0.28515264 181.33802278 -0.29409899 187.90501499 -0.31926441 C194.08644605 -0.34256925 200.26760158 -0.34676842 206.44906521 -0.33650303 C208.71332561 -0.33600813 210.97759969 -0.34231481 213.24181843 -0.35605907 C229.72664086 -0.45049646 242.04441319 0.65451883 254.83721828 12.13422108 C268.46775557 26.92803241 265.83721828 44.88539641 265.83721828 64.13422108 C165.84721828 64.13422108 65.85721828 64.13422108 -37.16278172 64.13422108 C-37.16278172 24.47242949 -37.16278172 24.47242949 -25.16278172 11.13422108 C-18.46099832 4.78933739 -9.36356711 0.02350617 0 0 Z M-5.16278172 32.13422108 C-6.24846675 33.97689976 -6.24846675 33.97689976 -6.16278172 36.13422108 C-4.82889656 39.32072451 -3.97152793 40.77241356 -0.78778172 42.19672108 C1.99950768 42.34026854 1.99950768 42.34026854 4.64971828 40.50922108 C7.00842648 38.34510606 7.00842648 38.34510606 7.39971828 35.63422108 C6.66238541 32.35718607 5.50584322 31.13568978 2.83721828 29.13422108 C-1.41172897 29.13422108 -2.23582941 29.30819816 -5.16278172 32.13422108 Z M22.58721828 30.82172108 C20.68559652 33.00323096 20.68559652 33.00323096 20.27471828 35.63422108 C20.67487411 38.3381076 20.67487411 38.3381076 22.96221828 40.57172108 C25.78631329 42.50060331 25.78631329 42.50060331 29.08721828 41.50922108 C31.94138495 40.42588774 31.94138495 40.42588774 32.83721828 38.13422108 C33.25397348 35.17633538 33.25397348 35.17633538 32.83721828 32.13422108 C31.18348332 30.14388467 31.18348332 30.14388467 28.83721828 29.13422108 C24.90180162 28.73422108 24.90180162 28.73422108 22.58721828 30.82172108 Z M47.83721828 32.13422108 C46.75153325 33.97689976 46.75153325 33.97689976 46.83721828 36.13422108 C48.17110344 39.32072451 49.02847207 40.77241356 52.21221828 42.19672108 C54.99950768 42.34026854 54.99950768 42.34026854 57.64971828 40.50922108 C60.00842648 38.34510606 60.00842648 38.34510606 60.39971828 35.63422108 C59.66238541 32.35718607 58.50584322 31.13568978 55.83721828 29.13422108 C51.58827103 29.13422108 50.76417059 29.30819816 47.83721828 32.13422108 Z " fill="#000000" transform="translate(102.16278171539307,31.865778923034668)"/>
<path d="M0 0 C15.72802272 13.6296207 31.09995848 23.84784686 50.66674805 31.37353516 C50.66674805 49.19353516 50.66674805 67.01353516 50.66674805 85.37353516 C29.61364979 85.46378454 8.56070783 85.53748744 -12.49253464 85.58078384 C-22.26763579 85.6014203 -32.04260834 85.62956156 -41.81762695 85.67529297 C-50.33627191 85.71512761 -58.85482374 85.74096009 -67.37355924 85.74988914 C-71.88535414 85.75510962 -76.39688261 85.767402 -80.90859222 85.79645538 C-85.15375669 85.82357129 -89.39854454 85.83198797 -93.64378738 85.82596588 C-95.2030835 85.82706784 -96.76239199 85.83504469 -98.32161331 85.85035706 C-100.44890275 85.87022635 -102.57476575 85.86548714 -104.7020874 85.85455322 C-106.48852221 85.86008398 -106.48852221 85.86008398 -108.3110466 85.86572647 C-111.33325195 85.37353516 -111.33325195 85.37353516 -113.71763611 83.63928223 C-115.57868555 81.02933796 -115.8284937 79.81244469 -115.81427002 76.64056396 C-115.81976868 75.69268005 -115.82526733 74.74479614 -115.83093262 73.76818848 C-115.81655151 72.73528687 -115.80217041 71.70238525 -115.78735352 70.63818359 C-115.78793762 69.54519958 -115.78852173 68.45221558 -115.78912354 67.32611084 C-115.78633557 63.71138819 -115.75520844 60.09748886 -115.72387695 56.48291016 C-115.71641714 53.97756399 -115.71072298 51.47221199 -115.70672607 48.96685791 C-115.69301116 43.04530796 -115.66148199 37.12402243 -115.62132812 31.20260835 C-115.57221233 23.79869907 -115.55074424 16.39475315 -115.52856445 8.99072266 C-115.48565788 -4.21515674 -115.41814989 -17.42079208 -115.33325195 -30.62646484 C-113.43115262 -31.43739357 -111.52712957 -32.24381099 -109.62231445 -33.04833984 C-108.56222168 -33.49790039 -107.50212891 -33.94746094 -106.40991211 -34.41064453 C-102.42208486 -35.98653563 -98.5597126 -36.96867938 -94.33325195 -37.62646484 C-93.60235352 -37.74892578 -92.87145508 -37.87138672 -92.1184082 -37.99755859 C-56.15664126 -42.8443192 -25.71655395 -22.32816351 0 0 Z " fill="#000000" transform="translate(224.333251953125,275.62646484375)"/>
<path d="M0 0 C1.1116452 -0.0071553 2.22329041 -0.01431061 3.36862183 -0.02168274 C4.58891586 -0.02437164 5.8092099 -0.02706055 7.06648254 -0.02983093 C8.35129517 -0.03640213 9.63610779 -0.04297333 10.95985413 -0.04974365 C15.2230047 -0.07076914 19.48615557 -0.08114609 23.74934387 -0.09111023 C25.2186313 -0.09515865 26.68791854 -0.0992756 28.15720558 -0.10346031 C35.06206834 -0.12251037 41.96692043 -0.13674057 48.87180442 -0.14507228 C56.83298127 -0.15483791 64.79387959 -0.18114033 72.75495833 -0.22157317 C78.91390628 -0.25177579 85.07277459 -0.26654516 91.23179513 -0.26985329 C94.90754676 -0.2721995 98.58300077 -0.28110302 102.25867271 -0.30631447 C106.36405712 -0.33401812 110.46882298 -0.32975145 114.57429504 -0.32279968 C115.78446793 -0.33560974 116.99464081 -0.3484198 118.2414856 -0.36161804 C124.75941764 -0.32141413 130.45094631 -0.14985181 135.64387512 4.14717102 C140.68485417 9.58454917 141.36885719 14.93209961 141.27497864 22.10810852 C141.28571159 23.55362091 141.28571159 23.55362091 141.29666138 25.02833557 C141.31348129 28.19343912 141.2941844 31.35711283 141.27278137 34.52217102 C141.27361068 36.73359799 141.27607241 38.94502489 141.28009033 41.15644836 C141.28294376 45.78310276 141.268291 50.40927183 141.24079895 55.0358429 C141.20671759 60.9539954 141.21273907 66.87128045 141.23146152 72.78947449 C141.24205097 77.35354285 141.23307591 81.91741082 141.21807671 86.48146057 C141.21290875 88.66305445 141.21335979 90.84466937 141.21962166 93.02626038 C141.22509723 96.08003946 141.20462293 99.13259411 141.17732239 102.18623352 C141.18711121 103.52684845 141.18711121 103.52684845 141.19709778 104.89454651 C141.10891737 110.72164174 140.03235213 115.31795178 136.64387512 120.14717102 C130.56360407 125.08739125 125.86155897 125.240361 118.29231262 125.00654602 C115.74692247 124.97512028 113.20158953 124.9552201 110.65608215 124.93574524 C108.90823591 124.91017963 107.16056231 124.86322463 105.41389465 124.79414368 C95.74548115 124.15311273 95.74548115 124.15311273 86.92127991 127.34538269 C83.39449207 130.79746432 81.05697358 134.87642349 78.64387512 139.14717102 C77.57866441 140.70089372 76.500283 142.24577786 75.40168762 143.77607727 C74.52002808 145.08455176 73.64223266 146.39564071 72.76887512 147.70967102 C66.47481371 157.17804953 66.47481371 157.17804953 63.64387512 159.14717102 C60.25325012 159.37373352 60.25325012 159.37373352 56.64387512 158.14717102 C54.28942393 155.88561861 52.63125091 153.27301602 50.89387512 150.52217102 C49.44298642 148.32082264 47.98298286 146.12987852 46.48860168 143.9577179 C45.04016665 141.75094393 43.7572207 139.56111751 42.47883606 137.25849915 C38.29507439 129.97056169 38.29507439 129.97056169 31.56318665 125.35121155 C25.87027204 124.21222752 20.15531563 124.57417122 14.39387512 124.89717102 C11.82929354 124.97595481 9.26547708 125.03326592 6.7000885 125.07814026 C5.11550959 125.11272597 3.53119719 125.17015265 1.94850159 125.254776 C-4.62182233 125.51424381 -9.08369583 124.11660953 -14.16862488 119.70967102 C-17.20226428 116.15597915 -18.6020719 113.56994991 -18.62355042 108.87890625 C-18.63208038 108.03369415 -18.64061035 107.18848206 -18.6493988 106.31765747 C-18.64849243 105.3986113 -18.64758606 104.47956512 -18.64665222 103.53266907 C-18.65336945 102.55821838 -18.66008667 101.5837677 -18.66700745 100.57978821 C-18.68601605 97.35610361 -18.68991323 94.13262693 -18.69206238 90.90888977 C-18.69848876 88.66693028 -18.705217 86.42497163 -18.7122345 84.18301392 C-18.72421475 79.48134924 -18.72791459 74.77975809 -18.72673035 70.07807922 C-18.72652722 64.05890344 -18.7538197 58.04020014 -18.78827477 52.02113628 C-18.81053418 47.38938236 -18.81456816 42.75774226 -18.81351089 38.12594032 C-18.81586866 35.90721319 -18.82470203 33.68848301 -18.84017563 31.46980858 C-18.85981375 28.36282351 -18.85400539 25.25685875 -18.84196472 22.14985657 C-18.85320374 21.23688309 -18.86444275 20.32390961 -18.87602234 19.38327026 C-18.81784126 13.46269894 -17.81932176 9.99214009 -14.35612488 5.14717102 C-9.55316695 1.42242814 -6.01221847 0.02655256 0 0 Z M22.64387512 36.14717102 C17.38807507 44.883163 14.1222765 53.26838491 16.10481262 63.53388977 C19.96521076 77.99902869 29.81475615 88.73347789 42.26887512 96.58467102 C44.37966387 97.79725179 46.5037062 98.98723214 48.64387512 100.14717102 C49.47145325 100.61381165 50.29903137 101.08045227 51.15168762 101.56123352 C56.5619797 104.33235873 60.80020303 104.95950503 66.64387512 103.14717102 C75.11942986 99.63291662 82.7662361 95.27639904 89.64387512 89.14717102 C90.40313293 88.50392883 91.16239075 87.86068665 91.94465637 87.19795227 C100.3057049 79.59572159 105.98414752 69.39376608 106.89387512 58.02217102 C106.26640186 48.29633544 103.21682723 39.28081384 95.90950012 32.54951477 C88.56543779 26.97647632 80.64537799 26.20928988 71.64387512 27.14717102 C69.12473057 28.0286872 66.86362151 29.09720554 64.49153137 30.31123352 C62.64387512 31.14717102 62.64387512 31.14717102 60.08137512 31.08467102 C58.05912631 30.30688302 56.06558291 29.45493759 54.08137512 28.58467102 C43.02560627 24.3420981 30.26525318 26.99439457 22.64387512 36.14717102 Z " fill="#000000" transform="translate(306.3561248779297,273.8528289794922)"/>
<path d="M0 0 C3.375 1.9375 3.375 1.9375 6 4 C8.86783571 6.33447403 8.86783571 6.33447403 12.375 5.875 C16.3214002 4.92242064 17.98029415 3.62237613 21 1 C24.9559544 -1.30764006 28.36557936 -1.23742861 32.78515625 -0.59765625 C37.79188086 0.75336468 40.33318203 3.86640945 42.875 8.1875 C44.82189512 14.78531124 44.99568811 21.52837329 42.2265625 27.93359375 C37.34821926 36.15220387 30.04829927 42.07725384 22 47 C21.28585937 47.44601562 20.57171875 47.89203125 19.8359375 48.3515625 C16.60077127 50.18773793 14.44638192 50.9831554 10.6875 51.125 C-2.44249564 47.11923862 -13.44178999 38.0516184 -20 26 C-21.95946946 20.12159161 -21.79330377 13.42398374 -19.875 7.5625 C-14.48140205 0.19124947 -8.84031281 -1.99473725 0 0 Z " fill="#000000" transform="translate(356,314)"/>
<path d="M0 0 C5.33123789 6.31330803 7.0859584 11.57809459 6.75 19.9140625 C5.92343468 26.30272359 3.51357626 30.19200628 -1.5 34.1875 C-7.23432925 38.08091912 -12.6591899 39.66198904 -19.625 38.8125 C-25.59042657 37.30184669 -30.51404791 34.93810862 -34.0390625 29.71875 C-37.58758757 23.45431467 -38.75040249 17.95076725 -37.625 10.8125 C-35.7520181 4.18144607 -31.28972341 -0.43863368 -25.625 -4.1875 C-16.83588787 -8.24401329 -7.22628631 -6.02190526 0 0 Z " fill="#000000" transform="translate(285.625,196.1875)"/>
</svg>
