<?xml version="1.0" encoding="UTF-8"?>
<svg version="1.1" xmlns="http://www.w3.org/2000/svg" width="512" height="512">
<path d="M0 0 C0.90966664 -0.00367669 1.81933328 -0.00735338 2.75656557 -0.01114148 C5.8117151 -0.02217452 8.86683061 -0.02602156 11.92199707 -0.02983093 C14.10998645 -0.03609598 16.29797476 -0.04274282 18.48596191 -0.04974365 C25.67882547 -0.07078543 32.87168924 -0.08114768 40.0645752 -0.09111023 C42.54199739 -0.09515805 45.01941947 -0.09927498 47.49684143 -0.10346031 C58.47098149 -0.12142102 69.44511696 -0.13579811 80.41926911 -0.14363671 C82.42668886 -0.14507514 84.4341086 -0.14652652 86.44152832 -0.147995 C87.43826029 -0.14872061 87.43826029 -0.14872061 88.45512825 -0.14946087 C99.20712061 -0.15775211 109.95900138 -0.18307374 120.71094507 -0.21557567 C131.76265431 -0.24870986 142.8143041 -0.26633134 153.86606264 -0.26985329 C160.0659292 -0.27220109 166.26561944 -0.28112632 172.46543884 -0.30631447 C178.30297268 -0.32964701 184.14021477 -0.33380741 189.9777832 -0.32355309 C192.1142321 -0.32305884 194.2506956 -0.32934616 196.38710022 -0.34310913 C212.91438294 -0.44357667 226.05410009 1.03955988 238.7833252 12.58467102 C239.5464502 13.43029602 240.3095752 14.27592102 241.0958252 15.14717102 C241.57664551 15.63572571 242.05746582 16.1242804 242.55285645 16.62763977 C254.00084663 28.82916855 254.39919855 44.44747494 254.34979248 60.27778625 C254.35210024 61.89636341 254.35527887 63.51493951 254.35924697 65.13351345 C254.36756034 69.5568696 254.36348548 73.98013894 254.35727453 78.40349531 C254.35273685 83.18338565 254.35974033 87.96326139 254.36523438 92.7431488 C254.37411597 102.09734206 254.37221186 111.45150318 254.36640909 120.80569768 C254.36188776 128.40974901 254.36128174 136.01379134 254.36345673 143.61784363 C254.36376319 144.70111889 254.36406966 145.78439416 254.36438541 146.90049595 C254.36502488 149.10132003 254.3656733 151.30214411 254.36633059 153.50296819 C254.37203028 174.12802564 254.36548167 194.7530653 254.35472986 215.37811983 C254.34579468 233.06579424 254.34734683 250.7534424 254.35656738 268.44111633 C254.3672764 288.9936329 254.37148099 309.54613388 254.36534286 330.09865284 C254.36470577 332.29126803 254.36407703 334.48388322 254.36345673 336.67649841 C254.36314818 337.75523694 254.36283962 338.83397547 254.36252172 339.94540304 C254.36079668 347.53812468 254.36370578 355.13083641 254.36841583 362.72355652 C254.37403167 371.97967001 254.37249341 381.23574958 254.36185434 390.4918592 C254.35660712 395.21218847 254.35452471 399.93246125 254.36115265 404.65279007 C254.36713386 408.97802138 254.36380128 413.3031441 254.35319754 417.62836564 C254.35097271 419.18878642 254.3520791 420.74921646 254.35694912 422.30963123 C254.38960023 433.64544978 254.0974691 444.24378905 248.7833252 454.45967102 C248.20969238 455.59017883 247.63605957 456.72068665 247.04504395 457.88545227 C240.29384017 469.18255678 229.71967912 476.14032604 217.20617247 479.68199509 C213.58387403 480.48044474 209.88497771 480.29514148 206.19165039 480.29434204 C204.82715043 480.29985707 204.82715043 480.29985707 203.43508482 480.30548352 C200.37993529 480.31651656 197.32481979 480.3203636 194.26965332 480.32417297 C192.08166394 480.33043802 189.89367563 480.33708486 187.70568848 480.34408569 C180.51282492 480.36512747 173.31996115 480.37548972 166.1270752 480.38545227 C163.649653 480.38950009 161.17223092 480.39361702 158.69480896 480.39780235 C147.7206689 480.41576306 136.74653343 480.43014015 125.77238128 480.43797876 C123.76496153 480.43941718 121.75754179 480.44086857 119.75012207 480.44233704 C118.7533901 480.44306265 118.7533901 480.44306265 117.73652214 480.44380292 C106.98452978 480.45209415 96.23264901 480.47741578 85.48070532 480.50991771 C74.42899608 480.5430519 63.3773463 480.56067339 52.32558775 480.56419533 C46.1257212 480.56654313 39.92603095 480.57546836 33.72621155 480.60065651 C27.88867772 480.62398905 22.05143562 480.62814946 16.21386719 480.61789513 C14.07741829 480.61740088 11.94095479 480.6236882 9.80455017 480.63745117 C-6.72273255 480.73791871 -19.8624497 479.25478216 -32.5916748 467.70967102 C-33.3547998 466.86404602 -34.1179248 466.01842102 -34.9041748 465.14717102 C-35.38499512 464.65861633 -35.86581543 464.17006165 -36.36120605 463.66670227 C-47.80281646 451.47197321 -48.20706334 435.85922937 -48.16487122 420.03674316 C-48.16789615 418.42030372 -48.17178735 416.80386571 -48.17646378 415.1874302 C-48.18670845 410.76986979 -48.184571 406.35239086 -48.18028319 401.93482387 C-48.17780952 397.16100821 -48.18683808 392.38721185 -48.19432068 387.61340332 C-48.20705202 378.2702382 -48.20886331 368.92710184 -48.20652042 359.5839295 C-48.20473531 351.98705441 -48.20649103 344.39018803 -48.21074486 336.79331398 C-48.21134005 335.71090488 -48.21193524 334.62849579 -48.21254846 333.51328642 C-48.21376025 331.31415953 -48.21497438 329.11503264 -48.21619084 326.91590575 C-48.22706039 306.30506594 -48.22490668 285.69424251 -48.21880599 265.08340178 C-48.21363762 246.24361375 -48.22489122 227.40387743 -48.24390421 208.56409963 C-48.26329392 189.20204642 -48.2715366 169.84001767 -48.26778096 150.47795469 C-48.2658706 139.61461104 -48.26834034 128.7513114 -48.2824955 117.88797569 C-48.29442471 108.63962275 -48.29579692 99.39134092 -48.28370533 90.14298698 C-48.27782742 85.42833455 -48.27668705 80.71381208 -48.28870773 75.9991684 C-48.29960285 71.67558701 -48.29642031 67.35224352 -48.28244605 63.02867309 C-48.27980907 61.47223561 -48.28213393 59.91577927 -48.29018191 58.35936036 C-48.36767108 42.2432079 -45.90847908 29.35344297 -36.7166748 15.95967102 C-26.22010441 5.46310062 -14.75177795 -0.0031931 0 0 Z M-23.2791748 27.45967102 C-29.00475578 34.77479005 -31.02590908 42.66904692 -31.03560257 51.82525158 C-31.0376552 52.48649057 -31.03970784 53.14772957 -31.04182267 53.82900611 C-31.04748452 56.04837634 -31.04603643 58.26768436 -31.0446167 60.48706055 C-31.0472008 62.09292176 -31.05021409 63.69878234 -31.0536201 65.30464202 C-31.06168804 69.72065615 -31.06347956 74.13665402 -31.06421757 78.55267465 C-31.06606848 83.31424481 -31.073616 88.07580654 -31.08035278 92.83737183 C-31.09393513 103.25063707 -31.09996066 113.66389846 -31.10436344 124.07717109 C-31.10712601 130.57916645 -31.11136339 137.08116032 -31.11586761 143.58315468 C-31.12806011 161.58502325 -31.13835949 179.58689063 -31.14174271 197.58876324 C-31.14196227 198.7409404 -31.14218184 199.89311756 -31.14240806 201.08020918 C-31.14262634 202.23514381 -31.14284461 203.39007843 -31.14306951 204.58001107 C-31.14351297 206.92035019 -31.14395954 209.26068932 -31.14440918 211.60102844 C-31.14463061 212.76191759 -31.14485204 213.92280674 -31.14508018 215.11887435 C-31.14902819 233.92941071 -31.1664824 252.73990833 -31.1897687 271.55042972 C-31.213483 290.86254977 -31.22594459 310.17465039 -31.22711062 329.48678523 C-31.22802734 340.3299739 -31.2337787 351.17311209 -31.25193024 362.01628685 C-31.26733225 371.24952373 -31.27245107 380.48269453 -31.26419213 389.71594181 C-31.26028602 394.42600997 -31.26121341 399.13594507 -31.27524948 403.84599686 C-31.28799049 408.16096783 -31.28678911 412.47570579 -31.27465877 416.79067645 C-31.27270213 418.34857032 -31.2757787 419.90648071 -31.28450313 421.46435138 C-31.34956103 433.87053189 -30.18845626 444.40754283 -21.9041748 454.14717102 C-12.64019896 462.77095341 -2.43385765 464.30557042 9.72846985 464.28088379 C10.5605887 464.28314935 11.39270756 464.2854149 12.25004214 464.28774911 C15.01871925 464.29404356 17.78734683 464.29326269 20.55603027 464.29243469 C22.54918989 464.29542902 24.54234892 464.29883218 26.5355072 464.3026123 C31.93642936 464.31142841 37.33733566 464.31378941 42.73826432 464.31442809 C46.11606081 464.31513992 49.4938533 464.31727675 52.87164879 464.31992531 C64.66553375 464.32917063 76.45940743 464.33326119 88.2532959 464.33247375 C99.23115203 464.33187309 110.208959 464.34242476 121.18680269 464.35821742 C130.62570133 464.37131026 140.06458393 464.37665692 149.50349158 464.37601835 C155.13479479 464.37576388 160.76605428 464.37858653 166.3973484 464.3891964 C171.69562409 464.39890679 176.99381452 464.39893641 182.29209328 464.39167976 C184.23061244 464.3906376 186.16913699 464.39297484 188.10764694 464.39904022 C209.56623623 464.66676398 209.56623623 464.66676398 227.91223145 454.51435852 C234.77134638 447.12232989 237.21677964 438.36190801 237.22725296 428.46909046 C237.22930559 427.80785147 237.23135823 427.14661247 237.23347306 426.46533594 C237.23913491 424.2459657 237.23768682 422.02665768 237.23626709 419.80728149 C237.23885119 418.20142028 237.24186448 416.5955597 237.24527049 414.98970002 C237.25333843 410.57368589 237.25512995 406.15768802 237.25586796 401.74166739 C237.25771887 396.98009723 237.2652664 392.2185355 237.27200317 387.45697021 C237.28558552 377.04370497 237.29161105 366.63044358 237.29601383 356.21717095 C237.2987764 349.71517559 237.30301378 343.21318172 237.30751801 336.71118736 C237.3197105 318.70931879 237.33000988 300.70745141 237.3333931 282.7055788 C237.33361266 281.55340164 237.33383223 280.40122448 237.33405845 279.21413286 C237.33427673 278.05919823 237.334495 276.90426361 237.3347199 275.71433097 C237.33516336 273.37399185 237.33560993 271.03365272 237.33605957 268.6933136 C237.336281 267.53242445 237.33650243 266.3715353 237.33673057 265.17546769 C237.34067858 246.36493133 237.35813279 227.55443371 237.38141909 208.74391232 C237.40513339 189.43179227 237.41759498 170.11969166 237.41876101 150.80755681 C237.41967773 139.96436814 237.42542909 129.12122995 237.44358063 118.27805519 C237.45898264 109.04481831 237.46410146 99.81164751 237.45584252 90.57840023 C237.45193641 85.86833207 237.4528638 81.15839697 237.46689987 76.44834518 C237.47964089 72.13337421 237.4784395 67.81863625 237.46630916 63.50366559 C237.46435252 61.94577172 237.46742909 60.38786133 237.47615352 58.82999066 C237.54121142 46.42381015 236.38010665 35.88679921 228.0958252 26.14717102 C219.1449106 17.81481556 209.34973432 15.98976105 197.5007782 16.01345825 C196.6606411 16.0111927 195.82050399 16.00892714 194.95490819 16.00659293 C192.15315216 16.00028696 189.35144493 16.0010801 186.54968262 16.00190735 C184.53534381 15.99891374 182.52100557 15.99551074 180.50666809 15.99172974 C175.0437724 15.98290619 169.58089238 15.98055232 164.11799026 15.97991395 C160.70251729 15.97920253 157.28704829 15.97706645 153.87157631 15.97441673 C141.94917168 15.96516883 130.02677822 15.96108116 118.10437012 15.96186829 C107.00211504 15.96246897 95.89990856 15.95191761 84.79766577 15.93612462 C75.25604372 15.92303672 65.71443752 15.91768491 56.17280656 15.9183237 C50.47836333 15.91857831 44.78396331 15.91574723 39.08952904 15.90514565 C33.73217415 15.89544363 28.37490361 15.89539993 23.0175457 15.90266228 C21.05603156 15.90370549 19.09451211 15.90136091 17.13300705 15.89530182 C-5.08745231 15.67451079 -5.08745231 15.67451079 -23.2791748 27.45967102 Z " fill="#000000" transform="translate(152.9041748046875,15.852828979492188)"/>
<path d="M0 0 C5.94750142 5.52098737 10.28172509 12.38693855 11.15625 20.53515625 C11.57810346 32.14901255 9.4794603 40.91893291 1.375 49.75 C-5.42336914 55.8640694 -13.64668213 58.65743012 -22.7578125 58.78515625 C-31.2705664 58.2380984 -39.32684602 55.45405 -45.64453125 49.6015625 C-48.766197 46.00139324 -53.25 40.68311926 -53.25 35.75 C-97.84188593 44.03516839 -97.84188593 44.03516839 -131.6953125 72.171875 C-137.14882037 81.21538051 -138.23323876 90.27736387 -137.25 100.75 C-134.80733013 109.19661545 -129.32034487 114.77915963 -121.86328125 119.1484375 C-116.17247408 122.09657936 -110.23501423 124.47060096 -104.25 126.75 C-103.981875 126.0075 -103.71375 125.265 -103.4375 124.5 C-99.87630241 116.25301611 -93.32083193 112.03759412 -85.25 108.75 C-77.23716853 106.07905618 -67.06626668 106.84733826 -59.46484375 110.4140625 C-50.5693041 115.7796261 -44.33757608 123.15881426 -41.5625 133.25 C-41.16485781 136.4311375 -41.18721521 139.54797592 -41.25 142.75 C-40.53199219 142.86988281 -39.81398438 142.98976563 -39.07421875 143.11328125 C-25.92918107 146.07682363 -11.76922729 155.03019725 -4 166.0625 C2.28967813 176.27033828 4.66462652 185.70338967 2.125 197.703125 C-6.7462775 225.42586719 -38.41154204 241.51185172 -62.3984375 253.9609375 C-91.30268779 268.75 -91.30268779 268.75 -97.25 268.75 C-97.19199219 269.40484375 -97.13398438 270.0596875 -97.07421875 270.734375 C-96.63642266 279.59036456 -98.66190072 286.94465196 -104.01171875 294.109375 C-110.278199 300.87158087 -118.15726941 305.06572914 -127.35546875 305.953125 C-137.95038677 306.19165974 -147.04765923 302.58842791 -154.78125 295.30859375 C-161.45586471 287.84035107 -163.64615612 279.53127752 -163.52734375 269.72265625 C-162.7525968 261.41867842 -159.11739294 253.66920215 -153.25 247.75 C-143.59214437 239.9647627 -134.26861918 238.81914616 -122.25 239.75 C-115.02755711 241.3287277 -109.13419679 245.21093883 -104.25 250.75 C-104.25 251.41 -104.25 252.07 -104.25 252.75 C-78.7122272 242.77375863 -53.69445553 231.05323582 -32.25 213.75 C-31.43015625 213.10675781 -30.6103125 212.46351563 -29.765625 211.80078125 C-23.28984065 206.44413413 -17.93650826 199.80952479 -15.25 191.75 C-14.70969642 185.3744178 -15.49144892 181.00377848 -19.25 175.75 C-26.09875166 167.90780305 -36.86580658 161.29201368 -47.25 159.75 C-47.9925 160.78125 -48.735 161.8125 -49.5 162.875 C-54.74859763 169.0527752 -63.39762935 173.21609952 -71.4765625 173.953125 C-82.81368105 174.17469735 -90.75089647 170.88804223 -98.9375 163.15625 C-104.00605575 157.7835809 -107.25 151.17897557 -107.25 143.75 C-108.16265625 143.564375 -108.16265625 143.564375 -109.09375 143.375 C-125.29580835 139.56275098 -141.0994418 130.96307481 -150.25 116.75 C-156.83995815 104.45141549 -157.17395747 89.47865526 -153.5625 76.125 C-151.71576358 70.57835612 -149.53675651 65.58711335 -146.25 60.75 C-145.45529297 59.57050781 -145.45529297 59.57050781 -144.64453125 58.3671875 C-125.49937003 32.32323684 -90.74549505 24.28353874 -60.70996094 19.08203125 C-58.25 18.75 -58.25 18.75 -54.25 18.75 C-54.20875 17.96625 -54.1675 17.1825 -54.125 16.375 C-51.88243504 7.08437374 -46.21244846 0.74741083 -38.25 -4.25 C-25.68482636 -11.17106109 -10.86632074 -8.87956806 0 0 Z " fill="#000000" transform="translate(332.25,123.25)"/>
<path d="M0 0 C0.73619064 -0.00570007 1.47238129 -0.01140015 2.23088074 -0.01727295 C3.78842741 -0.02671256 5.34599395 -0.03325281 6.90356445 -0.03710938 C9.27395961 -0.04679731 11.64348078 -0.07782175 14.01367188 -0.109375 C15.52994279 -0.11590741 17.04621988 -0.12115695 18.5625 -0.125 C19.26582962 -0.1373468 19.96915924 -0.1496936 20.69380188 -0.16241455 C25.35028664 -0.14157469 28.53190225 0.73569331 32.48046875 3.203125 C34.04518108 6.33254965 34.17748833 9.81394723 33.48046875 13.203125 C31.8243288 15.57424683 30.50141868 16.99855904 27.59931946 17.58004761 C25.21777395 17.73361187 22.86691379 17.75733037 20.48046875 17.734375 C19.60777344 17.7382019 18.73507812 17.74202881 17.8359375 17.74597168 C15.99347783 17.7486899 14.15097951 17.74133494 12.30859375 17.72460938 C9.49000941 17.70319748 6.6739739 17.72441301 3.85546875 17.75 C2.06379646 17.74735671 0.27212576 17.74223169 -1.51953125 17.734375 C-2.36128906 17.74247192 -3.20304688 17.75056885 -4.0703125 17.75891113 C-9.90668743 17.66547899 -9.90668743 17.66547899 -13.04882812 15.29492188 C-15.09088491 12.39048255 -15.08752424 10.55543005 -14.9140625 7.10546875 C-14.30565018 4.17183705 -12.90806611 2.90922133 -10.51953125 1.203125 C-6.96197037 0.01727137 -3.70440321 0.02219229 0 0 Z " fill="#000000" transform="translate(246.51953125,42.796875)"/>
</svg>
