<?xml version="1.0" encoding="UTF-8"?>
<svg version="1.1" xmlns="http://www.w3.org/2000/svg" width="512" height="512">
<path d="M0 0 C145.2 0 290.4 0 440 0 C440 114.18 440 228.36 440 346 C294.8 346 149.6 346 0 346 C0 231.82 0 117.64 0 0 Z M101 23 C100.69468098 25.04587675 100.69468098 25.04587675 100.74121094 27.41796875 C100.73490662 28.33231689 100.72860229 29.24666504 100.72210693 30.1887207 C100.7261554 31.17831787 100.73020386 32.16791504 100.734375 33.1875 C100.73246155 34.20094482 100.7305481 35.21438965 100.72857666 36.25854492 C100.72721409 38.40381112 100.73091553 40.54908553 100.73925781 42.69433594 C100.74995618 45.98651572 100.73936481 49.27814978 100.7265625 52.5703125 C100.72788408 54.65104288 100.73044645 56.73177291 100.734375 58.8125 C100.73032654 59.80209717 100.72627808 60.79169434 100.72210693 61.8112793 C100.72841125 62.72562744 100.73471558 63.63997559 100.74121094 64.58203125 C100.74280212 65.38874268 100.74439331 66.1954541 100.74603271 67.02661133 C100.8256875 69.23306436 100.8256875 69.23306436 103 71 C106.0665059 71.19814901 109.04284251 71.2691192 112.1105957 71.25396729 C113.06644467 71.25708727 114.02229364 71.26020725 115.00710773 71.26342177 C118.23006048 71.27143894 121.45282689 71.26506368 124.67578125 71.25878906 C126.97822175 71.26149727 129.28066138 71.26505724 131.58309937 71.26940918 C137.85153182 71.27855566 144.11989871 71.27497964 150.38833237 71.26865101 C156.93507825 71.26360267 163.48181836 71.2682792 170.02856445 71.27142334 C181.72978788 71.27570058 193.43098363 71.26906785 205.13220227 71.25890467 C215.7492825 71.24996873 226.366319 71.25152064 236.98339844 71.26074219 C249.30209098 71.27143662 261.62075562 71.27543384 273.93945217 71.26951766 C280.46425362 71.26639263 286.98902492 71.26600318 293.51382446 71.27259064 C299.64672483 71.27834944 305.77954226 71.27439416 311.91243362 71.26280212 C314.16917406 71.26014767 316.42592143 71.26093392 318.68265915 71.26532745 C321.75166985 71.27075346 324.820411 71.26398477 327.8894043 71.25396729 C329.24434227 71.26065945 329.24434227 71.26065945 330.62665272 71.26748681 C335.29527477 71.46333534 335.29527477 71.46333534 339 69 C339.30531902 66.95412325 339.30531902 66.95412325 339.25878906 64.58203125 C339.26824554 63.21050903 339.26824554 63.21050903 339.27789307 61.8112793 C339.2738446 60.82168213 339.26979614 59.83208496 339.265625 58.8125 C339.26849518 57.29233276 339.26849518 57.29233276 339.27142334 55.74145508 C339.27278591 53.59618888 339.26908447 51.45091447 339.26074219 49.30566406 C339.25004382 46.01348428 339.26063519 42.72185022 339.2734375 39.4296875 C339.27211592 37.34895712 339.26955355 35.26822709 339.265625 33.1875 C339.27169769 31.70310425 339.27169769 31.70310425 339.27789307 30.1887207 C339.27158875 29.27437256 339.26528442 28.36002441 339.25878906 27.41796875 C339.25719788 26.61125732 339.25560669 25.8045459 339.25396729 24.97338867 C339.1743125 22.76693564 339.1743125 22.76693564 337 21 C333.9334941 20.80185099 330.95715749 20.7308808 327.8894043 20.74603271 C326.93355533 20.74291273 325.97770636 20.73979275 324.99289227 20.73657823 C321.76993952 20.72856106 318.54717311 20.73493632 315.32421875 20.74121094 C313.02177825 20.73850273 310.71933862 20.73494276 308.41690063 20.73059082 C302.14846818 20.72144434 295.88010129 20.72502036 289.61166763 20.73134899 C283.06492175 20.73639733 276.51818164 20.7317208 269.97143555 20.72857666 C258.27021212 20.72429942 246.56901637 20.73093215 234.86779773 20.74109533 C224.2507175 20.75003127 213.633681 20.74847936 203.01660156 20.73925781 C190.69790902 20.72856338 178.37924438 20.72456616 166.06054783 20.73048234 C159.53574638 20.73360737 153.01097508 20.73399682 146.48617554 20.72740936 C140.35327517 20.72165056 134.22045774 20.72560584 128.08756638 20.73719788 C125.83082594 20.73985233 123.57407857 20.73906608 121.31734085 20.73467255 C118.24833015 20.72924654 115.179589 20.73601523 112.1105957 20.74603271 C110.75565773 20.73934055 110.75565773 20.73934055 109.37334728 20.73251319 C104.70472523 20.53666466 104.70472523 20.53666466 101 23 Z M31 103 C30.80099295 106.09324202 30.72738418 109.09699774 30.74121094 112.19140625 C30.7377063 113.14433563 30.73420166 114.09726501 30.73059082 115.07907104 C30.72176247 118.24028735 30.72762658 121.40128127 30.734375 124.5625 C30.73302867 126.75203494 30.7310884 128.9415696 30.72857666 131.13110352 C30.7256239 135.72447551 30.72992795 140.31776983 30.73925781 144.91113281 C30.75065239 150.80965863 30.74409374 156.70800247 30.73211288 162.60652161 C30.7248984 167.12912374 30.72718032 171.65168247 30.73236847 176.17428589 C30.73370611 178.3496808 30.73205329 180.52507961 30.72740936 182.70046997 C30.72235091 185.73661798 30.73004482 188.77246803 30.74121094 191.80859375 C30.73716248 192.71463348 30.73311401 193.62067322 30.72894287 194.5541687 C30.52937657 199.26064756 30.52937657 199.26064756 33 203 C35.92227714 203.30580428 35.92227714 203.30580428 39.41516113 203.25396729 C40.08107789 203.25708727 40.74699464 203.26020725 41.43309069 203.26342177 C43.67488364 203.27142883 45.91640793 203.26506776 48.15820312 203.25878906 C49.76114562 203.26149773 51.36408688 203.26505796 52.96702576 203.26940918 C57.32850364 203.27855027 61.68988721 203.27498187 66.05136681 203.26865101 C70.60818111 203.26359989 75.16498715 203.26827998 79.72180176 203.27142334 C87.37525894 203.27506559 95.02867757 203.27025712 102.68212891 203.26074219 C111.54013486 203.24985714 120.39804877 203.25338254 129.25605249 203.264395 C136.8509737 203.27346053 144.44586713 203.27475676 152.04079199 203.26951766 C156.58145501 203.26639391 161.12207472 203.26599969 165.66273499 203.27259064 C169.93084603 203.27835282 174.19883798 203.27438799 178.46693611 203.26280212 C180.03672653 203.26014948 181.6065269 203.26093088 183.1763134 203.26532745 C185.31262553 203.27076069 187.4485516 203.26397631 189.58483887 203.25396729 C191.38120411 203.25283621 191.38120411 203.25283621 193.21385956 203.25168228 C196.13980607 203.28727576 196.13980607 203.28727576 198 201 C198.19900705 197.90675798 198.27261582 194.90300226 198.25878906 191.80859375 C198.2622937 190.85566437 198.26579834 189.90273499 198.26940918 188.92092896 C198.27823753 185.75971265 198.27237342 182.59871873 198.265625 179.4375 C198.26697133 177.24796506 198.2689116 175.0584304 198.27142334 172.86889648 C198.2743761 168.27552449 198.27007205 163.68223017 198.26074219 159.08886719 C198.24934761 153.19034137 198.25590626 147.29199753 198.26788712 141.39347839 C198.2751016 136.87087626 198.27281968 132.34831753 198.26763153 127.82571411 C198.26629389 125.6503192 198.26794671 123.47492039 198.27259064 121.29953003 C198.27764909 118.26338202 198.26995518 115.22753197 198.25878906 112.19140625 C198.26486176 110.83234665 198.26486176 110.83234665 198.27105713 109.4458313 C198.47062343 104.73935244 198.47062343 104.73935244 196 101 C193.07772286 100.69419572 193.07772286 100.69419572 189.58483887 100.74603271 C188.91892211 100.74291273 188.25300536 100.73979275 187.56690931 100.73657823 C185.32511636 100.72857117 183.08359207 100.73493224 180.84179688 100.74121094 C179.23885438 100.73850227 177.63591312 100.73494204 176.03297424 100.73059082 C171.67149636 100.72144973 167.31011279 100.72501813 162.94863319 100.73134899 C158.39181889 100.73640011 153.83501285 100.73172002 149.27819824 100.72857666 C141.62474106 100.72493441 133.97132243 100.72974288 126.31787109 100.73925781 C117.45986514 100.75014286 108.60195123 100.74661746 99.74394751 100.735605 C92.1490263 100.72653947 84.55413287 100.72524324 76.95920801 100.73048234 C72.41854499 100.73360609 67.87792528 100.73400031 63.33726501 100.72740936 C59.06915397 100.72164718 54.80116202 100.72561201 50.53306389 100.73719788 C48.96327347 100.73985052 47.3934731 100.73906912 45.8236866 100.73467255 C43.68737447 100.72923931 41.5514484 100.73602369 39.41516113 100.74603271 C37.61879589 100.74716379 37.61879589 100.74716379 35.78614044 100.74831772 C32.86019393 100.71272424 32.86019393 100.71272424 31 103 Z M242 103 C241.80099295 106.09324202 241.72738418 109.09699774 241.74121094 112.19140625 C241.7377063 113.14433563 241.73420166 114.09726501 241.73059082 115.07907104 C241.72176247 118.24028735 241.72762658 121.40128127 241.734375 124.5625 C241.73302867 126.75203494 241.7310884 128.9415696 241.72857666 131.13110352 C241.7256239 135.72447551 241.72992795 140.31776983 241.73925781 144.91113281 C241.75065239 150.80965863 241.74409374 156.70800247 241.73211288 162.60652161 C241.7248984 167.12912374 241.72718032 171.65168247 241.73236847 176.17428589 C241.73370611 178.3496808 241.73205329 180.52507961 241.72740936 182.70046997 C241.72235091 185.73661798 241.73004482 188.77246803 241.74121094 191.80859375 C241.73716248 192.71463348 241.73311401 193.62067322 241.72894287 194.5541687 C241.52937657 199.26064756 241.52937657 199.26064756 244 203 C246.92227714 203.30580428 246.92227714 203.30580428 250.41516113 203.25396729 C251.08107789 203.25708727 251.74699464 203.26020725 252.43309069 203.26342177 C254.67488364 203.27142883 256.91640793 203.26506776 259.15820312 203.25878906 C260.76114562 203.26149773 262.36408688 203.26505796 263.96702576 203.26940918 C268.32850364 203.27855027 272.68988721 203.27498187 277.05136681 203.26865101 C281.60818111 203.26359989 286.16498715 203.26827998 290.72180176 203.27142334 C298.37525894 203.27506559 306.02867757 203.27025712 313.68212891 203.26074219 C322.54013486 203.24985714 331.39804877 203.25338254 340.25605249 203.264395 C347.8509737 203.27346053 355.44586713 203.27475676 363.04079199 203.26951766 C367.58145501 203.26639391 372.12207472 203.26599969 376.66273499 203.27259064 C380.93084603 203.27835282 385.19883798 203.27438799 389.46693611 203.26280212 C391.03672653 203.26014948 392.6065269 203.26093088 394.1763134 203.26532745 C396.31262553 203.27076069 398.4485516 203.26397631 400.58483887 203.25396729 C402.38120411 203.25283621 402.38120411 203.25283621 404.21385956 203.25168228 C407.13980607 203.28727576 407.13980607 203.28727576 409 201 C409.19900705 197.90675798 409.27261582 194.90300226 409.25878906 191.80859375 C409.2622937 190.85566437 409.26579834 189.90273499 409.26940918 188.92092896 C409.27823753 185.75971265 409.27237342 182.59871873 409.265625 179.4375 C409.26697133 177.24796506 409.2689116 175.0584304 409.27142334 172.86889648 C409.2743761 168.27552449 409.27007205 163.68223017 409.26074219 159.08886719 C409.24934761 153.19034137 409.25590626 147.29199753 409.26788712 141.39347839 C409.2751016 136.87087626 409.27281968 132.34831753 409.26763153 127.82571411 C409.26629389 125.6503192 409.26794671 123.47492039 409.27259064 121.29953003 C409.27764909 118.26338202 409.26995518 115.22753197 409.25878906 112.19140625 C409.26486176 110.83234665 409.26486176 110.83234665 409.27105713 109.4458313 C409.47062343 104.73935244 409.47062343 104.73935244 407 101 C404.07772286 100.69419572 404.07772286 100.69419572 400.58483887 100.74603271 C399.91892211 100.74291273 399.25300536 100.73979275 398.56690931 100.73657823 C396.32511636 100.72857117 394.08359207 100.73493224 391.84179688 100.74121094 C390.23885438 100.73850227 388.63591312 100.73494204 387.03297424 100.73059082 C382.67149636 100.72144973 378.31011279 100.72501813 373.94863319 100.73134899 C369.39181889 100.73640011 364.83501285 100.73172002 360.27819824 100.72857666 C352.62474106 100.72493441 344.97132243 100.72974288 337.31787109 100.73925781 C328.45986514 100.75014286 319.60195123 100.74661746 310.74394751 100.735605 C303.1490263 100.72653947 295.55413287 100.72524324 287.95920801 100.73048234 C283.41854499 100.73360609 278.87792528 100.73400031 274.33726501 100.72740936 C270.06915397 100.72164718 265.80116202 100.72561201 261.53306389 100.73719788 C259.96327347 100.73985052 258.3934731 100.73906912 256.8236866 100.73467255 C254.68737447 100.72923931 252.5514484 100.73602369 250.41516113 100.74603271 C248.61879589 100.74716379 248.61879589 100.74716379 246.78614044 100.74831772 C243.86019393 100.71272424 243.86019393 100.71272424 242 103 Z M40 233 C39.34 234.65 38.68 236.3 38 238 C40.16248636 240.61513774 41.35310304 241.88139842 44.7455368 242.50336456 C46.33613293 242.50562672 46.33613293 242.50562672 47.9588623 242.50793457 C49.17863266 242.51921387 50.39840302 242.53049316 51.65513611 242.54211426 C53.00381707 242.53433732 54.35249569 242.52614466 55.70117188 242.51757812 C57.12383236 242.52299923 58.54648723 242.53012183 59.96913147 242.53881836 C63.83075024 242.55705638 67.69194163 242.54998247 71.55356789 242.53730202 C75.59427672 242.52717672 79.63494891 242.53656638 83.67565918 242.54284668 C90.46141125 242.55012448 97.2469892 242.540532 104.03271484 242.52148438 C111.87859091 242.49971526 119.72405121 242.50676655 127.5699172 242.52879 C134.3054973 242.54694031 141.04095221 242.54950416 147.77654886 242.53903532 C151.79974591 242.53279831 155.82274751 242.53197031 159.84593201 242.54518127 C163.62833054 242.55673393 167.4101929 242.54872544 171.19253349 242.52560425 C172.58087206 242.52031393 173.96925573 242.52183656 175.35757637 242.53065491 C177.25208045 242.54157924 179.14668311 242.52545272 181.0411377 242.50793457 C182.10153511 242.50642647 183.16193253 242.50491837 184.2544632 242.50336456 C187.64689696 241.88139842 188.83751364 240.61513774 191 238 C190.01 235.525 190.01 235.525 189 233 C139.83 233 90.66 233 40 233 Z M251 233 C250.34 234.65 249.68 236.3 249 238 C251.16248636 240.61513774 252.35310304 241.88139842 255.7455368 242.50336456 C257.33613293 242.50562672 257.33613293 242.50562672 258.9588623 242.50793457 C260.17863266 242.51921387 261.39840302 242.53049316 262.65513611 242.54211426 C264.00381707 242.53433732 265.35249569 242.52614466 266.70117188 242.51757812 C268.12383236 242.52299923 269.54648723 242.53012183 270.96913147 242.53881836 C274.83075024 242.55705638 278.69194163 242.54998247 282.55356789 242.53730202 C286.59427672 242.52717672 290.63494891 242.53656638 294.67565918 242.54284668 C301.46141125 242.55012448 308.2469892 242.540532 315.03271484 242.52148438 C322.87859091 242.49971526 330.72405121 242.50676655 338.5699172 242.52879 C345.3054973 242.54694031 352.04095221 242.54950416 358.77654886 242.53903532 C362.79974591 242.53279831 366.82274751 242.53197031 370.84593201 242.54518127 C374.62833054 242.55673393 378.4101929 242.54872544 382.19253349 242.52560425 C383.58087206 242.52031393 384.96925573 242.52183656 386.35757637 242.53065491 C388.25208045 242.54157924 390.14668311 242.52545272 392.0411377 242.50793457 C393.10153511 242.50642647 394.16193253 242.50491837 395.2544632 242.50336456 C398.64689696 241.88139842 399.83751364 240.61513774 402 238 C401.01 235.525 401.01 235.525 400 233 C350.83 233 301.66 233 251 233 Z M39.12992096 276.53926182 C38.75704704 277.35130542 38.38417313 278.16334902 38 279 C39.10302177 281.08870125 39.10302177 281.08870125 41 283 C43.74031134 283.60682627 43.74031134 283.60682627 46.92126465 283.5146637 C48.77626839 283.53375038 48.77626839 283.53375038 50.66874695 283.55322266 C52.04153633 283.54704006 53.41432385 283.540434 54.78710938 283.53344727 C56.23095076 283.5405035 57.67478474 283.54924727 59.11860657 283.55955505 C63.04217975 283.58209128 66.96535037 283.57909983 70.8889637 283.57023358 C74.16203674 283.56513043 77.43503368 283.57241066 80.70809889 283.57970566 C88.42769975 283.59671775 96.14710299 283.59312532 103.86669922 283.57641602 C111.8370349 283.55948737 119.80682323 283.57533611 127.77709913 283.6076389 C134.61540776 283.63430637 141.4535457 283.64161872 148.29190111 283.63312382 C152.37829262 283.62818692 156.4643546 283.63045105 160.55070496 283.65091133 C164.39226242 283.6692246 168.23303027 283.66336446 172.07454491 283.63871193 C173.48588349 283.63369027 174.89728178 283.63722898 176.30857277 283.64986038 C178.23190851 283.66571547 180.15543494 283.64786886 182.07873535 283.62818909 C183.15610207 283.62760278 184.23346878 283.62701647 185.34348297 283.62641239 C188.24181213 283.24565365 188.24181213 283.24565365 189.87007904 280.46073818 C190.24295296 279.64869458 190.61582687 278.83665098 191 278 C189.89697823 275.91129875 189.89697823 275.91129875 188 274 C185.25968866 273.39317373 185.25968866 273.39317373 182.07873535 273.4853363 C180.84206619 273.47261185 179.60539703 273.45988739 178.33125305 273.44677734 C176.95846367 273.45295994 175.58567615 273.459566 174.21289062 273.46655273 C172.76904924 273.4594965 171.32521526 273.45075273 169.88139343 273.44044495 C165.95782025 273.41790872 162.03464963 273.42090017 158.1110363 273.42976642 C154.83796326 273.43486957 151.56496632 273.42758934 148.29190111 273.42029434 C140.57230025 273.40328225 132.85289701 273.40687468 125.13330078 273.42358398 C117.1629651 273.44051263 109.19317677 273.42466389 101.22290087 273.3923611 C94.38459224 273.36569363 87.5464543 273.35838128 80.70809889 273.36687618 C76.62170738 273.37181308 72.5356454 273.36954895 68.44929504 273.34908867 C64.60773758 273.3307754 60.76696973 273.33663554 56.92545509 273.36128807 C55.51411651 273.36630973 54.10271822 273.36277102 52.69142723 273.35013962 C50.76809149 273.33428453 48.84456506 273.35213114 46.92126465 273.37181091 C45.30521458 273.37269038 45.30521458 273.37269038 43.65651703 273.37358761 C40.75818787 273.75434635 40.75818787 273.75434635 39.12992096 276.53926182 Z M250.12907982 276.53800011 C249.57018531 277.75669005 249.57018531 277.75669005 249 279 C250.10275701 281.08945861 250.10275701 281.08945861 252 283 C254.740687 283.60124074 254.740687 283.60124074 257.92126465 283.50120544 C259.15793381 283.51103958 260.39460297 283.52087372 261.66874695 283.53100586 C263.04153717 283.52163357 264.41432465 283.51185424 265.78710938 283.50170898 C267.23094713 283.50549145 268.67478127 283.51099089 270.11860657 283.51808167 C274.04221274 283.53206335 277.96538173 283.52084781 281.8889637 283.50437045 C285.99153121 283.49053799 290.09407287 283.49697796 294.19665527 283.50050354 C301.08674175 283.5032071 307.97665416 283.48971762 314.86669922 283.46655273 C322.83691982 283.439942 330.80684934 283.43819531 338.77709913 283.4499411 C346.43858032 283.46071371 354.09995603 283.45453591 361.76142883 283.44038582 C365.02454618 283.43462149 368.28758646 283.43471218 371.55070496 283.43945122 C375.39211168 283.44421738 379.23319897 283.43413465 383.07454491 283.41249657 C384.48587657 283.40692354 385.8972389 283.40646814 387.30857277 283.41144943 C389.23196745 283.41738757 391.15539319 283.40308433 393.07873535 283.38768005 C394.15610207 283.38525016 395.23346878 283.38282026 396.34348297 283.38031673 C399.31243854 282.95527015 400.2063928 282.34259898 402 280 C400.91215032 276.75016865 400.91215032 276.75016865 399 274 C397.1087729 273.89249791 395.21349911 273.85588048 393.31924438 273.84609985 C392.08532455 273.83749939 390.85140472 273.82889893 389.58009338 273.82003784 C388.20004314 273.81560225 386.81999246 273.81130392 385.43994141 273.80712891 C383.99640198 273.79923128 382.55286455 273.79096255 381.10932922 273.78234863 C376.3567596 273.75609134 371.60418099 273.74081832 366.8515625 273.7265625 C365.21810271 273.72120453 363.58464298 273.71582703 361.95118332 273.71043015 C355.15881172 273.68879686 348.36644253 273.67005836 341.57404518 273.65880775 C331.82571349 273.64255717 322.07777971 273.60935807 312.32959807 273.55240691 C305.48287841 273.51376454 298.63626544 273.49418192 291.78943956 273.48888719 C287.69625435 273.48522611 283.60349315 273.47312558 279.51042557 273.44078445 C275.66076731 273.41080314 271.81179181 273.40435577 267.96204185 273.41616821 C266.54744999 273.41638978 265.13282735 273.40801578 263.71834373 273.39051437 C261.79060204 273.3679567 259.86255317 273.37906094 257.9347229 273.39199829 C256.85475855 273.38868814 255.7747942 273.385378 254.66210365 273.38196754 C251.75837294 273.75220774 251.75837294 273.75220774 250.12907982 276.53800011 Z M38 319 C39.11854586 322.72614153 39.11854586 322.72614153 42 325 C43.90400558 325.10224593 45.81161977 325.13950008 47.71835327 325.14717102 C49.54388481 325.15790398 49.54388481 325.15790398 51.40629578 325.16885376 C52.76223729 325.17169412 54.11817909 325.17440584 55.47412109 325.17700195 C56.89648098 325.18326566 58.31883923 325.18991237 59.74119568 325.19691467 C63.61105141 325.21433114 67.48089479 325.22487784 71.35078001 325.2331202 C73.76731933 325.23826822 76.18385479 325.24434399 78.60039139 325.25063133 C86.15771939 325.26968387 93.7150376 325.28391576 101.272385 325.2922433 C110.00277746 325.30202177 118.73291678 325.32835674 127.46322 325.36874419 C134.20721829 325.39887485 140.95114388 325.4137092 147.69520819 325.41702431 C151.72518678 325.419378 155.75489496 325.4283795 159.78480148 325.45348549 C163.57531547 325.47671867 167.36538008 325.48101896 171.15594673 325.47072411 C172.54753296 325.47022749 173.93914095 325.47658496 175.33065987 325.49028015 C177.22958461 325.50792436 179.12870335 325.49853199 181.02767944 325.48774719 C182.0906745 325.49013555 183.15366955 325.4925239 184.24887657 325.49498463 C187.68419951 324.8768982 188.89711553 323.73588248 191 321 C191.0146239 318.8064655 191.0146239 318.8064655 190 317 C187.30559465 315.65279732 185.21708742 315.8678841 182.19898987 315.85955811 C180.34604813 315.85099289 180.34604813 315.85099289 178.45567322 315.84225464 C177.07925425 315.84100923 175.70283517 315.83988415 174.32641602 315.83886719 C172.88272982 315.83423999 171.43904486 315.82921546 169.99536133 315.82382202 C166.06771811 315.81068808 162.14009199 315.80425134 158.21243024 315.79981136 C155.7603865 315.79688274 153.30834746 315.79277838 150.85630608 315.78830719 C143.18952028 315.77463074 135.52274519 315.76496434 127.85594803 315.7611053 C118.99598154 315.75662153 110.1361691 315.73905956 101.27624947 315.7101047 C94.43375281 315.68851644 87.59129959 315.67840258 80.74876922 315.67706418 C76.65907274 315.67601426 72.56952103 315.67006675 68.47986031 315.65224457 C64.63441241 315.63581269 60.78921888 315.63358438 56.94374847 315.64238358 C55.53078723 315.64315654 54.11781259 315.63877723 52.70488548 315.62892532 C50.77929604 315.61628393 48.85360523 315.62384575 46.92799377 315.63250732 C45.84932824 315.63104076 44.77066271 315.6295742 43.65931034 315.6280632 C40.68450407 316.04412593 39.79476759 316.65300777 38 319 Z M250.12950039 318.53800011 C249.75676526 319.35046007 249.38403013 320.16292004 249 321 C251.16248636 323.61513774 252.35310304 324.88139842 255.7455368 325.50336456 C257.33613293 325.50562672 257.33613293 325.50562672 258.9588623 325.50793457 C260.17863266 325.51921387 261.39840302 325.53049316 262.65513611 325.54211426 C264.00381707 325.53433732 265.35249569 325.52614466 266.70117188 325.51757812 C268.12383236 325.52299923 269.54648723 325.53012183 270.96913147 325.53881836 C274.83075024 325.55705638 278.69194163 325.54998247 282.55356789 325.53730202 C286.59427672 325.52717672 290.63494891 325.53656638 294.67565918 325.54284668 C301.46141125 325.55012448 308.2469892 325.540532 315.03271484 325.52148438 C322.87859091 325.49971526 330.72405121 325.50676655 338.5699172 325.52879 C345.3054973 325.54694031 352.04095221 325.54950416 358.77654886 325.53903532 C362.79974591 325.53279831 366.82274751 325.53197031 370.84593201 325.54518127 C374.62833054 325.55673393 378.4101929 325.54872544 382.19253349 325.52560425 C383.58087206 325.52031393 384.96925573 325.52183656 386.35757637 325.53065491 C388.25208045 325.54157924 390.14668311 325.52545272 392.0411377 325.50793457 C393.10153511 325.50642647 394.16193253 325.50491837 395.2544632 325.50336456 C398.6812965 324.87509163 399.89932538 323.72995186 402 321 C402.0146239 318.8064655 402.0146239 318.8064655 401 317 C398.3076422 315.6538211 396.21485693 315.86168503 393.19898987 315.84609985 C391.96369537 315.83749939 390.72840088 315.82889893 389.45567322 315.82003784 C388.07925457 315.81560255 386.70283548 315.81130419 385.32641602 315.80712891 C383.8827291 315.79922893 382.43904417 315.79096005 380.99536133 315.78234863 C376.24822884 315.7561233 371.50108749 315.74082366 366.75390625 315.7265625 C365.1213728 315.72120363 363.48883941 315.71582612 361.85630608 315.71043015 C355.0681831 315.68880349 348.28006251 315.67006459 341.4919138 315.65880775 C331.75317633 315.64255295 322.01483687 315.60933606 312.27624947 315.55240691 C305.4337559 315.51376587 298.59136907 315.49418221 291.74876922 315.48888719 C287.65895219 315.48522655 283.56955958 315.47313028 279.47986031 315.44078445 C275.63429247 315.41080471 271.7894081 315.40435519 267.94374847 315.41616821 C266.53076828 315.41638978 265.1177573 315.40801592 263.70488548 315.39051437 C261.77938698 315.3679568 259.85358095 315.37906091 257.92799377 315.39199829 C256.84932824 315.38868814 255.77066271 315.385378 254.65931034 315.38196754 C251.75813255 315.75265279 251.75813255 315.75265279 250.12950039 318.53800011 Z " fill="#474747" transform="translate(36,120)"/>
<path d="M0 0 C145.2 0 290.4 0 440 0 C440 21.45 440 42.9 440 65 C294.8 65 149.6 65 0 65 C0 43.55 0 22.1 0 0 Z M232.99584961 29.39379883 C231.78960013 30.97967407 231.78960013 30.97967407 232.1875 33.0625 C232.93470336 35.18712526 232.93470336 35.18712526 235 37 C237.5459607 37.19962411 239.98075936 37.27986548 242.52734375 37.265625 C243.64442467 37.26849518 243.64442467 37.26849518 244.78407288 37.27142334 C246.36020241 37.27278514 247.93634315 37.26908903 249.51245117 37.26074219 C251.92457334 37.25005726 254.33594818 37.26062946 256.74804688 37.2734375 C258.27864748 37.27211561 259.80924762 37.2695526 261.33984375 37.265625 C262.42276955 37.27169769 262.42276955 37.27169769 263.52757263 37.27789307 C267.23517669 37.24321486 268.83216348 37.11189101 272 35 C272.41666667 32.5 272.41666667 32.5 272 30 C269.491779 27.491779 267.93846057 27.74370233 264.51405334 27.69645691 C263.7682048 27.69736832 263.02235626 27.69827972 262.25390625 27.69921875 C261.10353127 27.69279106 261.10353127 27.69279106 259.92991638 27.68623352 C258.30672188 27.68048677 256.68350162 27.67999251 255.06030273 27.68432617 C252.57556206 27.6874834 250.09201498 27.66404246 247.60742188 27.63867188 C246.0312515 27.63639864 244.45507793 27.6356955 242.87890625 27.63671875 C242.13508194 27.627509 241.39125763 27.61829926 240.62489319 27.60881042 C236.5622543 27.6371625 236.5622543 27.6371625 232.99584961 29.39379883 Z M301 30 C300.58333333 32.5 300.58333333 32.5 301 35 C303.508221 37.508221 305.06153943 37.25629767 308.48594666 37.30354309 C309.2317952 37.30263168 309.97764374 37.30172028 310.74609375 37.30078125 C311.89646873 37.30720894 311.89646873 37.30720894 313.07008362 37.31376648 C314.69327812 37.31951323 316.31649838 37.32000749 317.93969727 37.31567383 C320.42443794 37.3125166 322.90798502 37.33595754 325.39257812 37.36132812 C326.9687485 37.36360136 328.54492207 37.3643045 330.12109375 37.36328125 C330.86491806 37.372491 331.60874237 37.38170074 332.37510681 37.39118958 C336.4377457 37.3628375 336.4377457 37.3628375 340.00415039 35.60620117 C341.21039987 34.02032593 341.21039987 34.02032593 340.8125 31.9375 C340.06529664 29.81287474 340.06529664 29.81287474 338 28 C335.4540393 27.80037589 333.01924064 27.72013452 330.47265625 27.734375 C329.72793564 27.73246155 328.98321503 27.7305481 328.21592712 27.72857666 C326.63979759 27.72721486 325.06365685 27.73091097 323.48754883 27.73925781 C321.07542666 27.74994274 318.66405182 27.73937054 316.25195312 27.7265625 C314.72135252 27.72788439 313.19075238 27.7304474 311.66015625 27.734375 C310.93820572 27.73032654 310.21625519 27.72627808 309.47242737 27.72210693 C305.76482331 27.75678514 304.16783652 27.88810899 301 30 Z M370.00952148 29.35644531 C368.74753215 31.05308662 368.74753215 31.05308662 369.1875 33.625 C369.74644234 36.16552003 369.74644234 36.16552003 372 37 C374.60273432 37.11093316 377.17791366 37.16410078 379.78125 37.16796875 C380.55053833 37.17129715 381.31982666 37.17462555 382.11242676 37.17805481 C383.73982138 37.18312004 385.3672264 37.18546326 386.99462891 37.18530273 C389.49008175 37.1874913 391.98509405 37.20565654 394.48046875 37.22460938 C396.05989432 37.22754291 397.63932199 37.22952797 399.21875 37.23046875 C400.34222839 37.24124702 400.34222839 37.24124702 401.48840332 37.25224304 C405.70311722 37.37904342 405.70311722 37.37904342 409 35 C408.83557723 31.93008319 408.83557723 31.93008319 408 29 C404.96510104 27.48255052 401.80324014 27.8164262 398.47265625 27.796875 C397.72793564 27.79117493 396.98321503 27.78547485 396.21592712 27.77960205 C394.63981549 27.77015209 393.06368409 27.76361808 391.48754883 27.75976562 C389.07533397 27.75005168 386.66396823 27.71902639 384.25195312 27.6875 C382.72135923 27.68097068 381.19075924 27.67571993 379.66015625 27.671875 C378.93820572 27.6595282 378.21625519 27.6471814 377.47242737 27.63446045 C374.51847098 27.64761298 372.49154412 27.66502893 370.00952148 29.35644531 Z " fill="#7A7A7A" transform="translate(36,46)"/>
<path d="M0 0 C72.6 0 145.2 0 220 0 C220 10.56 220 21.12 220 32 C147.4 32 74.8 32 0 32 C0 21.44 0 10.88 0 0 Z " fill="#7B7B7B" transform="translate(146,150)"/>
<path d="M0 0 C12.39103139 6.75874439 12.39103139 6.75874439 17.5390625 9.77734375 C18.10014206 10.10585327 18.66122162 10.43436279 19.23930359 10.77282715 C21.03576864 11.82563477 22.83059485 12.88118576 24.625 13.9375 C25.55329117 14.48351364 25.55329117 14.48351364 26.50033569 15.04055786 C29.71738883 16.93334491 32.93290096 18.8287174 36.14697266 20.7265625 C38.68891006 22.22740133 41.23286035 23.72472545 43.77880859 25.21875 C47.2953325 27.28279286 50.80432815 29.35929227 54.3125 31.4375 C55.39160645 32.06970459 56.47071289 32.70190918 57.58251953 33.35327148 C58.5620459 33.93665283 59.54157227 34.52003418 60.55078125 35.12109375 C61.84495972 35.88570923 61.84495972 35.88570923 63.1652832 36.66577148 C63.77073975 37.10606689 64.37619629 37.5463623 65 38 C65 38.66 65 39.32 65 40 C63.40893555 41.16650391 63.40893555 41.16650391 61.13671875 42.4765625 C60.28279541 42.97446289 59.42887207 43.47236328 58.54907227 43.98535156 C57.60475342 44.52643555 56.66043457 45.06751953 55.6875 45.625 C53.66900442 46.79902124 51.65078793 47.97352242 49.6328125 49.1484375 C48.55676758 49.77202148 47.48072266 50.39560547 46.37207031 51.03808594 C41.16513173 54.06755006 35.98464676 57.14120938 30.80453491 60.21624756 C29.06991347 61.24560072 27.33450364 62.27361241 25.59887695 63.30126953 C18.72795233 67.37193257 11.86631083 71.45734705 5.04711914 75.61425781 C1.10755234 78 1.10755234 78 0 78 C0 52.26 0 26.52 0 0 Z " fill="#7A7A7A" transform="translate(287,233)"/>
<path d="M0 0 C0 25.74 0 51.48 0 78 C-12.39103139 71.24125561 -12.39103139 71.24125561 -17.5390625 68.22265625 C-18.38068184 67.72989197 -18.38068184 67.72989197 -19.23930359 67.22717285 C-21.03576864 66.17436523 -22.83059485 65.11881424 -24.625 64.0625 C-25.24386078 63.69849091 -25.86272156 63.33448181 -26.50033569 62.95944214 C-29.71738883 61.06665509 -32.93290096 59.1712826 -36.14697266 57.2734375 C-38.68891006 55.77259867 -41.23286035 54.27527455 -43.77880859 52.78125 C-47.2953325 50.71720714 -50.80432815 48.64070773 -54.3125 46.5625 C-55.39160645 45.93029541 -56.47071289 45.29809082 -57.58251953 44.64672852 C-58.5620459 44.06334717 -59.54157227 43.47996582 -60.55078125 42.87890625 C-61.84495972 42.11429077 -61.84495972 42.11429077 -63.1652832 41.33422852 C-63.77073975 40.89393311 -64.37619629 40.4536377 -65 40 C-65 39.34 -65 38.68 -65 38 C-63.32958984 36.78588867 -63.32958984 36.78588867 -60.9609375 35.41796875 C-60.08163574 34.90484131 -59.20233398 34.39171387 -58.29638672 33.86303711 C-57.3323291 33.31010986 -56.36827148 32.75718262 -55.375 32.1875 C-53.34364987 31.00538038 -51.31240268 29.82308385 -49.28125 28.640625 C-48.23582031 28.03541016 -47.19039062 27.43019531 -46.11328125 26.80664062 C-41.35151539 24.04338252 -36.61314378 21.24100451 -31.875 18.4375 C-30.97934326 17.90898437 -30.08368652 17.38046875 -29.16088867 16.8359375 C-24.49780051 14.08183123 -19.84562724 11.31080656 -15.20703125 8.515625 C-14.27971191 7.95689697 -13.35239258 7.39816895 -12.39697266 6.82250977 C-10.62324936 5.75217052 -8.85073857 4.67981877 -7.07958984 3.60522461 C-6.29406738 3.13093018 -5.50854492 2.65663574 -4.69921875 2.16796875 C-4.00658936 1.74797607 -3.31395996 1.3279834 -2.6003418 0.89526367 C-1 0 -1 0 0 0 Z " fill="#7A7A7A" transform="translate(225,233)"/>
<path d="M0 0 C12.39103139 6.75874439 12.39103139 6.75874439 17.5390625 9.77734375 C18.10014206 10.10585327 18.66122162 10.43436279 19.23930359 10.77282715 C21.03576864 11.82563477 22.83059485 12.88118576 24.625 13.9375 C25.55329117 14.48351364 25.55329117 14.48351364 26.50033569 15.04055786 C29.71738883 16.93334491 32.93290096 18.8287174 36.14697266 20.7265625 C38.68891006 22.22740133 41.23286035 23.72472545 43.77880859 25.21875 C47.2953325 27.28279286 50.80432815 29.35929227 54.3125 31.4375 C55.39160645 32.06970459 56.47071289 32.70190918 57.58251953 33.35327148 C58.5620459 33.93665283 59.54157227 34.52003418 60.55078125 35.12109375 C61.84495972 35.88570923 61.84495972 35.88570923 63.1652832 36.66577148 C63.77073975 37.10606689 64.37619629 37.5463623 65 38 C65 38.66 65 39.32 65 40 C63.11354765 41.27999088 61.1593127 42.46028483 59.18359375 43.59765625 C58.58051392 43.94777771 57.97743408 44.29789917 57.3560791 44.65863037 C55.38702495 45.7999803 53.41228101 46.93109305 51.4375 48.0625 C50.08553046 48.84445237 48.73404901 49.62724923 47.38305664 50.41088867 C44.74642393 51.93989704 42.10822255 53.46613417 39.46875 54.99023438 C35.60198935 57.22640207 31.76027673 59.50196302 27.9375 61.8125 C26.85082031 62.46734375 25.76414062 63.1221875 24.64453125 63.796875 C23.42958797 64.53108533 22.21475704 65.26548158 21 66 C17.37670639 68.19034078 13.75131045 70.37715823 10.125 72.5625 C9.23675537 73.10044189 8.34851074 73.63838379 7.43334961 74.19262695 C6.20177124 74.93452271 6.20177124 74.93452271 4.9453125 75.69140625 C4.20812988 76.13685791 3.47094727 76.58230957 2.71142578 77.04125977 C1 78 1 78 0 78 C0 52.26 0 26.52 0 0 Z " fill="#7A7A7A" transform="translate(76,233)"/>
<path d="M0 0 C0 25.74 0 51.48 0 78 C-12.3838651 71.24516449 -12.3838651 71.24516449 -17.890625 68.01171875 C-18.4785936 67.66698517 -19.06656219 67.32225159 -19.67234802 66.96707153 C-21.53260797 65.87564481 -23.39137483 64.78170789 -25.25 63.6875 C-26.54399102 62.92726675 -27.83801796 62.16709464 -29.13208008 61.40698242 C-36.78343944 56.90941373 -44.42395229 52.39464861 -52.015625 47.796875 C-54.03587289 46.58049538 -56.06761395 45.38303716 -58.109375 44.203125 C-59.50929688 43.39101563 -59.50929688 43.39101563 -60.9375 42.5625 C-61.73027344 42.11003906 -62.52304687 41.65757812 -63.33984375 41.19140625 C-63.88769531 40.79824219 -64.43554688 40.40507812 -65 40 C-65 39.34 -65 38.68 -65 38 C-63.11354765 36.72000912 -61.1593127 35.53971517 -59.18359375 34.40234375 C-58.58051392 34.05222229 -57.97743408 33.70210083 -57.3560791 33.34136963 C-55.38702495 32.2000197 -53.41228101 31.06890695 -51.4375 29.9375 C-50.08553046 29.15554763 -48.73404901 28.37275077 -47.38305664 27.58911133 C-44.74642393 26.06010296 -42.10822255 24.53386583 -39.46875 23.00976562 C-35.60198935 20.77359793 -31.76027673 18.49803698 -27.9375 16.1875 C-26.85082031 15.53265625 -25.76414062 14.8778125 -24.64453125 14.203125 C-23.42958797 13.46891467 -22.21475704 12.73451842 -21 12 C-17.37670639 9.80965922 -13.75131045 7.62284177 -10.125 5.4375 C-9.23675537 4.89955811 -8.34851074 4.36161621 -7.43334961 3.80737305 C-6.61229736 3.31277588 -5.79124512 2.81817871 -4.9453125 2.30859375 C-4.20812988 1.86314209 -3.47094727 1.41769043 -2.71142578 0.95874023 C-1 0 -1 0 0 0 Z " fill="#7A7A7A" transform="translate(436,233)"/>
<path d="M0 0 C6.40509406 2.34628709 12.31576095 6.31931689 18.11816406 9.84814453 C25.97360777 14.62012511 33.91934525 19.23892362 41.85806274 23.8704834 C56.78660058 32.58094957 56.78660058 32.58094957 62 36 C62 36.33 62 36.66 62 37 C21.41 37 -19.18 37 -61 37 C-57.314444 34.0515552 -54.07545468 31.74906004 -50.046875 29.41796875 C-49.47739639 29.08658401 -48.90791779 28.75519928 -48.32118225 28.41377258 C-47.09960646 27.70333571 -45.87700648 26.99465744 -44.6534729 26.28759766 C-41.40867226 24.41228986 -38.17140668 22.52405728 -34.93359375 20.63671875 C-34.27465622 20.25301117 -33.61571869 19.86930359 -32.93681335 19.47396851 C-25.11119617 14.91044605 -17.35199646 10.23781923 -9.59472656 5.55932617 C-8.13437988 4.67917847 -8.13437988 4.67917847 -6.64453125 3.78125 C-5.36606323 3.0087793 -5.36606323 3.0087793 -4.06176758 2.22070312 C-2.73397446 1.43456155 -1.38016032 0.69008016 0 0 Z " fill="#7A7A7A" transform="translate(150,277)"/>
<path d="M0 0 C1.83832316 1.02457236 3.66172356 2.07619529 5.47265625 3.1484375 C6.44090332 3.70370117 7.40915039 4.25896484 8.40673828 4.83105469 C11.63366108 6.70038073 14.83599199 8.60701753 18.03515625 10.5234375 C19.20534673 11.22166737 20.37567803 11.91966129 21.54614258 12.61743164 C23.96525655 14.06045846 26.38297705 15.50578428 28.79980469 16.95263672 C31.85904451 18.78323223 34.9230784 20.60561672 37.9889679 22.42504883 C40.88123636 24.14220403 43.77048977 25.86440733 46.66015625 27.5859375 C47.7469165 28.23030762 48.83367676 28.87467773 49.95336914 29.53857422 C50.94328857 30.13041504 51.93320801 30.72225586 52.953125 31.33203125 C54.26639771 32.11404907 54.26639771 32.11404907 55.60620117 32.91186523 C56.22213135 33.31993408 56.83806152 33.72800293 57.47265625 34.1484375 C57.47265625 34.4784375 57.47265625 34.8084375 57.47265625 35.1484375 C16.88265625 35.1484375 -23.70734375 35.1484375 -65.52734375 35.1484375 C-61.81419257 32.17791656 -58.52841111 29.85167648 -54.46875 27.49609375 C-53.89120468 27.15933121 -53.31365936 26.82256866 -52.71861267 26.4756012 C-50.84444631 25.38374156 -48.96715283 24.297383 -47.08984375 23.2109375 C-45.79009533 22.45472692 -44.49061852 21.69804931 -43.19140625 20.94091797 C-41.21858704 19.79130733 -39.24561029 18.64197854 -37.27175903 17.49414062 C-31.17408927 13.94792551 -25.09765098 10.36628075 -19.02734375 6.7734375 C-17.68651733 5.98078491 -17.68651733 5.98078491 -16.31860352 5.17211914 C-15.49030029 4.68219482 -14.66199707 4.19227051 -13.80859375 3.6875 C-13.04546875 3.24954102 -12.28234375 2.81158203 -11.49609375 2.36035156 C-9.35113706 1.11559533 -9.35113706 1.11559533 -7.05859375 -1.015625 C-3.8197459 -2.08524451 -3.02825246 -1.45356118 0 0 Z " fill="#7A7A7A" transform="translate(365.52734375,278.8515625)"/>
<path d="M0 0 C40.59 0 81.18 0 123 0 C119.33555073 2.93155941 116.11966434 5.22694784 112.1171875 7.546875 C111.55353989 7.87579742 110.98989227 8.20471985 110.40916443 8.54360962 C107.92880279 9.98935829 105.44186608 11.4235628 102.95394897 12.85626221 C100.97983589 13.99328953 99.00701527 15.13250565 97.03515625 16.2734375 C96.37007553 16.65815216 95.70499481 17.04286682 95.01976013 17.4392395 C91.0466078 19.75506776 87.14344918 22.15368798 83.2835083 24.65356445 C80.87973964 26.21023644 78.45893578 27.73932647 76.03741455 29.26818848 C74.34330016 30.35523672 72.67586556 31.48350835 71.00927734 32.61230469 C63.56203347 37.28431458 63.56203347 37.28431458 59.4152832 36.52954102 C56.73381454 35.23797269 54.42998992 33.71696193 52 32 C50.1738343 30.92100018 48.3415268 29.85234239 46.50390625 28.79296875 C44.52125689 27.5947466 42.54088155 26.39275568 40.5625 25.1875 C38.3781291 23.86501798 36.19321226 22.54343738 34.0078125 21.22265625 C33.44547409 20.88240417 32.88313568 20.5421521 32.30375671 20.19158936 C28.00872236 17.59699353 23.69257702 15.03971037 19.3671875 12.49609375 C18.74321579 12.1287059 18.11924408 11.76131805 17.47636414 11.38279724 C15.02301753 9.93859544 12.56956108 8.49464187 10.11209106 7.0574646 C8.41531021 6.06492882 6.72125434 5.06773891 5.02734375 4.0703125 C4.05531006 3.50070801 3.08327637 2.93110352 2.08178711 2.34423828 C1.39479736 1.90063965 0.70780762 1.45704102 0 1 C0 0.67 0 0.34 0 0 Z " fill="#7A7A7A" transform="translate(89,230)"/>
<path d="M0 0 C40.59 0 81.18 0 123 0 C119.314444 2.9484448 116.07545468 5.25093996 112.046875 7.58203125 C111.47744171 7.91341599 110.90800842 8.24480072 110.32131958 8.58622742 C108.46622827 9.66516432 106.60811115 10.73877375 104.75 11.8125 C102.14187905 13.32711169 99.53559135 14.84485879 96.9296875 16.36328125 C96.27054352 16.74698883 95.61139954 17.13069641 94.93228149 17.52603149 C90.47873143 20.12330577 86.04776648 22.75565406 81.6328125 25.41796875 C80.76789185 25.93941216 80.76789185 25.93941216 79.88549805 26.47138977 C77.14844881 28.12331278 74.41437641 29.78001659 71.68261719 31.44067383 C70.22710449 32.32082153 70.22710449 32.32082153 68.7421875 33.21875 C67.8951123 33.73373047 67.04803711 34.24871094 66.17529297 34.77929688 C64 36 64 36 61 37 C58.42578125 35.80688477 58.42578125 35.80688477 55.3125 33.94140625 C54.7457959 33.60581696 54.1790918 33.27022766 53.59521484 32.92446899 C51.72422359 31.81342537 49.86222408 30.68816613 48 29.5625 C46.7049807 28.78919257 45.40940069 28.01682343 44.11328125 27.24536133 C41.42422161 25.64323758 38.73846568 24.03575836 36.0546875 22.42480469 C32.13352133 20.07469089 28.19434789 17.75624746 24.25 15.4453125 C22.42006491 14.37090563 20.59036132 13.2961057 18.76074219 12.22116089 C17.03145162 11.20596398 15.30089332 10.19292752 13.5703125 9.17993164 C12.51585937 8.55723389 11.46140625 7.93453613 10.375 7.29296875 C9.45460938 6.7518042 8.53421875 6.21063965 7.5859375 5.65307617 C5 4 5 4 0 0 Z " fill="#7A7A7A" transform="translate(300,230)"/>
</svg>
