<?xml version="1.0" encoding="UTF-8"?>
<svg version="1.1" xmlns="http://www.w3.org/2000/svg" width="512" height="512">
<path d="M0 0 C0.68880762 -0.00205263 1.37761525 -0.00410527 2.08729583 -0.0062201 C4.39444466 -0.01187268 6.70153346 -0.01043501 9.00868797 -0.00901413 C10.67998364 -0.01159877 12.35127868 -0.0146122 14.02257288 -0.01801753 C18.61489148 -0.02607923 23.20719445 -0.02787664 27.7995193 -0.028615 C32.75265913 -0.030467 37.70579087 -0.03801508 42.65892601 -0.04475021 C53.48960843 -0.05832821 64.32028714 -0.06435744 75.15097666 -0.06876087 C81.91481066 -0.07152422 88.67864324 -0.07576175 95.44247627 -0.08026505 C114.17268407 -0.09245706 132.90289073 -0.10275648 151.63310242 -0.10614014 C152.83172311 -0.1063597 154.03034381 -0.10657927 155.26528635 -0.10680549 C156.46676112 -0.10702377 157.66823589 -0.10724204 158.90611899 -0.10746694 C161.34072979 -0.1079104 163.7753406 -0.10835696 166.2099514 -0.10880661 C168.0214247 -0.10913875 168.0214247 -0.10913875 169.86949341 -0.10947761 C189.43519797 -0.11342514 209.00086528 -0.13087811 228.56655546 -0.15416613 C248.65842532 -0.17788724 268.75027649 -0.19034234 288.84216058 -0.19150805 C300.12134987 -0.19242439 311.40049061 -0.19816632 322.67966652 -0.21632767 C332.28465492 -0.23173889 341.88957978 -0.23684307 351.4945782 -0.22858956 C356.39324899 -0.22468669 361.29179186 -0.225595 366.19044685 -0.23964691 C370.68003604 -0.25240739 375.16940145 -0.25116948 379.65899043 -0.2390562 C381.27812773 -0.23710292 382.89728099 -0.24016048 384.51639588 -0.24890056 C401.07041633 -0.332561 414.43995941 2.36460631 426.88036156 13.89314651 C435.56123167 23.26063912 439.07359032 34.80201835 439.08600807 47.36425591 C439.08806071 48.07332401 439.09011334 48.78239212 439.09222817 49.51294714 C439.09788275 51.88901628 439.09644283 54.26502717 439.0950222 56.64110184 C439.09760672 58.36189509 439.10062013 60.08268773 439.1040256 61.80347955 C439.11208865 66.53261695 439.11388479 71.26173917 439.11462307 75.99088264 C439.11647483 81.09126298 439.1240228 86.19163546 439.13075829 91.29201126 C439.14433722 102.44499748 439.15036565 113.59798011 439.15476894 124.75097322 C439.15753212 131.71581886 439.16176962 138.68066311 439.16627312 145.64550781 C439.17846524 164.93159333 439.18876465 184.21767773 439.19214821 203.50376701 C439.19236777 204.73799905 439.19258734 205.97223108 439.19281356 207.24386408 C439.19303184 208.48103823 439.19325012 209.71821238 439.19347501 210.99287665 C439.19391847 213.49983509 439.19436504 216.00679354 439.19481468 218.51375198 C439.19503611 219.75728822 439.19525754 221.00082446 439.19548568 222.28204362 C439.19943332 242.42973507 439.21688655 262.57739034 439.2401742 282.72506781 C439.26389384 303.41358418 439.27635034 324.10208239 439.27751613 344.79061258 C439.27843254 356.4051494 439.28417652 368.01963908 439.30233574 379.6341629 C439.31774496 389.52461365 439.32285231 399.41500268 439.31459764 409.30546315 C439.31069406 414.34995174 439.31160651 419.3943161 439.32565498 424.43878937 C439.33841122 429.06160687 439.33718123 433.68420701 439.32506427 438.30702429 C439.32311027 439.97461342 439.32617194 441.64221805 439.33490863 443.30978544 C439.41684582 460.01384187 436.83896156 473.48994856 425.19286156 486.05720901 C415.8946258 494.67389869 404.39033331 498.25015064 391.90916061 498.26285553 C391.22035299 498.26490816 390.53154537 498.2669608 389.82186478 498.26907563 C387.51471596 498.27472821 385.20762716 498.27329054 382.90047264 498.27186966 C381.22917698 498.2744543 379.55788193 498.27746773 377.88658774 498.28087306 C373.29426913 498.28893476 368.70196616 498.29073217 364.10964131 498.29147053 C359.15650149 498.29332253 354.20336975 498.30087061 349.2502346 498.30760574 C338.41955218 498.32118374 327.58887347 498.32721297 316.75818396 498.3316164 C309.99434995 498.33437975 303.23051738 498.33861728 296.46668434 498.34312057 C277.73647654 498.35531259 259.00626988 498.36561201 240.2760582 498.36899567 C239.0774375 498.36921523 237.8788168 498.3694348 236.64387427 498.36966102 C235.44239949 498.3698793 234.24092472 498.37009757 233.00304163 498.37032247 C230.56843082 498.37076593 228.13382002 498.37121249 225.69920921 498.37166214 C223.88773592 498.37199428 223.88773592 498.37199428 222.0396672 498.37233314 C202.47396264 498.37628067 182.90829533 498.39373364 163.34260516 498.41702166 C143.2507353 498.44074277 123.15888412 498.45319787 103.06700003 498.45436358 C91.78781075 498.45527992 80.50867 498.46102185 69.22949409 498.4791832 C59.62450569 498.49459442 50.01958083 498.4996986 40.41458242 498.49144509 C35.51591162 498.48754222 30.61736876 498.48845053 25.71871376 498.50250244 C21.22912457 498.51526292 16.73975916 498.51402501 12.25017019 498.50191173 C10.63103289 498.49995845 9.01187962 498.50301601 7.39276473 498.51175609 C-9.60099858 498.59763889 -22.9795185 495.65563449 -35.67823219 483.78767776 C-46.65364972 471.47202773 -47.3445749 457.73863118 -47.3061161 442.17833328 C-47.30913894 440.44598758 -47.31302908 438.71364321 -47.31770867 436.98130119 C-47.32798035 432.23418799 -47.32580896 427.48715038 -47.32152808 422.740031 C-47.31905936 417.61517827 -47.32807682 412.49034367 -47.33556557 407.36549759 C-47.34831042 397.33057241 -47.35010653 387.29567399 -47.3477653 377.26074208 C-47.34598179 369.10362951 -47.34773251 360.94652506 -47.35198975 352.78941345 C-47.35258494 351.62815709 -47.35318012 350.46690073 -47.35379335 349.27045479 C-47.35500511 346.91131164 -47.35621924 344.55216848 -47.35743573 342.19302534 C-47.36831039 320.07244237 -47.36614908 297.95187465 -47.36005088 275.83129083 C-47.3548815 255.59904719 -47.36613785 235.3668517 -47.3851491 215.13461758 C-47.40452534 194.35447695 -47.41278389 173.57435909 -47.40902585 152.79420936 C-47.40711352 141.13000967 -47.40960452 129.46585095 -47.42374039 117.80165863 C-47.43565239 107.87208793 -47.43706104 97.94258344 -47.42495022 88.01301183 C-47.41906038 82.94837708 -47.41796512 77.88386345 -47.42995262 72.81923676 C-47.44080714 68.17931563 -47.43771311 63.53961682 -47.42369094 58.89970611 C-47.42104285 57.22482425 -47.42341407 55.549925 -47.4314268 53.87506022 C-47.50408644 37.54892472 -44.94728589 24.65583646 -33.54151344 12.46345901 C-24.15783967 3.69655253 -12.66978907 0.01289689 0 0 Z M-23.73291969 23.44392776 C-40.01707784 42.3687602 -33.04541969 66.29166248 -33.04541969 91.13142776 C118.09458031 91.13142776 269.23458031 91.13142776 424.95458031 91.13142776 C428.49781126 54.85983395 428.49781126 54.85983395 415.70458031 23.56892776 C404.60617863 13.7317081 392.96946012 13.83375158 378.70970726 13.87746048 C377.06653169 13.87515343 375.42335715 13.87197527 373.78018475 13.86800599 C369.2842297 13.85968292 364.78835994 13.86377193 360.29240465 13.86997843 C355.43616893 13.87451211 350.57994766 13.86751461 345.72371483 13.86201859 C336.21798671 13.85313273 326.7122902 13.855043 317.20656085 13.86084387 C309.47995606 13.86536352 301.75336011 13.86597194 294.02675438 13.86379623 C292.92640273 13.86348977 291.82605109 13.8631833 290.69235545 13.86286755 C288.4569021 13.86222809 286.22144876 13.86157966 283.98599541 13.86092237 C263.03191662 13.85522144 242.07785534 13.86177325 221.12377942 13.8725231 C203.15037876 13.88145839 185.17700394 13.87990628 167.20360374 13.87068558 C146.32369086 13.85997877 125.44379331 13.85577074 104.56387806 13.8619101 C102.33672079 13.86254719 100.10956351 13.86317593 97.88240623 13.86379623 C96.78664735 13.86410479 95.69088846 13.86441334 94.56192476 13.86473124 C86.8460146 13.86645694 79.13011419 13.86354575 71.41420555 13.85883713 C62.00908637 13.85322374 52.60400057 13.85475441 43.1988852 13.86539862 C38.40172695 13.87064913 33.60462433 13.8727226 28.80746651 13.86610031 C24.41316574 13.86012596 20.01897198 13.86344048 15.62468088 13.87405542 C14.0380032 13.87628314 12.45131643 13.8751673 10.86464465 13.87030384 C-2.72975586 13.831842 -13.15085074 14.33842657 -23.73291969 23.44392776 Z M-33.04541969 105.13142776 C-33.10729469 162.84017776 -33.16916969 220.54892776 -33.23291969 280.00642776 C-33.2602317 298.24005569 -33.28754372 316.47368362 -33.31568336 335.25984573 C-33.32571557 351.57907401 -33.32571557 351.57907401 -33.33175087 367.89830399 C-33.33455012 375.17706071 -33.34556161 382.45574847 -33.36214638 389.73448563 C-33.38124621 398.12945135 -33.38992661 406.52435086 -33.38575454 414.91933847 C-33.38394773 419.21348252 -33.38680719 423.50747857 -33.40306509 427.80159545 C-33.4176884 431.68762773 -33.41837412 435.57340768 -33.40812302 439.45945168 C-33.40685472 440.86135299 -33.41062619 442.26327029 -33.42006743 443.66514039 C-33.49792324 455.95152912 -32.08879135 465.24869893 -23.79541969 474.69392776 C-12.69701802 484.53114743 -1.0602995 484.42910395 13.19945335 484.38539505 C14.84262893 484.3877021 16.48580347 484.39088026 18.12897587 484.39484954 C22.62493091 484.4031726 27.12080068 484.3990836 31.61675596 484.3928771 C36.47299168 484.38834342 41.32921296 484.39534092 46.18544579 484.40083694 C55.69117391 484.4097228 65.19687041 484.40781252 74.70259976 484.40201166 C82.42920456 484.39749201 90.1558005 484.39688359 97.88240623 484.3990593 C98.98275788 484.39936576 100.08310953 484.39967223 101.21680516 484.39998798 C103.45225851 484.40062744 105.68771186 484.40127587 107.9231652 484.40193316 C128.87724399 484.40763409 149.83130528 484.40108228 170.7853812 484.39033243 C188.75878186 484.38139714 206.73215668 484.38294925 224.70555687 484.39216995 C245.58546976 484.40287676 266.46536731 484.40708479 287.34528255 484.40094543 C289.57243983 484.40030834 291.7995971 484.3996796 294.02675438 484.3990593 C295.12251327 484.39875074 296.21827216 484.39844219 297.34723586 484.39812429 C305.06314601 484.39639859 312.77904642 484.39930978 320.49495506 484.4040184 C329.90007424 484.40963179 339.30516005 484.40810112 348.71027541 484.39745691 C353.50743366 484.3922064 358.30453629 484.39013293 363.10169411 484.39675522 C367.49599487 484.40272957 371.89018863 484.39941505 376.28447974 484.38880011 C377.87115741 484.38657239 379.45784418 484.38768823 381.04451597 484.39255169 C395.23615152 484.43270325 405.93322885 483.73801476 416.70458031 473.88142776 C425.77928697 464.35091391 425.10249016 452.37055004 425.07483482 440.0402565 C425.0752726 438.59814307 425.07615016 437.15602971 425.07742882 435.71391678 C425.07966853 431.75221779 425.07566275 427.7905459 425.07065304 423.82885034 C425.06628372 419.49063255 425.06774782 415.15241598 425.06847095 410.81419659 C425.06900245 402.39445801 425.0643867 393.97473011 425.05796963 385.55499428 C425.05076869 375.81513089 425.04997482 366.0752739 425.0491848 356.33540726 C425.04393479 330.62157907 425.02997367 304.90775326 425.01708031 279.19392776 C424.99645531 221.75330276 424.97583031 164.31267776 424.95458031 105.13142776 C273.81458031 105.13142776 122.67458031 105.13142776 -33.04541969 105.13142776 Z " fill="#000000" transform="translate(60.045419692993164,6.868572235107422)"/>
<path d="M0 0 C0.65175249 -0.00611336 1.30350497 -0.01222672 1.97500753 -0.01852533 C4.16841492 -0.03417977 6.36072512 -0.02123851 8.55413818 -0.00850582 C10.13866956 -0.0138287 11.7231959 -0.02089289 13.30771255 -0.02955288 C17.66926493 -0.04824144 22.03047921 -0.041854 26.39204597 -0.03139985 C31.09287635 -0.02442543 35.79363603 -0.04039232 40.4944458 -0.05339718 C49.70623601 -0.07507159 58.91790285 -0.07490155 68.1297102 -0.06677163 C75.61433799 -0.06047942 83.09892973 -0.0616015 90.58355713 -0.06804371 C92.17961993 -0.06939619 92.17961993 -0.06939619 93.80792642 -0.070776 C95.96930537 -0.07262714 98.13068431 -0.0744897 100.29206324 -0.07636356 C120.57353234 -0.09295387 140.85493195 -0.08421219 161.13639688 -0.06737798 C179.70536517 -0.05267824 198.27417169 -0.06731113 216.84311914 -0.09614814 C235.89529186 -0.125516 254.94738984 -0.13652216 273.9995842 -0.12696594 C276.15314482 -0.12594335 278.30670546 -0.12494875 280.46026611 -0.12398243 C282.04977943 -0.12326784 282.04977943 -0.12326784 283.67140412 -0.12253882 C291.14963748 -0.12037133 298.62780035 -0.1301965 306.10601807 -0.14475346 C315.21580315 -0.16223853 324.32538189 -0.16221452 333.43515873 -0.1394018 C338.08582045 -0.12822499 342.73611812 -0.12517451 347.38676453 -0.14370251 C351.64056254 -0.16043186 355.89367685 -0.15425978 360.14742994 -0.12948572 C361.68976398 -0.12457706 363.23215239 -0.12818669 364.77444124 -0.14097316 C366.86506897 -0.15706068 368.95330525 -0.14260335 371.04382324 -0.12025452 C372.20663692 -0.11998483 373.36945061 -0.11971514 374.56750107 -0.11943728 C377.52191162 0.50615788 377.52191162 0.50615788 379.89550644 2.89645535 C381.65437133 5.7187005 382.0222888 7.11852544 382.02311707 10.40166569 C382.0329512 11.36052677 382.04278534 12.31938786 382.05291748 13.30730534 C382.04324951 14.34745792 382.03358154 15.38761051 382.02362061 16.45928288 C382.03172508 18.11619144 382.03172508 18.11619144 382.03999329 19.80657291 C382.05249722 23.45670738 382.03597746 27.10605571 382.01800537 30.75615788 C382.01816032 33.29294215 382.0196486 35.82972667 382.02241516 38.36650944 C382.02379991 43.68270575 382.01166245 48.99862491 381.98846436 54.31475163 C381.96185587 60.45478425 381.96010827 66.59443894 381.97185272 72.73450947 C381.98264426 78.64895061 381.97633118 84.56327674 381.96229744 90.47771549 C381.95777935 92.99113919 381.95744925 95.50457399 381.96136284 98.0179987 C381.96427129 101.52990898 381.94778444 105.04120072 381.92596436 108.55303288 C381.93271683 110.11326176 381.93271683 110.11326176 381.93960571 111.70501041 C381.84616893 120.75056524 381.84616893 120.75056524 378.52191162 124.50615788 C375.19551072 125.61495818 372.7217297 125.63494409 369.21651649 125.64037895 C368.57128257 125.64273118 367.92604865 125.64508341 367.26126218 125.64750692 C365.08434482 125.65420019 362.9074871 125.6537386 360.7305603 125.6533289 C359.15998473 125.6566273 357.58941001 125.66035282 356.01883638 125.66447037 C351.69126659 125.67450084 347.36371067 125.67820883 343.03613091 125.68085968 C338.37346175 125.68475953 333.71080361 125.69433796 329.04814148 125.70307255 C317.783423 125.72284399 306.51870361 125.73290314 295.25397211 125.74180034 C289.95285678 125.74618133 284.65174244 125.75154856 279.3506279 125.75678921 C261.73571543 125.77380068 244.12080359 125.78829642 226.50588417 125.79553795 C221.93375269 125.79744792 217.36162121 125.79936824 212.78948975 125.80132389 C211.65307357 125.80180763 210.5166574 125.80229137 209.34580438 125.80278977 C190.92297475 125.81109598 172.50020993 125.83644321 154.07740863 125.86890457 C135.17557077 125.90193935 116.2737659 125.91998338 97.37189901 125.92318219 C86.7540627 125.9253504 76.13632096 125.93414462 65.51851273 125.95964336 C56.4790398 125.98130133 47.43968439 125.98942496 38.40018846 125.97967658 C33.78589914 125.97511787 29.17185256 125.97710898 24.55759621 125.99643803 C20.33588358 126.01397051 16.11459256 126.01315334 11.89287607 125.99754073 C10.36327214 125.99514951 8.83363975 125.99956605 7.30407949 126.01136938 C5.22853268 126.02639765 3.15449738 126.01688147 1.07898903 126.0011425 C-0.07487372 126.00211931 -1.22873646 126.00309612 -2.41756475 126.00410253 C-6.14601242 125.39748719 -7.82059486 124.14367736 -10.47808838 121.50615788 C-11.10450077 119.19790745 -11.10450077 119.19790745 -11.10627747 116.61028385 C-11.11893143 115.62610981 -11.13158539 114.64193577 -11.1446228 113.62793827 C-11.1329306 112.55456715 -11.1212384 111.48119602 -11.10919189 110.3752985 C-11.1163472 109.23997181 -11.1235025 108.10464512 -11.13087463 106.93491459 C-11.14780194 103.17700473 -11.12833365 99.42028098 -11.10699463 95.66240788 C-11.10782294 93.0545374 -11.11028091 90.44666698 -11.11430359 87.83879948 C-11.11882368 82.37117158 -11.10296051 76.90388588 -11.07501221 71.43633366 C-11.04296019 65.11729251 -11.04297599 58.7988685 -11.06022698 52.47978354 C-11.07609733 46.39816894 -11.0692582 40.31681667 -11.05228996 34.23520756 C-11.04709986 31.6483902 -11.04759994 29.06155508 -11.05383492 26.47474003 C-11.05927384 22.86177449 -11.03895218 19.24986279 -11.01153564 15.63701725 C-11.01806152 14.56364613 -11.0245874 13.490275 -11.03131104 12.38437748 C-11.01222435 10.90811642 -11.01222435 10.90811642 -10.99275208 9.4020319 C-10.98994515 8.54811611 -10.98713823 7.69420033 -10.98424625 6.8144083 C-9.67630072 0.84973604 -5.47708336 0.00561212 0 0 Z M47.52191162 14.50615788 C50.33068458 16.37867318 52.22099153 17.13625258 55.41131592 18.05230045 C56.92831841 18.49206463 56.92831841 18.49206463 58.47596741 18.94071293 C59.58812119 19.25750507 60.70027496 19.57429722 61.84613037 19.90068913 C63.02326096 20.24096638 64.20039154 20.58124363 65.41319275 20.93183231 C69.34359312 22.06668473 73.27609626 23.19396237 77.20941162 24.31865788 C82.84166831 25.92934611 88.47335801 27.54197774 94.10394287 29.15850163 C94.8381546 29.36901409 95.57236633 29.57952656 96.3288269 29.79641819 C107.46981696 32.99469797 118.56155685 36.33457051 129.63672066 39.75331783 C134.50521398 41.25132536 139.38038229 42.7274876 144.25564098 44.2033062 C148.20286031 45.40045126 152.14425486 46.61238293 156.07620239 47.85884953 C159.80339695 49.04027829 163.54054748 50.18262208 167.28783607 51.29860592 C168.65761735 51.71401258 170.02331976 52.14319319 171.38384056 52.58799267 C181.64297941 55.93071403 188.69142103 55.36955315 198.65813828 52.11182117 C201.40019795 51.22074452 204.17812213 50.46340955 206.95404053 49.68535709 C209.05318677 49.06389341 211.15130431 48.43894635 213.24847412 47.81084538 C214.41303635 47.46537663 215.57759857 47.11990788 216.77745056 46.76397038 C219.91761582 45.83217382 223.05694098 44.89760811 226.1959877 43.96205235 C231.56162964 42.36441355 236.92998685 40.77590119 242.29809761 39.18658161 C243.69342735 38.77346805 245.08872518 38.36024672 246.48399162 37.94691944 C263.083036 33.03053122 279.70688572 28.20018357 296.33441162 23.38115788 C297.72457092 22.97815046 299.114728 22.57513537 300.50488281 22.17211246 C308.17665538 19.94815679 315.84896872 17.72607271 323.52191162 15.50615788 C323.52191162 15.17615788 323.52191162 14.84615788 323.52191162 14.50615788 C232.44191162 14.50615788 141.36191162 14.50615788 47.52191162 14.50615788 Z M3.52191162 17.50615788 C3.52191162 47.53615788 3.52191162 77.56615788 3.52191162 108.50615788 C13.84926064 105.92432062 24.04161079 103.27049135 34.22503662 100.22490788 C35.60935604 99.81375432 36.99377388 99.40293198 38.37828064 98.99240971 C41.31881021 98.11986747 44.25872855 97.24530826 47.19815063 96.3690424 C51.84028225 94.98525924 56.48379408 93.60615162 61.12762451 92.2280817 C62.30825202 91.87771272 62.30825202 91.87771272 63.5127306 91.52026558 C65.11859479 91.04370848 66.72446315 90.56716546 68.33033562 90.09063625 C70.77259025 89.3657595 73.21471467 88.64044549 75.65681458 87.91504765 C92.65843849 82.86599956 109.67284603 77.86058836 126.68901062 72.86080265 C129.70887737 71.97343151 132.72865437 71.08575521 135.74843121 70.19807816 C143.33937293 67.96669449 150.93053431 65.73605923 158.52191162 63.50615788 C157.66220163 61.21650232 157.66220163 61.21650232 154.88700867 60.53379154 C153.70296951 60.19298054 152.51893036 59.85216953 151.29901123 59.50103092 C150.64257 59.30972819 149.98612877 59.11842546 149.30979538 58.92132568 C147.10003484 58.27938074 144.88720282 57.6487401 142.67425537 57.01787663 C141.09965355 56.56272399 139.52526117 56.10684626 137.95106506 55.6502924 C133.67924661 54.41339669 129.4047488 53.18600747 125.12971497 51.96027851 C120.67977809 50.68274072 116.23224369 49.39690069 111.78460693 48.11138248 C106.27798574 46.52016648 100.77120444 44.92952241 95.26339722 43.34241581 C82.61739506 39.69740168 69.9824016 36.01615027 57.35394287 32.31084538 C55.67186467 31.81771627 53.98977153 31.32463813 52.30766296 30.83161259 C39.21183526 26.99274441 39.21183526 26.99274441 33.01626587 25.16957951 C29.29591585 24.07493071 25.57447796 22.98406155 21.85219383 21.89600849 C20.49042582 21.49717548 19.12907777 21.09690537 17.76818275 20.69510365 C15.91927208 20.14935274 14.06877743 19.6089765 12.21820068 19.06890202 C11.18407043 18.76521198 10.14994019 18.46152195 9.08447266 18.14862919 C6.47723405 17.38456393 6.47723405 17.38456393 3.52191162 17.50615788 Z M358.7243042 18.82524967 C357.73296982 19.1186272 356.74163544 19.41200474 355.72026062 19.7142725 C354.63000076 20.04133686 353.53974091 20.36840122 352.41644287 20.70537663 C350.68431297 21.21935757 350.68431297 21.21935757 348.91719055 21.74372196 C346.38937393 22.4941566 343.8620232 23.24599309 341.33532715 24.00017643 C335.18270338 25.83642671 329.02655611 27.66080488 322.87049103 29.4854784 C321.41768304 29.91613865 319.96491973 30.34694961 318.5121994 30.77790546 C306.7244149 34.2744265 294.92550632 37.73161714 283.11956787 41.16631413 C282.31535967 41.40035639 281.51115147 41.63439865 280.68257332 41.8755331 C273.53947511 43.95419498 266.39599857 46.03154959 259.25106812 48.10390568 C243.28696856 52.73458913 227.3316902 57.36649177 211.52191162 62.50615788 C214.70750822 64.2320014 217.87924257 65.30392098 221.35101318 66.32769108 C222.54237381 66.68094456 223.73373444 67.03419804 224.9611969 67.39815617 C226.27828426 67.78450538 227.59539841 68.1707633 228.91253662 68.55693913 C230.30277765 68.96747548 231.69292738 69.37832113 233.08299255 69.78945255 C236.85726535 70.90460725 240.63295832 72.01487972 244.40897751 73.1241045 C247.56500654 74.05177769 250.72025359 74.98209494 253.87551403 75.91237831 C264.75488356 79.11972599 275.6378374 82.31481683 286.52191162 85.50615788 C287.7965691 85.87993816 287.7965691 85.87993816 289.09697723 86.26126957 C300.75754111 89.68031509 312.4198716 93.09328404 324.08409119 96.49983692 C326.45419654 97.19213457 328.82418188 97.88484191 331.19415283 98.57759953 C334.92958936 99.66926469 338.66553749 100.75916178 342.40189552 101.84766865 C343.76925101 102.24623397 345.13646277 102.64529273 346.50351524 103.04489613 C348.37892785 103.59294526 350.25497291 104.13882871 352.13104248 104.68462467 C353.17819931 104.98990589 354.22535614 105.29518711 355.304245 105.60971928 C359.02442373 106.64615723 362.77536077 107.56952016 366.52191162 108.50615788 C366.52191162 78.47615788 366.52191162 48.44615788 366.52191162 17.50615788 C363.54210163 17.50615788 361.56105638 17.97924275 358.7243042 18.82524967 Z M178.29852295 71.5940485 C177.4794194 71.83780216 176.66031586 72.08155582 175.81639099 72.33269596 C174.92128311 72.60650089 174.02617523 72.88030582 173.10394287 73.16240788 C172.13419022 73.45264835 171.16443756 73.74288883 170.16529846 74.04192448 C168.02371581 74.68351421 165.88304568 75.3281556 163.74316406 75.97539616 C158.41817995 77.58560102 153.08763313 79.17714269 147.75727844 80.76946354 C145.77717398 81.36117563 143.79730946 81.95368623 141.81744385 82.54619694 C123.55570436 88.00655772 105.25570754 93.33738031 86.96038437 98.68386173 C82.28906605 100.04915203 77.61802837 101.4154018 72.94696045 102.7815485 C64.13891633 105.35746392 55.33053672 107.93222993 46.52191162 110.50615788 C46.52191162 110.83615788 46.52191162 111.16615788 46.52191162 111.50615788 C138.26191162 111.50615788 230.00191162 111.50615788 324.52191162 111.50615788 C321.11753353 109.80396883 318.15736704 108.7059805 314.53411865 107.63701725 C313.31089905 107.27421162 312.08767944 106.91140598 310.82739258 106.53760624 C309.47819576 106.14161819 308.12897207 105.74572167 306.77972412 105.34990788 C305.36172799 104.93099216 303.94382235 104.51177003 302.52600098 104.09226322 C298.69682086 102.9604707 294.86620357 101.83362072 291.03517914 100.70808887 C288.65014536 100.0071083 286.2654449 99.30500568 283.88085938 98.60250187 C274.87566195 95.94960526 265.86876308 93.30255716 256.86049843 90.66009521 C251.29682628 89.02781992 245.73426158 87.39181782 240.17230225 85.75371647 C232.93854045 83.62347515 225.70250734 81.50110323 218.46472168 79.38457584 C215.75836401 78.5929452 213.05290104 77.79835872 210.34814453 77.00127506 C206.59318355 75.89498835 202.83509188 74.79960813 199.07659912 73.70537663 C197.97153015 73.37829212 196.86646118 73.05120762 195.72790527 72.71421146 C194.71359436 72.42085407 193.69928345 72.12749668 192.65423584 71.82524967 C191.7780661 71.56882191 190.90189636 71.31239414 189.99917603 71.04819584 C185.82226043 70.13426561 182.36749601 70.36413928 178.29852295 71.5940485 Z " fill="#000000" transform="translate(67.47808837890625,135.49384212493896)"/>
<path d="M0 0 C1.07519897 -0.00861557 2.15039795 -0.01723114 3.25817871 -0.02610779 C6.81632484 -0.04883119 10.37368742 -0.04201657 13.93188477 -0.03295898 C16.40283951 -0.03819189 18.87379225 -0.04446713 21.34474182 -0.05174255 C26.52565911 -0.06215872 31.70630195 -0.0575678 36.88720703 -0.04296875 C43.52998334 -0.02578372 50.1718945 -0.04926764 56.81457424 -0.08445835 C61.9180933 -0.10640845 67.02140463 -0.10499647 72.12495613 -0.09669304 C74.57419852 -0.09587214 77.02345595 -0.10276188 79.47265434 -0.11746407 C82.89637445 -0.13486377 86.31853062 -0.12040315 89.7421875 -0.09765625 C91.26269463 -0.11519455 91.26269463 -0.11519455 92.81391907 -0.13308716 C97.28899111 -0.07252724 99.74869487 0.0874265 103.56568909 2.56518555 C105.92815246 6.31493281 106.12687789 9.35690372 106.05102539 13.65673828 C106.0565744 14.4605896 106.06212341 15.26444092 106.06784058 16.09265137 C106.07962172 18.74149773 106.05538074 21.38862763 106.02954102 24.03735352 C106.02782959 25.88150454 106.02789592 27.72565799 106.02966309 29.56980896 C106.02801078 33.43089129 106.00932772 37.29139234 105.9777832 41.15234375 C105.93807797 46.10124421 105.93374169 51.0493845 105.94124603 55.99841404 C105.9443153 59.80485498 105.93219724 63.61112502 105.91511536 67.41752434 C105.90808522 69.24236924 105.90496084 71.06723351 105.9058075 72.89209175 C105.90400981 75.44160108 105.88263207 77.99019905 105.85571289 80.53955078 C105.85864349 81.29342575 105.8615741 82.04730072 105.86459351 82.82402039 C105.81348567 85.9610073 105.62082131 88.19660887 104.0970459 90.9705658 C101.32383322 93.579559 98.63670813 93.66017868 95.00857544 93.67388916 C94.10294861 93.6795993 93.19732178 93.68530945 92.26425171 93.69119263 C91.273013 93.69231049 90.28177429 93.69342834 89.26049805 93.69458008 C87.69180969 93.70202744 87.69180969 93.70202744 86.09143066 93.70962524 C82.62548164 93.72425245 79.15957836 93.73104948 75.69360352 93.73657227 C73.28848265 93.74232283 70.8833618 93.74808057 68.47824097 93.75384521 C63.43267605 93.7643565 58.38712707 93.77019848 53.34155273 93.77368164 C46.87273168 93.77916955 40.40412077 93.80320358 33.93536568 93.83165359 C28.96657696 93.85026538 23.99783904 93.85548478 19.0290184 93.85701752 C16.64396896 93.86004738 14.25892048 93.86808706 11.87390518 93.8812027 C8.53906444 93.89823387 5.20473949 93.89638999 1.86987305 93.88989258 C0.8826828 93.89910736 -0.10450745 93.90832214 -1.12161255 93.91781616 C-6.5894037 93.88440007 -10.494669 93.60298725 -14.56420898 89.53344727 C-14.68060024 86.90759064 -14.73221172 84.3076772 -14.74121094 81.68066406 C-14.74778214 80.85788971 -14.75435333 80.03511536 -14.76112366 79.18740845 C-14.78090604 76.45249349 -14.79253036 73.71763356 -14.80249023 70.98266602 C-14.80656576 70.0508079 -14.81064129 69.11894978 -14.81484032 68.15885353 C-14.83572245 63.22651005 -14.85001468 58.29419457 -14.859375 53.36181641 C-14.87044217 48.26035827 -14.90483944 43.15933601 -14.9445467 38.05803204 C-14.9706627 34.1418424 -14.97906238 30.22575736 -14.98265648 26.3094883 C-14.98753569 24.42878082 -14.99918743 22.54807842 -15.01769447 20.66745567 C-15.04197901 18.03608847 -15.04114067 15.40585844 -15.03417969 12.77441406 C-15.04698975 11.99555344 -15.0597998 11.21669281 -15.07299805 10.41423035 C-15.04198819 7.20215838 -14.75616205 4.88139135 -13.19509888 2.05172729 C-8.9689839 -0.38715317 -4.79482297 -0.0308069 0 0 Z M14.43579102 14.53344727 C17.22670201 17.32435826 19.61243562 19.52807289 22.73657227 21.81079102 C23.54932617 22.40698242 24.36208008 23.00317383 25.19946289 23.61743164 C26.04057617 24.2290918 26.88168945 24.84075195 27.74829102 25.47094727 C28.57780273 26.07874023 29.40731445 26.6865332 30.26196289 27.31274414 C31.88986177 28.50379565 33.52273013 29.68808963 35.16088867 30.86499023 C36.60930131 31.92728385 38.0344967 33.0225494 39.42553711 34.15893555 C41.38689623 35.79084151 41.38689623 35.79084151 44.43579102 37.53344727 C48.03257344 36.51970731 50.65315609 34.80601703 53.54516602 32.48657227 C54.30055664 31.88844727 55.05594727 31.29032227 55.83422852 30.67407227 C56.99825195 29.73821289 56.99825195 29.73821289 58.18579102 28.78344727 C63.57127597 24.4750593 68.97474346 20.40164264 74.79223633 16.6887207 C75.33460938 16.30748047 75.87698242 15.92624023 76.43579102 15.53344727 C76.43579102 15.20344727 76.43579102 14.87344727 76.43579102 14.53344727 C55.97579102 14.53344727 35.51579102 14.53344727 14.43579102 14.53344727 Z M-0.56420898 22.53344727 C-0.56420898 38.70344727 -0.56420898 54.87344727 -0.56420898 71.53344727 C6.45403221 66.88340307 6.45403221 66.88340307 13.29516602 62.02563477 C14.10083008 61.43137695 14.90649414 60.83711914 15.73657227 60.22485352 C16.54481445 59.62543945 17.35305664 59.02602539 18.18579102 58.40844727 C19.00950195 57.80129883 19.83321289 57.19415039 20.68188477 56.56860352 C22.94022599 54.89939478 25.18995654 53.21942882 27.43579102 51.53344727 C28.95946289 50.39262695 28.95946289 50.39262695 30.51391602 49.22875977 C31.14813477 48.66930664 31.78235352 48.10985352 32.43579102 47.53344727 C32.43579102 46.87344727 32.43579102 46.21344727 32.43579102 45.53344727 C30.93969126 44.18307991 30.93969126 44.18307991 28.95532227 42.84594727 C27.83577148 42.05160278 27.83577148 42.05160278 26.69360352 41.24121094 C25.88665039 40.67764893 25.07969727 40.11408691 24.24829102 39.53344727 C17.29800359 34.61331016 10.5099321 29.55950123 3.84204102 24.26391602 C1.65915062 22.33882951 1.65915062 22.33882951 -0.56420898 22.53344727 Z M86.04907227 24.99047852 C85.36449951 25.52133057 84.67992676 26.05218262 83.97460938 26.59912109 C83.23992432 27.17557373 82.50523926 27.75202637 81.74829102 28.34594727 C80.21541596 29.53471087 78.68154041 30.72218537 77.14672852 31.90844727 C76.36652344 32.51172852 75.58631836 33.11500977 74.7824707 33.73657227 C71.18410205 36.49187743 67.53429229 39.17469472 63.87329102 41.84594727 C63.22465088 42.31943604 62.57601074 42.7929248 61.90771484 43.28076172 C60.41814894 44.36646716 58.92714896 45.45020474 57.43579102 46.53344727 C60.56164313 49.87225281 64.00975791 52.4953652 67.74829102 55.09594727 C68.98857634 55.96864836 70.22813274 56.84238613 71.46704102 57.71704102 C72.11157227 58.17191895 72.75610352 58.62679687 73.42016602 59.09545898 C77.56226774 62.05051944 81.64288317 65.09103317 85.72412109 68.12939453 C88.33280407 70.47244316 88.33280407 70.47244316 91.43579102 71.53344727 C91.43579102 55.36344727 91.43579102 39.19344727 91.43579102 22.53344727 C88.82151536 22.53344727 88.09492208 23.38887037 86.04907227 24.99047852 Z M39.81079102 59.09594727 C39.10881592 59.6421875 38.40684082 60.18842773 37.68359375 60.7512207 C36.94181885 61.33935547 36.20004395 61.92749023 35.43579102 62.53344727 C33.90671325 63.72727095 32.37676384 64.91997905 30.84594727 66.11157227 C30.09716309 66.69616211 29.34837891 67.28075195 28.5769043 67.88305664 C24.87207086 70.73877774 21.06320276 73.4418455 17.24438477 76.14282227 C16.64754883 76.60172852 16.05071289 77.06063477 15.43579102 77.53344727 C15.43579102 77.86344727 15.43579102 78.19344727 15.43579102 78.53344727 C35.23579102 78.53344727 55.03579102 78.53344727 75.43579102 78.53344727 C72.63740315 75.7350594 70.23131986 73.51630593 67.09985352 71.22094727 C66.28258789 70.62024414 65.46532227 70.01954102 64.62329102 69.40063477 C63.77766602 68.78446289 62.93204102 68.16829102 62.06079102 67.53344727 C61.22290039 66.91727539 60.38500977 66.30110352 59.52172852 65.66625977 C57.16883788 63.94228644 54.80599571 62.23351419 52.43579102 60.53344727 C51.83089844 60.09516602 51.22600586 59.65688477 50.6027832 59.20532227 C46.19302296 56.11113596 44.0521028 55.75351431 39.81079102 59.09594727 Z " fill="#000000" transform="translate(71.564208984375,278.466552734375)"/>
<path d="M0 0 C1.39836594 -0.01702469 1.39836594 -0.01702469 2.82498169 -0.03439331 C4.34852516 -0.02999741 4.34852516 -0.02999741 5.90284729 -0.0255127 C7.51564575 -0.03821701 7.51564575 -0.03821701 9.161026 -0.05117798 C12.71904798 -0.0745978 16.27663879 -0.07556893 19.83473206 -0.07434082 C22.30568618 -0.08143923 24.77663865 -0.08913775 27.24758911 -0.09741211 C32.42845745 -0.11086831 37.60917338 -0.11242044 42.79005432 -0.10656738 C49.43280064 -0.10066959 56.07481654 -0.13126202 62.71742153 -0.17168427 C67.82092232 -0.19751921 72.92424625 -0.20044247 78.02780342 -0.1967926 C80.47705484 -0.1984877 82.92631409 -0.20816743 85.37550163 -0.22593689 C88.79917836 -0.24804284 92.22136368 -0.23846572 95.64503479 -0.2208252 C97.16554192 -0.24072006 97.16554192 -0.24072006 98.71676636 -0.26101685 C103.19747267 -0.2073057 105.64936947 -0.05392495 109.4695282 2.43089294 C111.81908992 6.15617605 112.02335752 9.15368446 111.93800354 13.42590332 C111.94194626 14.22000107 111.94588898 15.01409882 111.94995117 15.83226013 C111.95664657 18.44867703 111.92753341 21.06333621 111.89723206 23.67956543 C111.89298031 25.50129356 111.8906532 27.32302711 111.89016724 29.14476013 C111.8840064 32.95877715 111.86132758 36.77220583 111.82569885 40.58605957 C111.78039468 45.47432938 111.76567089 50.36206702 111.76196194 55.25052738 C111.75753297 59.0106277 111.74222897 62.7706164 111.7230854 66.53066826 C111.71420819 68.33318604 111.70747577 70.1357157 111.70292473 71.93824959 C111.69387944 74.4564731 111.67148713 76.97421631 111.64503479 79.49230957 C111.64437012 80.2368338 111.64370544 80.98135803 111.64302063 81.7484436 C111.54351674 88.61370944 111.54351674 88.61370944 109.33863831 91.39440918 C104.72917429 94.26360521 99.27302361 93.68239858 94.02809143 93.66906738 C92.99176071 93.67417831 91.95542999 93.67928925 90.88769531 93.68455505 C87.4650341 93.69844548 84.04257434 93.69749487 80.61988831 93.69519043 C78.24004542 93.69907723 75.86020323 93.70341187 73.48036194 93.70817566 C68.49380748 93.71563638 63.50732382 93.71534731 58.52076721 93.71008301 C52.12821148 93.70428408 45.73594508 93.72123057 39.34343719 93.74442768 C34.42954308 93.75915196 29.5157189 93.76003856 24.60180664 93.75691795 C22.24467393 93.75743167 19.88753736 93.76267883 17.53042603 93.77272987 C14.23648704 93.78505338 10.94311495 93.77832711 7.64918518 93.76672363 C6.67448776 93.77436737 5.69979034 93.78201111 4.69555664 93.78988647 C-0.73686075 93.74754616 -4.61908811 93.43668276 -8.66136169 89.39440918 C-8.77777181 86.7327754 -8.82936709 84.09673736 -8.83836365 81.43395996 C-8.84493484 80.59982574 -8.85150604 79.76569153 -8.85827637 78.90628052 C-8.87805681 76.13409344 -8.88968181 73.36196062 -8.89964294 70.58972168 C-8.90371847 69.64558285 -8.907794 68.70144402 -8.91199303 67.72869492 C-8.93287299 62.73266567 -8.94716693 57.73666407 -8.95652771 52.74060059 C-8.96760259 47.56954471 -9.00200936 42.39891795 -9.04169941 37.22801399 C-9.06779305 33.26125262 -9.07621302 29.29459464 -9.07980919 25.32775497 C-9.08469315 23.42110162 -9.09635819 21.51445342 -9.11484718 19.60788345 C-9.13908739 16.94278817 -9.13830173 14.27881825 -9.1313324 11.61364746 C-9.14414246 10.82184082 -9.15695251 10.03003418 -9.17015076 9.2142334 C-9.14910889 7.01333618 -9.14910889 7.01333618 -8.66136169 3.39440918 C-5.86993411 0.66335846 -3.8512306 0.01776429 0 0 Z M20.33863831 14.39440918 C23.51073484 17.56650571 25.99225944 20.03976071 29.51832581 22.55065918 C30.28273987 23.09851074 31.04715393 23.6463623 31.83473206 24.21081543 C32.61977112 24.76640137 33.40481018 25.3219873 34.21363831 25.89440918 C34.99094299 26.44999512 35.76824768 27.00558105 36.56910706 27.57800293 C38.09904839 28.67081817 39.63378486 29.75695618 41.17359924 30.83581543 C42.5761623 31.845509 43.95217965 32.89358225 45.29273987 33.98425293 C47.26139012 35.62058987 47.26139012 35.62058987 50.33863831 37.39440918 C53.93655412 36.3844931 56.55618382 34.66683423 59.44801331 32.34753418 C60.20340393 31.74940918 60.95879456 31.15128418 61.73707581 30.53503418 C62.90109924 29.5991748 62.90109924 29.5991748 64.08863831 28.64440918 C69.47412326 24.33602122 74.87759075 20.26260455 80.69508362 16.54968262 C81.23745667 16.16844238 81.77982971 15.78720215 82.33863831 15.39440918 C82.33863831 15.06440918 82.33863831 14.73440918 82.33863831 14.39440918 C61.87863831 14.39440918 41.41863831 14.39440918 20.33863831 14.39440918 Z M93.08473206 23.81628418 C92.4020929 24.34197998 91.71945374 24.86767578 91.01612854 25.40930176 C90.27693176 25.98188721 89.53773499 26.55447266 88.77613831 27.14440918 C87.23497051 28.33125519 85.69329049 29.51743629 84.15113831 30.70300293 C83.35836487 31.31256836 82.56559143 31.92213379 81.74879456 32.5501709 C77.94394451 35.46162118 74.1119732 38.33646751 70.27613831 41.20690918 C69.57996399 41.7280127 68.88378967 42.24911621 68.16651917 42.78601074 C66.55773339 43.98948939 64.94826887 45.19206064 63.33863831 46.39440918 C67.04735564 50.46905329 71.43296576 53.47221407 75.90113831 56.64440918 C77.51587612 57.7991411 79.13045968 58.95408877 80.74488831 60.10925293 C81.52863831 60.66854492 82.31238831 61.22783691 83.11988831 61.80407715 C86.92869268 64.53411144 90.69740933 67.31831169 94.46754456 70.10144043 C96.09669102 71.48915839 96.09669102 71.48915839 97.33863831 71.39440918 C97.33863831 54.89440918 97.33863831 38.39440918 97.33863831 21.39440918 C95.58463477 21.39440918 94.43195241 22.77380719 93.08473206 23.81628418 Z M5.33863831 22.39440918 C5.33863831 38.56440918 5.33863831 54.73440918 5.33863831 71.39440918 C12.64764338 66.54308429 12.64764338 66.54308429 19.70582581 61.41394043 C20.61074768 60.72493652 21.51566956 60.03593262 22.44801331 59.3260498 C23.36066956 58.6267334 24.27332581 57.92741699 25.21363831 57.20690918 C26.14949768 56.49599121 27.08535706 55.78507324 28.04957581 55.0526123 C33.42935198 50.99301778 33.42935198 50.99301778 38.33863831 46.39440918 C31.74106771 40.77048887 24.92118028 35.53826443 17.90113831 30.45690918 C17.12012756 29.88947998 16.33911682 29.32205078 15.53443909 28.73742676 C14.79048889 28.20270752 14.0465387 27.66798828 13.28004456 27.11706543 C12.61690247 26.64019287 11.95376038 26.16332031 11.27052307 25.67199707 C9.06220053 24.1558989 9.06220053 24.1558989 5.33863831 22.39440918 Z M46.69020081 58.17565918 C45.93658264 58.76709717 45.18296448 59.35853516 44.4065094 59.96789551 C43.60036194 60.60364502 42.79421448 61.23939453 41.96363831 61.89440918 C35.77217069 66.75317045 29.54775077 71.50691107 23.11207581 76.03894043 C22.52684143 76.48624512 21.94160706 76.9335498 21.33863831 77.39440918 C21.33863831 77.72440918 21.33863831 78.05440918 21.33863831 78.39440918 C41.13863831 78.39440918 60.93863831 78.39440918 81.33863831 78.39440918 C77.99156566 75.04733654 74.68769415 72.38216947 70.83863831 69.70690918 C64.98743078 65.59257338 59.25407549 61.35229913 53.56910706 57.01159668 C50.13497231 54.52169863 49.85432535 55.67920772 46.69020081 58.17565918 Z " fill="#000000" transform="translate(337.66136169433594,278.6055908203125)"/>
<path d="M0 0 C0.75928175 -0.00523668 1.5185635 -0.01047336 2.30085379 -0.01586872 C4.85268604 -0.03090642 7.40431845 -0.03157469 9.95619202 -0.03224182 C11.78263692 -0.03986069 13.60907861 -0.04828772 15.43551636 -0.0574646 C20.40239718 -0.07944134 25.36921644 -0.08821258 30.33614039 -0.09329104 C33.43730259 -0.09693039 36.53844855 -0.10316818 39.63960457 -0.11029243 C50.45282325 -0.13479642 61.26599387 -0.14784121 72.07923889 -0.15138245 C82.1682634 -0.1550201 92.25698413 -0.18492952 102.34591573 -0.22678703 C111.00075483 -0.26143955 119.65549299 -0.27693 128.31040102 -0.27762848 C133.48279683 -0.27842292 138.65488326 -0.28723801 143.82720757 -0.31562614 C148.69053324 -0.34172108 153.55329112 -0.34406019 158.41665459 -0.3279705 C160.20331557 -0.32614925 161.99000856 -0.33290746 163.77659988 -0.34878922 C166.21266696 -0.36912731 168.64672427 -0.35877264 171.08276367 -0.34057617 C171.79278233 -0.35377614 172.50280099 -0.36697611 173.23433536 -0.38057607 C176.92181767 -0.31749306 178.3592161 0.04112977 181.07500553 2.61726284 C182.60487366 5.27415466 182.60487366 5.27415466 182.60487366 8.39915466 C181.41782653 11.81191514 180.72536238 12.52894724 177.60487366 14.27415466 C175.031053 14.56673294 172.69995642 14.68799282 170.12745667 14.66856384 C169.37140404 14.67465495 168.61535142 14.68074605 167.83638811 14.68702173 C165.30138193 14.70367933 162.76687652 14.69887212 160.23182678 14.69407654 C158.4150846 14.70141519 156.5983471 14.71000083 154.78161621 14.71974182 C149.84575032 14.74198583 144.91005121 14.74488713 139.97414207 14.74299431 C135.85611435 14.74287476 131.73812217 14.75143224 127.62010431 14.75977182 C117.90748386 14.77901558 108.19494936 14.78188586 98.48231506 14.77513123 C88.45517063 14.76848639 78.42839368 14.79137041 68.4013238 14.82844496 C59.79740857 14.85910571 51.19361179 14.87050602 42.589643 14.86660814 C37.44857564 14.86453722 32.30779431 14.87007294 27.16677856 14.89450073 C22.33378603 14.91670606 17.50139277 14.91494207 12.6683979 14.89457321 C10.89303183 14.89115233 9.11762588 14.89629846 7.34231377 14.91055679 C4.92160066 14.92865981 2.50294014 14.91606968 0.08229065 14.89561462 C-0.62315494 14.90813247 -1.32860053 14.92065032 -2.05542326 14.9335475 C-5.70758488 14.86720912 -7.15917516 14.49455501 -9.86637115 11.96578217 C-11.39512634 9.27415466 -11.39512634 9.27415466 -11.33262634 5.58665466 C-9.59666317 -0.54708188 -5.47933892 -0.01857926 0 0 Z " fill="#000000" transform="translate(276.39512634277344,54.72584533691406)"/>
<path d="M0 0 C0.95900208 -0.00990463 1.91800415 -0.01980927 2.90606689 -0.03001404 C4.48179474 -0.02326157 4.48179474 -0.02326157 6.08935547 -0.01637268 C7.19688171 -0.02323593 8.30440796 -0.03009918 9.44549561 -0.03717041 C13.11597417 -0.05551106 16.78602831 -0.05159074 20.45654297 -0.0459137 C23.00097799 -0.0504717 25.54541177 -0.05577613 28.08984375 -0.0617981 C33.42632625 -0.0707433 38.76265318 -0.06852243 44.09912109 -0.05836487 C50.26987632 -0.04687894 56.44019717 -0.06096549 62.61089516 -0.08776134 C68.54561655 -0.11256858 74.4802026 -0.11510027 80.41497803 -0.10864449 C82.9412305 -0.10849071 85.46749112 -0.11458073 87.99371338 -0.12693596 C91.52071795 -0.14175529 95.04675685 -0.13123501 98.57373047 -0.11402893 C99.6242157 -0.1236969 100.67470093 -0.13336487 101.75701904 -0.14332581 C102.71602112 -0.13349167 103.67502319 -0.12365753 104.66308594 -0.11352539 C105.4970993 -0.11331611 106.33111267 -0.11310682 107.19039917 -0.1128912 C109.33154297 0.38768005 109.33154297 0.38768005 111.12722778 2.19634914 C112.96870271 5.54703423 112.31415582 7.78476628 111.33154297 11.38768005 C108.51571273 14.07777774 106.55994018 14.76367534 102.70814514 14.77536011 C101.32240044 14.79021706 101.32240044 14.79021706 99.90866089 14.80537415 C98.90231598 14.8008725 97.89597107 14.79637085 96.85913086 14.79173279 C95.79368546 14.79859604 94.72824005 14.80545929 93.63050842 14.81253052 C90.10493685 14.83084732 86.57980821 14.82695391 83.05419922 14.8212738 C80.60566563 14.82583327 78.15713333 14.83113813 75.70860291 14.8371582 C70.57480676 14.84609894 65.4411661 14.84365514 60.30737305 14.83372498 C53.72524917 14.82223465 47.1436617 14.84244354 40.56160831 14.87164211 C35.50443609 14.88997957 30.44739297 14.88971649 25.39019585 14.88400459 C22.96328415 14.88385108 20.53636387 14.88992034 18.10948372 14.90229607 C14.71709576 14.91715717 11.32570612 14.90656378 7.93334961 14.88938904 C6.92902893 14.89905701 5.92470825 14.90872498 4.88995361 14.91868591 C0.56700074 14.87280826 -1.99927564 14.77420464 -5.79981995 12.57897949 C-7.66845703 10.38768005 -7.66845703 10.38768005 -8.16845703 6.82518005 C-7.66845703 3.38768005 -7.66845703 3.38768005 -6.4289856 1.69706631 C-4.15207384 0.00362207 -2.82368736 0.0082268 0 0 Z " fill="#000000" transform="translate(64.66845703125,417.61231994628906)"/>
<path d="M0 0 C0.94210327 -0.01134979 1.88420654 -0.02269958 2.8548584 -0.03439331 C3.88147583 -0.03146271 4.90809326 -0.0285321 5.96582031 -0.0255127 C7.59565857 -0.03821701 7.59565857 -0.03821701 9.25842285 -0.05117798 C12.85371571 -0.07459688 16.44858192 -0.07556903 20.04394531 -0.07434082 C22.5397153 -0.08143876 25.03548364 -0.08913721 27.53125 -0.09741211 C32.7633806 -0.11086769 37.99540101 -0.11260132 43.22753906 -0.10656738 C49.27397559 -0.09992274 55.31980267 -0.12280886 61.36611557 -0.15988111 C67.18606271 -0.19426936 73.0057697 -0.20091584 78.82580566 -0.1967926 C81.30100318 -0.19848897 83.77620836 -0.20818081 86.25134277 -0.22593689 C89.70874751 -0.24801183 93.16467169 -0.23848199 96.62207031 -0.2208252 C97.64868774 -0.23408844 98.67530518 -0.24735168 99.73303223 -0.26101685 C106.64051665 -0.17883411 106.64051665 -0.17883411 109.96484375 2.73754883 C111.6744318 6.15499775 111.46814375 7.79353397 110.29394531 11.39440918 C108.67877726 13.49705132 107.82328046 14.29957034 105.18682957 14.7719326 C103.95988078 14.77362922 103.95988078 14.77362922 102.70814514 14.77536011 C101.76741653 14.78381958 100.82668793 14.79227905 99.85745239 14.80099487 C98.31213333 14.79188583 98.31213333 14.79188583 96.7355957 14.78259277 C95.64918289 14.78784973 94.56277008 14.79310669 93.44343567 14.79852295 C89.84267918 14.81175519 86.24236276 14.80297255 82.64160156 14.79284668 C80.14440323 14.79486663 77.64720547 14.7977774 75.15000916 14.80154419 C69.91189057 14.80597204 64.67388693 14.79980727 59.43579102 14.78552246 C53.38213169 14.76920403 47.3287756 14.77447774 41.27512366 14.79100168 C35.45038836 14.80626381 29.6257682 14.80463815 23.80102348 14.79585648 C21.32305293 14.79385262 18.84507466 14.7963202 16.36711311 14.80329514 C12.90509575 14.81090007 9.44366319 14.79931767 5.98168945 14.78259277 C4.43940674 14.79170181 4.43940674 14.79170181 2.8659668 14.80099487 C1.92241837 14.7925354 0.97886993 14.78407593 0.00672913 14.77536011 C-0.81161376 14.77422903 -1.62995665 14.77309795 -2.4730978 14.7719326 C-5.25378206 14.30180555 -6.64546446 13.28745299 -8.70605469 11.39440918 C-9.23730469 9.45690918 -9.23730469 9.45690918 -9.20605469 7.39440918 C-9.21636719 6.71378418 -9.22667969 6.03315918 -9.23730469 5.33190918 C-8.02110874 0.89637103 -4.14479257 0.01891544 0 0 Z " fill="#000000" transform="translate(337.7060546875,389.6055908203125)"/>
<path d="M0 0 C1.08655884 -0.00861557 2.17311768 -0.01723114 3.29260254 -0.02610779 C6.88801827 -0.04883029 10.4826586 -0.04201728 14.078125 -0.03295898 C16.5738956 -0.03819154 19.06966421 -0.04446666 21.56542969 -0.05174255 C26.79760032 -0.06215822 32.02956891 -0.05789643 37.26171875 -0.04296875 C43.30817771 -0.0260408 49.35391509 -0.04189103 55.40029526 -0.07419163 C61.22026582 -0.10410364 67.03995665 -0.1060734 72.85998535 -0.09669304 C75.33517394 -0.09587152 77.81037734 -0.10277296 80.28552246 -0.11746407 C83.74297043 -0.13483936 87.19886521 -0.12042413 90.65625 -0.09765625 C91.68286743 -0.10934845 92.70948486 -0.12104065 93.76721191 -0.13308716 C100.67438407 -0.04031273 100.67438407 -0.04031273 103.99902344 2.87757874 C105.70893712 6.29440261 105.50218256 7.93300409 104.328125 11.53344727 C102.71315426 13.63529856 101.85597121 14.43817545 99.22100925 14.913764 C98.40304339 14.9161939 97.58507753 14.91862379 96.74232483 14.92112732 C95.33123192 14.93598427 95.33123192 14.93598427 93.89163208 14.95114136 C92.86141937 14.94663971 91.83120667 14.94213806 90.76977539 14.9375 C89.14015617 14.94779488 89.14015617 14.94779488 87.47761536 14.95829773 C83.87687203 14.97663876 80.27656138 14.97271767 76.67578125 14.96704102 C74.17858233 14.97159934 71.68138467 14.97690386 69.18418884 14.98292542 C63.94607587 14.99187091 58.70807576 14.98964989 53.4699707 14.97949219 C47.41624776 14.96801221 41.36296789 14.98208265 35.30930334 15.00888866 C29.48455983 15.03371481 23.65998885 15.03622411 17.83520317 15.0297718 C15.35722555 15.02961815 12.87923958 15.0356987 10.4012928 15.04806328 C6.93914752 15.06290348 3.47798325 15.05234643 0.01586914 15.03515625 C-1.52641357 15.0496582 -1.52641357 15.0496582 -3.09985352 15.06445312 C-10.01560556 14.99237367 -10.01560556 14.99237367 -13.30860901 12.68959045 C-15.18466504 9.7224179 -15.24614971 7.9790955 -14.671875 4.53344727 C-11.18701413 -0.969139 -5.84679944 -0.03716624 0 0 Z " fill="#000000" transform="translate(71.671875,389.466552734375)"/>
<path d="M0 0 C0.95058792 -0.00701431 1.90117584 -0.01402863 2.88056946 -0.02125549 C4.44227119 -0.00978989 4.44227119 -0.00978989 6.03552246 0.00190735 C7.68218147 -0.00356865 7.68218147 -0.00356865 9.36210632 -0.00915527 C13.00014594 -0.01727827 16.6377426 -0.00363571 20.27575684 0.01094055 C22.79777018 0.01145895 25.31978393 0.01094205 27.84179688 0.00942993 C33.13121048 0.00951973 38.42046788 0.01962825 43.70983887 0.03804016 C49.82595149 0.05920795 55.94187637 0.06271773 62.05801821 0.0564782 C67.94040751 0.05078428 73.82274019 0.05653484 79.7051239 0.06765175 C82.20903761 0.07150863 84.71295699 0.07264995 87.21687317 0.0710659 C90.71252298 0.0706962 94.20788457 0.083289 97.70349121 0.0995636 C98.7446257 0.09708618 99.78576019 0.09460876 100.85844421 0.09205627 C101.80903214 0.09914108 102.75962006 0.10622589 103.73901367 0.11352539 C104.56565269 0.11557826 105.39229172 0.11763113 106.24398041 0.11974621 C108.36950684 0.3742218 108.36950684 0.3742218 111.36950684 2.3742218 C112.48941796 5.97393612 112.66378942 7.71208598 111.11950684 11.1867218 C109.36950684 13.3742218 109.36950684 13.3742218 106.36950684 14.3742218 C104.88110271 14.46715168 103.38889735 14.50479427 101.89759827 14.50793457 C100.52436905 14.51433205 100.52436905 14.51433205 99.12339783 14.52085876 C98.12123734 14.52040558 97.11907684 14.51995239 96.08654785 14.51948547 C94.5008197 14.52452339 94.5008197 14.52452339 92.88305664 14.52966309 C89.37983025 14.53918139 85.87665161 14.54111659 82.37341309 14.54219055 C79.94347616 14.54540231 77.51353942 14.54876632 75.08360291 14.55227661 C69.98676098 14.55826993 64.88993602 14.56011628 59.79309082 14.55952454 C53.25471634 14.55942285 46.7164503 14.57308051 40.17810154 14.59029675 C35.15874225 14.60140193 30.13940931 14.60344421 25.12003899 14.60291481 C22.70905114 14.60409696 20.29806266 14.6085318 17.88708687 14.61624718 C14.51860018 14.62601791 11.15035067 14.62318057 7.78186035 14.61714172 C6.28165596 14.62557098 6.28165596 14.62557098 4.75114441 14.63417053 C3.83283844 14.62997604 2.91453247 14.62578156 1.96839905 14.62145996 C0.77406927 14.62227711 0.77406927 14.62227711 -0.44438839 14.62311077 C-2.92245935 14.34098133 -4.52150513 13.692493 -6.63049316 12.3742218 C-8.15541314 9.32438184 -7.86611864 6.7318849 -7.63049316 3.3742218 C-5.418129 0.30837653 -3.68192401 -0.00074714 0 0 Z " fill="#000000" transform="translate(336.6304931640625,417.6257781982422)"/>
<path d="M0 0 C5.42046332 3.24311019 8.57007329 8.16995468 11 13.875 C12.0858215 20.87251631 11.4919791 27.46544282 7.5625 33.5 C3.31744784 38.59406259 -1.50782495 41.93288946 -8.1171875 42.88671875 C-15.58116314 43.18651833 -20.87022354 41.75002855 -26.4140625 36.69921875 C-30.9902715 31.84994378 -33.28260673 27.74020331 -33.53125 20.93359375 C-33.29202048 13.76667593 -31.22814701 8.83403058 -26.4375 3.5 C-19.41372231 -2.59515323 -8.51449053 -3.7457158 0 0 Z M-18.4375 16.5 C-19.24490332 20.94071826 -18.94081836 22.76790056 -16.375 26.5 C-13.53022026 28.82985977 -13.53022026 28.82985977 -9.8125 28.5625 C-6.48732899 27.75240109 -6.48732899 27.75240109 -4.5 25.875 C-2.98490344 22.48831357 -2.91381038 20.16582737 -3.4375 16.5 C-5.8310517 13.83289953 -7.42186983 12.70312603 -10.9375 12 C-14.45313017 12.70312603 -16.0439483 13.83289953 -18.4375 16.5 Z " fill="#000000" transform="translate(146.4375,41.5)"/>
<path d="M0 0 C5.68086161 3.3375062 9.59227713 8.19149701 11.625 14.4375 C12.49697313 21.78843628 12.21023072 28.41350186 7.625 34.4375 C3.20551713 39.23151531 -1.10869837 42.04772161 -7.7265625 42.65234375 C-15.90195059 42.96108197 -21.84555041 40.63036366 -27.86328125 35.0859375 C-32.66259371 29.85257869 -32.92337678 24.20051269 -32.71875 17.37109375 C-31.89616454 10.35107463 -28.5816675 6.08944192 -23.25390625 1.6640625 C-16.48277267 -2.75617855 -7.39669183 -3.32067283 0 0 Z M-16.25 14.5625 C-18.57582135 17.26878667 -18.57582135 17.26878667 -18.9375 20.5 C-18.23855315 24.15005579 -17.39297955 25.29314611 -14.375 27.4375 C-11.47148876 28.60198881 -11.47148876 28.60198881 -8.375 28.4375 C-4.87712914 26.49423841 -3.63624109 25.2734715 -2.4375 21.4375 C-2.3722586 18.30591304 -2.5736186 16.95943396 -4.375 14.4375 C-8.91576024 11.4103265 -11.80924585 11.28020345 -16.25 14.5625 Z " fill="#000000" transform="translate(206.375,41.5625)"/>
<path d="M0 0 C5.68086161 3.3375062 9.59227713 8.19149701 11.625 14.4375 C12.49697313 21.78843628 12.21023072 28.41350186 7.625 34.4375 C2.46389077 40.03599137 -2.55317017 42.43549606 -10.1875 42.8125 C-16.38532477 42.65405937 -21.51587763 40.96601721 -26.19921875 36.82421875 C-31.62897299 30.89487453 -32.86636199 25.10713453 -32.68359375 17.18359375 C-31.90935042 10.29380816 -28.46324637 5.99107819 -23.25390625 1.6640625 C-16.48277267 -2.75617855 -7.39669183 -3.32067283 0 0 Z M-17.375 16.4375 C-18.53948881 19.34101124 -18.53948881 19.34101124 -18.375 22.4375 C-16.43173841 25.93537086 -15.2109715 27.17625891 -11.375 28.375 C-8.24341304 28.4402414 -6.89693396 28.2388814 -4.375 26.4375 C-2.02950326 22.91925489 -1.79508597 21.57974306 -2.375 17.4375 C-4.86102449 14.07405511 -6.28925523 12.63692251 -10.4375 11.875 C-14.08755579 12.57394685 -15.23064611 13.41952045 -17.375 16.4375 Z " fill="#000000" transform="translate(85.375,41.5625)"/>
<path d="M0 0 C1.1177758 -0.01051392 1.1177758 -0.01051392 2.25813293 -0.02124023 C4.71739138 -0.03882229 7.17549581 -0.02719761 9.63476562 -0.01367188 C11.34582744 -0.01636675 13.05688776 -0.02024913 14.76794434 -0.02526855 C18.35244337 -0.03116386 21.93654346 -0.02259986 25.52099609 -0.00390625 C30.11468002 0.01888362 34.70742917 0.00576066 39.3010788 -0.01819611 C42.83387286 -0.03265339 46.36644546 -0.02804848 49.89924622 -0.01768494 C51.59292207 -0.01501744 53.28661805 -0.01828823 54.98027039 -0.02760315 C57.34806539 -0.037768 59.71434879 -0.02227067 62.08203125 0 C62.78137283 -0.00809692 63.48071442 -0.01619385 64.20124817 -0.02453613 C67.5183158 0.03323678 69.28638098 0.3286318 71.9798584 2.32727051 C74.23716487 5.49427731 74.02333169 7.72795187 73.54101562 11.51757812 C72.48522949 13.2081604 72.48522949 13.2081604 70.54101562 14.51757812 C67.94628083 14.81355088 65.59127913 14.92755314 62.99609375 14.90576172 C62.22994247 14.91101868 61.4637912 14.91627563 60.67442322 14.92169189 C58.14016372 14.93490313 55.60653159 14.92615011 53.07226562 14.91601562 C51.31253946 14.91803604 49.55281411 14.92094721 47.79309082 14.92471313 C44.10432975 14.929138 40.41578654 14.92270027 36.72705078 14.90869141 C31.99550281 14.89159935 27.26446533 14.90143968 22.5329361 14.9194088 C18.89898828 14.93024229 15.26516177 14.92680231 11.63121033 14.91902542 C9.88646891 14.91702221 8.14171653 14.91948694 6.39698792 14.92646408 C3.95967377 14.93407152 1.52318971 14.92248496 -0.9140625 14.90576172 C-1.63727188 14.91183441 -2.36048126 14.9179071 -3.10560608 14.92416382 C-5.97840674 14.88759176 -7.9825728 14.83843879 -10.40319824 13.2081604 C-12.22833153 10.28565754 -11.86816736 7.84949671 -11.45898438 4.51757812 C-8.3131206 0.10392312 -5.08052414 -0.05882192 0 0 Z " fill="#000000" transform="translate(340.458984375,444.482421875)"/>
<path d="M0 0 C1.1177758 -0.01051392 1.1177758 -0.01051392 2.25813293 -0.02124023 C4.71739138 -0.03882229 7.17549581 -0.02719761 9.63476562 -0.01367188 C11.34582744 -0.01636675 13.05688776 -0.02024913 14.76794434 -0.02526855 C18.35244337 -0.03116386 21.93654346 -0.02259986 25.52099609 -0.00390625 C30.11468002 0.01888362 34.70742917 0.00576066 39.3010788 -0.01819611 C42.83387286 -0.03265339 46.36644546 -0.02804848 49.89924622 -0.01768494 C51.59292207 -0.01501744 53.28661805 -0.01828823 54.98027039 -0.02760315 C57.34806539 -0.037768 59.71434879 -0.02227067 62.08203125 0 C62.78137283 -0.00809692 63.48071442 -0.01619385 64.20124817 -0.02453613 C67.5183158 0.03323678 69.28638098 0.3286318 71.9798584 2.32727051 C74.23716487 5.49427731 74.02333169 7.72795187 73.54101562 11.51757812 C72.48522949 13.20716858 72.48522949 13.20716858 70.54101562 14.51757812 C67.94684918 14.81871297 65.59138244 14.93778535 62.99609375 14.92163086 C62.22994247 14.92849411 61.4637912 14.93535736 60.67442322 14.94242859 C58.14018255 14.96074042 55.60655829 14.95685339 53.07226562 14.95117188 C51.31253863 14.95573126 49.55281342 14.96103611 47.79309082 14.96705627 C44.10433723 14.97599573 40.41580006 14.97355444 36.72705078 14.96362305 C31.99539807 14.95212635 27.26449084 14.972351 22.5329361 15.00154018 C18.8989791 15.01986782 15.26520193 15.01961673 11.63121033 15.01390266 C9.88645888 15.01374906 8.14169553 15.01982572 6.39698792 15.03219414 C3.95949223 15.04703978 1.523389 15.03647629 -0.9140625 15.01928711 C-1.63727188 15.02895508 -2.36048126 15.03862305 -3.10560608 15.04858398 C-6.3265164 15.00091724 -8.01714528 14.93661022 -10.40319824 12.67372131 C-11.85502762 9.70877233 -11.93445804 7.77796897 -11.45898438 4.51757812 C-8.27806859 0.12637723 -5.09168075 -0.05895109 0 0 Z " fill="#000000" transform="translate(68.458984375,444.482421875)"/>
</svg>
